<?xml version="1.0" standalone="no"?>
<!DOCTYPE svg PUBLIC "-//W3C//DTD SVG 1.1//EN" "http://www.w3.org/Graphics/SVG/1.1/DTD/svg11.dtd" >
<svg xmlns="http://www.w3.org/2000/svg" width="100%" height="100%">
<metadata>
Created by FontXChange 20110222 at Sat Jul 27 10:28:32 2013
 By Nick Dunn
JohnstonITCW01 Bold
</metadata>
<defs>
<font id="JohnstonITCW01-Bold" horiz-adv-x="597" >
  <font-face 
    font-family="JohnstonITCW01 Bold"
    font-weight="400"
    font-stretch="normal"
    units-per-em="1000"
    panose-1="2 11 8 4 4 2 4 2 4 4"
    ascent="716"
    descent="-284"
    x-height="460"
    cap-height="672"
    bbox="-74 -262 1160 937"
    underline-thickness="50"
    underline-position="-50"
    unicode-range="U+000D-2122"
  />
<missing-glyph horiz-adv-x="0" 
 />
    <glyph glyph-name=".notdef" horiz-adv-x="0" 
 />
    <glyph glyph-name="glyph1" horiz-adv-x="0" 
 />
    <glyph glyph-name="uni000D" unicode="&#xd;" horiz-adv-x="0" 
 />
    <glyph glyph-name="space" unicode=" " horiz-adv-x="204" 
 />
    <glyph glyph-name="exclam" unicode="!" horiz-adv-x="310" 
d="M122 184l-41 354v134h148v-134l-41 -354h-66zM155 -28l-86 86l86 87l86 -87z" />
    <glyph glyph-name="quotedbl" unicode="&#x22;" horiz-adv-x="512" 
d="M328 418l-27 148v106h116v-106l-27 -148h-62zM122 418l-27 148v106h116v-106l-27 -148h-62z" />
    <glyph glyph-name="numbersign" unicode="#" horiz-adv-x="705" 
d="M355 -39l42 200h-163l-42 -200h-119l42 200h-106l21 102h107l31 147h-107l21 102h107l42 199h119l-42 -199h163l42 199h119l-42 -199h106l-21 -102h-106l-31 -147h106l-21 -102h-107l-42 -200h-119zM450 410h-163l-31 -147h163z" />
    <glyph glyph-name="dollar" unicode="$" 
d="M263 -95v82q-79 5 -127 34.5t-81 75.5l83 76q20 -29 48.5 -48.5t76.5 -24.5v195q-31 15 -62.5 32t-57 41.5t-41.5 57.5t-16 80q0 34 12.5 64.5t35.5 54.5t55.5 39.5t73.5 19.5v89h71v-90q88 -12 151 -82l-76 -83q-35 35 -75 48v-147q31 -15 63.5 -33.5t59 -43.5t43 -58.5
t16.5 -78.5q0 -44 -13.5 -81.5t-37.5 -65.5t-57.5 -45.5t-73.5 -23.5v-84h-71zM263 570q-28 -7 -39 -23.5t-11 -35.5q0 -17 13.5 -31t36.5 -26v116zM334 106q24 9 40 28t16 48q0 26 -15.5 44t-40.5 33v-153z" />
    <glyph glyph-name="percent" unicode="%" horiz-adv-x="858" 
d="M799 151q0 -34 -13 -64t-35.5 -52.5t-52.5 -35.5t-64 -13t-64 13t-52.5 35.5t-35.5 52.5t-13 64t13 64t35.5 52.5t52.5 35.5t64 13t64 -13t52.5 -35.5t35.5 -52.5t13 -64zM145 0l437 672h129l-437 -672h-129zM389 521q0 -34 -13 -64t-35.5 -52.5t-52.5 -35.5t-64 -13
t-64 13t-52.5 35.5t-35.5 52.5t-13 64t13 64t35.5 52.5t52.5 35.5t64 13t64 -13t52.5 -35.5t35.5 -52.5t13 -64zM699 151q0 27 -19 46t-46 19t-46 -19t-19 -46t19 -46t46 -19t46 19t19 46zM289 521q0 27 -19 46t-46 19t-46 -19t-19 -46t19 -46t46 -19t46 19t19 46z" />
    <glyph glyph-name="ampersand" unicode="&#x26;" horiz-adv-x="726" 
d="M549 0l-79 78q-51 -51 -105 -71.5t-99 -20.5q-54 0 -95.5 16t-70.5 43t-44 62.5t-15 73.5q0 53 31 101.5t94 88.5q-34 38 -50 72t-16 69q0 40 16.5 72.5t44 55t64 34.5t75.5 12q49 0 85 -14t59 -36.5t34 -50.5t11 -55q0 -43 -28 -90t-90 -83l100 -98q16 20 32 45t30 54
h140q-8 -19 -20.5 -42.5t-27.5 -48.5t-32.5 -49t-34.5 -45l177 -173h-186zM289 435q40 21 54.5 43.5t14.5 39.5q0 23 -16.5 35.5t-41.5 12.5q-24 0 -41.5 -15t-17.5 -41q0 -14 12 -34.5t36 -40.5zM257 287q-34 -21 -50 -44.5t-16 -54.5q0 -13 6 -26.5t17.5 -24.5t28.5 -18
t40 -7q25 0 50.5 12t50.5 38z" />
    <glyph glyph-name="quotesingle" unicode="'" horiz-adv-x="286" 
d="M112 418l-27 148v106h116v-106l-27 -148h-62z" />
    <glyph glyph-name="parenleft" unicode="(" horiz-adv-x="391" 
d="M217 -161q-61 112 -97 238.5t-36 252.5t36 252.5t97 238.5h143q-34 -59 -60 -116.5t-44 -117t-27.5 -123t-9.5 -134.5t9.5 -134.5t27.5 -123t44 -117t60 -116.5h-143z" />
    <glyph glyph-name="parenright" unicode=")" horiz-adv-x="391" 
d="M31 -161q34 59 60 116.5t44 117t27.5 123t9.5 134.5t-9.5 134.5t-27.5 123t-44 117t-60 116.5h143q61 -112 97 -238.5t36 -252.5t-36 -252.5t-97 -238.5h-143z" />
    <glyph glyph-name="asterisk" unicode="*" horiz-adv-x="404" 
d="M232 441l17 -124h-94l17 124l-94 -72l-47 81l109 44l-109 45l47 81l94 -72l-17 124h94l-17 -124l94 72l47 -81l-109 -45l109 -44l-47 -81z" />
    <glyph glyph-name="plus" unicode="+" 
d="M244 122v159h-149v109h149v159h109v-159h149v-109h-149v-159h-109z" />
    <glyph glyph-name="comma" unicode="," horiz-adv-x="280" 
d="M213 45q0 -21 -5.5 -46.5t-21 -47.5t-43.5 -37t-73 -15q-20 0 -41 4t-30 9q29 8 46 18.5t25.5 26t11 36t2.5 48.5v96h129v-92z" />
    <glyph glyph-name="hyphen" unicode="-" horiz-adv-x="429" 
d="M50 191v116h329v-116h-329z" />
    <glyph glyph-name="period" unicode="." horiz-adv-x="280" 
d="M71 0v137h138v-137h-138z" />
    <glyph glyph-name="slash" unicode="/" horiz-adv-x="397" 
d="M29 -129l246 929h133l-246 -929h-133z" />
    <glyph glyph-name="zero" unicode="0" 
d="M298 -12q-65 0 -111.5 28t-76.5 75.5t-44.5 111t-14.5 134.5t14.5 134.5t44.5 111t76.5 75.5t111.5 28q64 0 111 -28t77 -75.5t44.5 -111t14.5 -134.5t-14.5 -134.5t-44.5 -111t-77 -75.5t-111 -28zM298 118q18 0 35 11.5t31 37t22.5 67.5t8.5 103t-8.5 103t-22.5 67.5
t-31 37t-35 11.5t-35 -11.5t-31 -37t-22.5 -67.5t-8.5 -103t8.5 -103t22.5 -67.5t31 -37t35 -11.5z" />
    <glyph glyph-name="one" unicode="1" 
d="M226 0v602l144 98v-700h-144z" />
    <glyph glyph-name="two" unicode="2" 
d="M75 0q44 72 88 148t79.5 143.5t57.5 118t22 71.5q0 32 -18.5 50.5t-49.5 18.5q-26 0 -51 -10.5t-47.5 -27t-40.5 -35.5t-30 -35v162q37 34 85.5 58t103.5 24q42 0 78 -16.5t62.5 -44t41.5 -63.5t15 -76q0 -32 -15 -75t-38.5 -90.5t-53 -97t-59.5 -94.5h189v-129h-419z
" />
    <glyph glyph-name="three" unicode="3" 
d="M159 210q6 -16 15 -32t21.5 -29t29.5 -21t40 -8q45 0 72.5 30t27.5 78q0 16 -6 34.5t-20 34.5t-36 26t-54 10q-17 0 -40.5 -4.5t-34.5 -9.5l109 224h-210v129h429l-127 -260q21 -8 44 -22.5t42.5 -38t32.5 -57.5t13 -80q0 -49 -19 -91t-51 -72.5t-74 -47.5t-89 -17
q-39 0 -72 10.5t-60.5 28.5t-49.5 41.5t-39 50.5z" />
    <glyph glyph-name="four" unicode="4" 
d="M367 0v117h-381l517 577v-455h87v-122h-87v-117h-136zM371 367l-119 -131h119v131z" />
    <glyph glyph-name="five" unicode="5" 
d="M157 210q6 -16 15 -32t21.5 -29t29.5 -21t40 -8q45 0 72.5 30t27.5 78q0 16 -7 35.5t-21.5 35.5t-37 27t-54.5 11q-36 0 -66.5 -11t-56.5 -26l24 372h365l-64 -129h-177l-5 -110q6 1 13.5 1.5t13.5 0.5q46 0 85.5 -17t68 -47t45 -70.5t16.5 -86.5q0 -49 -19 -91
t-51 -72.5t-74 -47.5t-89 -17q-39 0 -72 10.5t-60.5 28.5t-49.5 41.5t-39 50.5z" />
    <glyph glyph-name="six" unicode="6" 
d="M498 672q-33 -29 -67.5 -64t-65 -72t-56 -73.5t-40.5 -69.5q16 6 32.5 10t48.5 4q43 0 79 -16.5t62.5 -45t41.5 -66.5t15 -82q0 -35 -14 -72.5t-42 -68t-70.5 -50.5t-98.5 -20q-55 0 -100 18t-77.5 51.5t-50 80.5t-17.5 105q0 108 55.5 212t174.5 219h190zM231 251
q-4 -19 -4 -32q0 -16 5 -33.5t16.5 -32.5t29 -24.5t42.5 -9.5q34 0 59 23t25 61q0 14 -5.5 29t-16.5 27t-27.5 19.5t-38.5 7.5q-20 0 -42 -7.5t-43 -27.5z" />
    <glyph glyph-name="seven" unicode="7" 
d="M81 0l265 543h-289v129h506l-328 -672h-154z" />
    <glyph glyph-name="eight" unicode="8" 
d="M405 373q56 -33 88.5 -77.5t32.5 -103.5q0 -39 -16 -76.5t-45.5 -66t-72 -46t-94.5 -17.5q-45 0 -86 14t-72.5 39.5t-50.5 61.5t-19 81q0 60 31.5 103.5t88.5 80.5q-35 27 -58.5 62t-23.5 83q0 38 13.5 70t38.5 55.5t60 36.5t78 13q46 0 81.5 -14t59.5 -38t36.5 -55
t12.5 -65q0 -44 -24 -78.5t-59 -62.5zM297 424q35 14 52.5 37.5t17.5 38.5q0 26 -19 44.5t-50 18.5q-25 0 -47 -14.5t-22 -45.5q0 -21 14.5 -39t53.5 -40zM297 301q-30 -17 -47.5 -31t-26.5 -27.5t-11.5 -26t-2.5 -25.5q0 -32 25.5 -54t63.5 -22q41 0 65 24t24 62
q0 29 -24 53.5t-66 46.5z" />
    <glyph glyph-name="nine" unicode="9" 
d="M102 0q72 64 132.5 136.5t95.5 141.5q-8 -3 -15.5 -5.5t-15.5 -4t-19 -2.5t-27 -1q-43 0 -79 16.5t-62.5 45t-41.5 66.5t-15 82q0 35 14 72.5t42 68t70.5 50.5t98.5 20q55 0 100 -18t77.5 -51.5t50 -80.5t17.5 -105q0 -54 -13 -105t-40.5 -102.5t-71.5 -106.5t-105 -117
h-193zM372 421q4 19 4 32t-5.5 30.5t-16.5 33t-28.5 26t-42.5 10.5q-34 0 -59 -23t-25 -61q0 -14 5.5 -29t16.5 -27t27.5 -19.5t38.5 -7.5q20 0 42 7.5t43 27.5z" />
    <glyph glyph-name="colon" unicode=":" horiz-adv-x="280" 
d="M71 272v137h138v-137h-138zM71 0v137h138v-137h-138z" />
    <glyph glyph-name="semicolon" unicode=";" horiz-adv-x="280" 
d="M80 272v137h137v-137h-137zM213 45q0 -21 -5.5 -46.5t-21 -47.5t-43.5 -37t-73 -15q-20 0 -41 4t-30 9q29 8 46 18.5t25.5 26t11 36t2.5 48.5v96h129v-92z" />
    <glyph glyph-name="less" unicode="&#x3c;" 
d="M95 281v109l407 159v-109l-268 -104l268 -105v-109z" />
    <glyph glyph-name="equal" unicode="=" 
d="M95 378v109h407v-109h-407zM95 184v109h407v-109h-407z" />
    <glyph glyph-name="greater" unicode="&#x3e;" 
d="M95 122v109l268 105l-268 104v109l407 -159v-109z" />
    <glyph glyph-name="question" unicode="?" horiz-adv-x="455" 
d="M175 177q-33 32 -44.5 58t-11.5 50q0 18 4 31.5t13.5 28t25.5 31t40 39.5q19 18 31 30.5t19 21.5t9.5 16.5t2.5 15.5q0 23 -15 38t-43 15q-32 0 -54 -19.5t-42 -56.5l-93 84q35 60 82.5 93t119.5 33q36 0 69.5 -11.5t60 -35t42.5 -58t16 -79.5q0 -47 -25 -82.5t-74 -79.5
q-30 -27 -40 -38.5t-10 -20.5q0 -11 10 -24zM182 -28l-86 86l86 87l86 -87z" />
    <glyph glyph-name="at" unicode="@" horiz-adv-x="980" 
d="M791 -84q-63 -22 -131 -33.5t-149 -11.5q-105 0 -188.5 33.5t-142 93t-89.5 139.5t-31 173q0 91 34.5 170.5t94 139t139 94t170.5 34.5t170.5 -34.5t139 -92.5t93.5 -135t34 -161t-22.5 -137.5t-54.5 -84.5t-66 -43t-56 -12q-110 0 -152 99q-39 -30 -82 -47t-76 -17
q-30 0 -58 8.5t-49 26t-34 43t-13 59.5q0 29 16 61t61 58q35 20 91 33t122 16q-1 25 -10 40t-23 22.5t-30.5 9.5t-32.5 2q-42 0 -85.5 -16t-77.5 -39l27 117q39 17 84.5 28.5t91.5 11.5q86 0 132.5 -44t46.5 -141v-106q0 -67 12.5 -98.5t47.5 -31.5q13 0 30 7.5t32.5 27.5
t26.5 55.5t11 91.5q0 72 -29.5 135t-78.5 110.5t-111 74.5t-128 27q-69 0 -132 -28.5t-111 -77.5t-76.5 -115t-28.5 -140t24 -138.5t70 -113.5t112.5 -77t150.5 -28q62 0 121.5 9t128.5 32zM562 307q-43 -4 -73 -10.5t-48 -14.5q-26 -12 -36 -26.5t-10 -34.5
q0 -17 15.5 -33.5t55.5 -16.5q18 0 45.5 11.5t54.5 34.5q-2 14 -3 30t-1 33v27z" />
    <glyph glyph-name="A" unicode="A" horiz-adv-x="681" 
d="M515 0l-49 138h-251l-49 -138h-153l261 672h133l261 -672h-153zM341 487l-81 -225h161z" />
    <glyph glyph-name="B" unicode="B" horiz-adv-x="602" 
d="M74 0v672h222q56 0 96.5 -15.5t66.5 -41t38.5 -57t12.5 -64.5q0 -25 -8 -46.5t-21.5 -39t-30.5 -30.5t-36 -21q24 -5 49 -18.5t45 -34t32.5 -48t12.5 -60.5q0 -48 -18 -85t-47 -61.5t-66.5 -37t-77.5 -12.5h-270zM283 402q41 0 64.5 19.5t23.5 56.5q0 29 -21.5 50
t-68.5 21h-63v-147h65zM319 123q40 0 64.5 21.5t24.5 55.5q0 35 -26 57t-75 22h-89v-156h101z" />
    <glyph glyph-name="C" unicode="C" horiz-adv-x="683" 
d="M636 49q-49 -29 -110 -46t-113 -17q-74 0 -140.5 28t-116 76t-78.5 111.5t-29 134.5q0 75 29 139t79 111t116.5 73.5t140.5 26.5q28 0 58.5 -4t59.5 -11t56 -16.5t49 -20.5v-158q-55 36 -109 55.5t-105 19.5t-92 -18.5t-69.5 -48.5t-44 -69t-15.5 -79q0 -49 18.5 -88.5
t49 -67.5t70.5 -43.5t84 -15.5q58 0 111.5 23.5t100.5 65.5v-161z" />
    <glyph glyph-name="D" unicode="D" horiz-adv-x="737" 
d="M74 0v672h257q86 0 152.5 -30.5t112 -78.5t69 -108t23.5 -119q0 -54 -21 -113.5t-65.5 -109t-114.5 -81.5t-167 -32h-246zM308 134q50 0 91.5 16t71.5 43.5t46.5 64t16.5 78.5q0 40 -13 76.5t-38.5 64.5t-64.5 44.5t-90 16.5h-110v-404h90z" />
    <glyph glyph-name="E" unicode="E" horiz-adv-x="577" 
d="M74 0v672h452v-134h-308v-126h219v-134h-219v-144h308v-134h-452z" />
    <glyph glyph-name="F" unicode="F" horiz-adv-x="552" 
d="M74 0v672h452v-134h-308v-126h219v-134h-219v-278h-144z" />
    <glyph glyph-name="G" unicode="G" horiz-adv-x="727" 
d="M513 257h-112v133h256v-354q-111 -50 -241 -50q-75 0 -141.5 27.5t-116.5 74.5t-79.5 111t-29.5 137q0 74 29.5 138t80.5 111t119.5 74t146.5 27q28 0 59.5 -3.5t61.5 -10t57.5 -15t49.5 -18.5v-157q-50 29 -109.5 49t-115.5 20q-51 0 -93 -18.5t-71.5 -48.5t-45.5 -69
t-16 -79q0 -48 18.5 -88t49.5 -69t72.5 -45.5t87.5 -16.5q20 0 39.5 2.5t43.5 11.5v126z" />
    <glyph glyph-name="H" unicode="H" horiz-adv-x="724" 
d="M506 0v278h-288v-278h-144v672h144v-260h288v260h144v-672h-144z" />
    <glyph glyph-name="I" unicode="I" horiz-adv-x="292" 
d="M74 0v672h144v-672h-144z" />
    <glyph glyph-name="J" unicode="J" horiz-adv-x="495" 
d="M283 672h144v-461q0 -61 -19 -103.5t-48.5 -69.5t-66 -39.5t-72.5 -12.5q-45 0 -78.5 14t-57.5 35.5t-39.5 48t-24.5 52.5l129 56q1 -34 21 -52.5t46 -18.5q29 0 47.5 19.5t18.5 64.5v467z" />
    <glyph glyph-name="K" unicode="K" horiz-adv-x="703" 
d="M495 0l-277 286v-286h-144v672h144v-276l259 276h194l-327 -330l350 -342h-199z" />
    <glyph glyph-name="L" unicode="L" horiz-adv-x="542" 
d="M74 0v672h144v-538h293v-134h-437z" />
    <glyph glyph-name="M" unicode="M" horiz-adv-x="830" 
d="M612 0v449l-197 -235l-197 235v-449h-144v672h136l205 -251l205 251h136v-672h-144z" />
    <glyph glyph-name="N" unicode="N" horiz-adv-x="769" 
d="M560 0l-342 438v-438h-144v672h144l333 -426v426h144v-672h-135z" />
    <glyph glyph-name="O" unicode="O" horiz-adv-x="824" 
d="M775 336q0 -65 -26.5 -127.5t-74.5 -112t-114.5 -80t-147.5 -30.5t-147.5 30.5t-114.5 80t-74.5 112t-26.5 127.5t26.5 127.5t74.5 112t114.5 80t147.5 30.5t147.5 -30.5t114.5 -80t74.5 -112t26.5 -127.5zM412 121q45 0 83.5 16.5t66.5 45.5t44 68t16 85t-16 85t-44 68
t-66.5 45.5t-83.5 16.5t-83.5 -16.5t-66.5 -45.5t-44 -68t-16 -85t16 -85t44 -68t66.5 -45.5t83.5 -16.5z" />
    <glyph glyph-name="P" unicode="P" horiz-adv-x="573" 
d="M74 0v672h226q61 0 107.5 -17.5t78 -48t48 -72t16.5 -90.5t-19 -89t-52.5 -68.5t-79 -44.5t-97.5 -16h-84v-226h-144zM293 360q20 0 39 4.5t33.5 15t23.5 28t9 43.5q0 16 -5.5 32t-17.5 28t-32.5 19.5t-50.5 7.5h-74v-178h75z" />
    <glyph glyph-name="Q" unicode="Q" horiz-adv-x="824" 
d="M611 44q-42 -27 -92 -42.5t-107 -15.5q-81 0 -147.5 30.5t-114.5 80t-74.5 112t-26.5 127.5t26.5 127.5t74.5 112t114.5 80t147.5 30.5t147.5 -30.5t114.5 -80t74.5 -112t26.5 -127.5q0 -54 -18 -105t-50 -96l73 -64l-87 -99zM433 199l87 99l77 -67q25 48 25 105
q0 46 -16 85t-44 68t-66.5 45.5t-83.5 16.5t-83.5 -16.5t-66.5 -45.5t-44 -68t-16 -85t16 -85t44 -68t66.5 -45.5t83.5 -16.5q46 0 89 19z" />
    <glyph glyph-name="R" unicode="R" horiz-adv-x="640" 
d="M449 0l-178 252h-53v-252h-144v672h222q70 0 113.5 -23.5t68 -56.5t33 -68.5t8.5 -59.5q0 -64 -31 -106.5t-76 -68.5l218 -289h-181zM280 381q52 0 73.5 24t21.5 56q0 35 -24 56t-69 21h-64v-157h62z" />
    <glyph glyph-name="S" unicode="S" horiz-adv-x="538" 
d="M358 500q-13 23 -34 39t-49 16q-29 0 -45 -14.5t-16 -37.5q0 -22 21 -37.5t53 -30t69 -31.5t69 -42.5t53 -62.5t21 -91q0 -39 -14.5 -78.5t-43.5 -71.5t-72 -52t-100 -20q-48 0 -85 14.5t-65 38t-48 52t-33 56.5l127 67q4 -16 11.5 -33.5t19.5 -31.5t30 -23.5t44 -9.5
q30 0 54.5 21.5t24.5 55.5q0 29 -21 48t-52 35.5t-68 33.5t-68 40.5t-52 57.5t-21 85q0 37 15.5 72t43.5 62t65.5 43t82.5 16q61 0 114 -30t89 -89z" />
    <glyph glyph-name="T" unicode="T" horiz-adv-x="578" 
d="M217 0v538h-192v134h528v-134h-192v-538h-144z" />
    <glyph glyph-name="U" unicode="U" horiz-adv-x="770" 
d="M557 672h144v-369q0 -68 -23 -126t-64.5 -100t-100 -65.5t-128.5 -23.5q-71 0 -129 23.5t-99.5 65.5t-64.5 100t-23 126v369h144v-373q0 -46 13.5 -79.5t37 -55.5t54.5 -32.5t67 -10.5t67 10.5t54.5 32.5t37 55.5t13.5 79.5v373z" />
    <glyph glyph-name="V" unicode="V" horiz-adv-x="674" 
d="M269 0l-255 672h155l170 -475l168 475h153l-255 -672h-136z" />
    <glyph glyph-name="W" unicode="W" horiz-adv-x="982" 
d="M621 0l-130 440l-130 -440h-136l-208 672h143l133 -438l132 438h132l132 -438l133 438h143l-208 -672h-136z" />
    <glyph glyph-name="X" unicode="X" horiz-adv-x="717" 
d="M520 0l-161 231l-162 -231h-168l246 352l-224 320h168l139 -200l140 200h168l-224 -320l246 -352h-168z" />
    <glyph glyph-name="Y" unicode="Y" horiz-adv-x="648" 
d="M252 0v296l-238 376h166l144 -240l144 240h166l-238 -376v-296h-144z" />
    <glyph glyph-name="Z" unicode="Z" horiz-adv-x="660" 
d="M28 0l339 538h-316v134h561l-339 -538h341v-134h-586z" />
    <glyph glyph-name="bracketleft" unicode="[" horiz-adv-x="343" 
d="M83 -158v976h229v-107h-101v-762h101v-107h-229z" />
    <glyph glyph-name="backslash" unicode="\" horiz-adv-x="437" 
d="M275 -129l-246 929h133l246 -929h-133z" />
    <glyph glyph-name="bracketright" unicode="]" horiz-adv-x="343" 
d="M31 -158v107h101v762h-101v107h229v-976h-229z" />
    <glyph glyph-name="asciicircum" unicode="^" 
d="M403 360l-104 215l-105 -215h-109l159 326h109l159 -326h-109z" />
    <glyph glyph-name="underscore" unicode="_" horiz-adv-x="395" 
d="M-6 -194v89h407v-89h-407z" />
    <glyph glyph-name="grave" unicode="`" horiz-adv-x="500" 
d="M183 519l-148 132h146l143 -132h-141z" />
    <glyph glyph-name="a" unicode="a" horiz-adv-x="527" 
d="M329 0v43q-32 -22 -70 -36t-71 -14q-30 0 -58 8.5t-49 26t-34 43t-13 59.5q0 29 16 61.5t61 58.5q35 20 90 32.5t121 16.5q-1 25 -10 39.5t-22.5 22t-30 9.5t-31.5 2q-42 0 -85.5 -16t-77.5 -39l27 117q39 17 84.5 28.5t91.5 11.5q43 0 78 -11t60 -33.5t39 -57.5t14 -83
v-289h-130zM322 216q-25 -2 -43 -4.5t-32 -5.5t-24.5 -7t-19.5 -8q-38 -18 -38 -56q0 -15 13 -31t52 -16q4 0 14 2t23 6.5t27.5 11.5t27.5 17v91z" />
    <glyph glyph-name="b" unicode="b" horiz-adv-x="605" 
d="M71 0v672h141v-250q25 19 59 35.5t73 16.5q43 0 83 -17t70.5 -48t48.5 -75.5t18 -99.5q0 -44 -15 -87.5t-43.5 -77.5t-71 -55t-97.5 -21q-42 0 -75.5 18.5t-56.5 41.5v-53h-134zM212 163q16 -17 39 -32.5t53 -15.5q18 0 37.5 6.5t36 20.5t27.5 37t11 55q0 20 -6 41
t-19 38t-33.5 28t-48.5 11q-49 0 -97 -49v-140z" />
    <glyph glyph-name="c" unicode="c" horiz-adv-x="483" 
d="M441 24q-32 -18 -70.5 -28t-75.5 -10q-59 0 -106 20t-80 54t-50.5 78t-17.5 92t17.5 92t50.5 78t80 54t106 20q37 0 75.5 -10t70.5 -28v-131q-58 44 -129 44q-30 0 -53.5 -9.5t-39.5 -25.5t-24.5 -38t-8.5 -46t8.5 -46t24.5 -38t39.5 -25.5t53.5 -9.5q37 0 67.5 11
t61.5 33v-131z" />
    <glyph glyph-name="d" unicode="d" horiz-adv-x="605" 
d="M400 0v53q-23 -23 -56.5 -41.5t-75.5 -18.5q-55 0 -97.5 21t-71 55t-43.5 77.5t-15 87.5q0 52 18 96t48 76t70 50t84 18q39 0 71.5 -13t60.5 -34v245h141v-672h-134zM393 303q-48 49 -97 49q-28 0 -48.5 -11t-33.5 -28t-19 -38t-6 -41q0 -32 10.5 -55t27 -37t36.5 -20.5
t38 -6.5q30 0 53 15.5t39 32.5v140z" />
    <glyph glyph-name="e" unicode="e" horiz-adv-x="559" 
d="M507 43q-20 -13 -45 -23.5t-53.5 -18t-58.5 -11.5t-60 -4q-58 0 -104 17.5t-78.5 49.5t-49.5 77t-17 100q0 47 17 91t48.5 78t77 54.5t102.5 20.5q39 0 80 -11.5t75 -42t56 -85t22 -139.5h-335q2 -46 35.5 -74.5t95.5 -28.5q23 0 49.5 5t52 14t49 21.5t41.5 27.5v-118z
M377 286q-6 45 -31.5 64t-60.5 19q-42 0 -67 -24t-31 -59h190z" />
    <glyph glyph-name="f" unicode="f" horiz-adv-x="422" 
d="M100 0v350h-75v110h75v58q0 75 47.5 121.5t135.5 46.5q42 0 73 -6.5t55 -15.5v-116q-15 8 -41.5 16.5t-57.5 8.5q-38 0 -54.5 -19.5t-16.5 -48.5v-45h139v-110h-139v-350h-141z" />
    <glyph glyph-name="g" unicode="g" horiz-adv-x="534" 
d="M457 350q7 -16 11.5 -34.5t4.5 -38.5q0 -32 -14.5 -62.5t-41 -54t-64 -37.5t-82.5 -14q-60 0 -109 19q-13 -13 -13 -28q0 -11 12 -19t38 -15t68 -14.5t102 -17.5q24 -4 49.5 -12t47.5 -23t36 -37.5t14 -56.5q0 -40 -21.5 -69.5t-56.5 -49.5t-80 -30t-93 -10
q-73 0 -122.5 14t-80 35t-43.5 46t-13 48q0 22 7.5 40t19 31.5t26 22.5t28.5 15q-27 17 -34.5 34.5t-7.5 37.5q0 23 14.5 44t48.5 42q-30 20 -48 52.5t-18 78.5q0 29 12.5 62t38.5 60.5t66.5 46t96.5 18.5q25 0 48 -3t44 -11h165v-110h-56zM260 211q29 0 52 20.5t23 59.5
q0 33 -21.5 57t-57.5 24q-35 0 -56.5 -24t-21.5 -59t24 -56.5t58 -21.5zM164 -43q-19 -13 -30 -27t-11 -31q0 -9 6 -19.5t22 -19t44 -14t73 -5.5q72 0 99.5 14.5t27.5 31.5q0 15 -15 22t-44.5 12.5t-72.5 13t-99 22.5z" />
    <glyph glyph-name="h" unicode="h" horiz-adv-x="602" 
d="M395 0v244q0 30 -7.5 50.5t-19.5 33.5t-28 19t-34 6q-29 0 -50 -9.5t-44 -28.5v-315h-141v672h141v-250q26 20 59 36t81 16q31 0 63.5 -10.5t59.5 -34.5t44 -64t17 -99v-266h-141z" />
    <glyph glyph-name="i" unicode="i" horiz-adv-x="280" 
d="M143 502l-92 92l92 92l92 -92zM72 0v460h141v-460h-141z" />
    <glyph glyph-name="j" unicode="j" horiz-adv-x="277" 
d="M134 502l-91 92l91 92l92 -92zM-41 -110q8 -3 25 -6t25 -3q19 0 30.5 6t16.5 17t6.5 25.5t1.5 32.5v498h141v-505q0 -37 -7.5 -70.5t-26 -58.5t-49.5 -39.5t-77 -14.5q-9 0 -22 1t-25.5 2.5t-23.5 2.5t-15 2v110z" />
    <glyph glyph-name="k" unicode="k" horiz-adv-x="574" 
d="M380 0l-168 206v-206h-141v672h141v-369l144 157h179l-201 -209l232 -251h-186z" />
    <glyph glyph-name="l" unicode="l" horiz-adv-x="358" 
d="M331 15q-30 -14 -53.5 -19.5t-52.5 -5.5q-40 0 -70 13t-49.5 35.5t-29.5 52.5t-10 65v516h141v-501q0 -12 2.5 -23t9 -19.5t18.5 -13.5t31 -5q15 0 30.5 4.5t32.5 15.5v-115z" />
    <glyph glyph-name="m" unicode="m" horiz-adv-x="926" 
d="M719 0v244q0 30 -7.5 50.5t-19.5 33.5t-28 19t-34 6q-44 0 -98 -37q2 -11 3 -23.5t1 -26.5v-266h-141v244q0 30 -7.5 50.5t-19.5 33.5t-28 19t-34 6q-29 0 -50 -9.5t-44 -28.5v-315h-141v460h134v-44q26 23 61 40.5t86 17.5q38 0 77 -15t67 -53q30 25 77.5 46.5
t102.5 21.5q31 0 63.5 -10.5t59.5 -34.5t44 -64t17 -99v-266h-141z" />
    <glyph glyph-name="n" unicode="n" horiz-adv-x="602" 
d="M395 0v244q0 30 -7.5 50.5t-19.5 33.5t-28 19t-34 6q-29 0 -50 -9.5t-44 -28.5v-315h-141v460h134v-44q26 23 61 40.5t86 17.5q31 0 63.5 -10.5t59.5 -34.5t44 -64t17 -99v-266h-141z" />
    <glyph glyph-name="o" unicode="o" horiz-adv-x="590" 
d="M549 230q0 -47 -18 -91t-51 -78t-80 -54.5t-105 -20.5t-105 20.5t-80 54.5t-51 78t-18 91t18 91t51 78t80 54.5t105 20.5t105 -20.5t80 -54.5t51 -78t18 -91zM295 113q52 0 80.5 34.5t28.5 82.5t-28.5 82.5t-80.5 34.5t-80.5 -34.5t-28.5 -82.5t28.5 -82.5t80.5 -34.5z
" />
    <glyph glyph-name="p" unicode="p" horiz-adv-x="605" 
d="M71 -212v672h134v-46q23 23 56.5 41.5t75.5 18.5q55 0 97.5 -21t71 -55.5t43.5 -78t15 -87.5q0 -55 -18 -100.5t-48.5 -77.5t-70.5 -50t-83 -18q-39 0 -73 16.5t-59 35.5v-250h-141zM212 157q48 -49 97 -49q28 0 48.5 12t33.5 30t19 40t6 42q0 32 -11 55t-27.5 37.5
t-36 21t-37.5 6.5q-30 0 -53 -15.5t-39 -32.5v-147z" />
    <glyph glyph-name="q" unicode="q" horiz-adv-x="605" 
d="M393 -212v250q-25 -19 -59 -35.5t-73 -16.5q-43 0 -83 18t-70.5 50t-48.5 77.5t-18 100.5q0 44 15 87.5t43.5 78t71 55.5t97.5 21q42 0 75.5 -18.5t56.5 -41.5v46h134v-672h-141zM393 304q-16 17 -39 32.5t-53 15.5q-18 0 -38 -6.5t-36.5 -21t-27 -37.5t-10.5 -55
q0 -20 6 -42t19 -40t33.5 -30t48.5 -12q49 0 97 49v147z" />
    <glyph glyph-name="r" unicode="r" horiz-adv-x="407" 
d="M71 0v460h134v-45q21 20 50 36.5t68 16.5q22 0 37.5 -4.5t30.5 -13.5v-121q-18 10 -38 17t-46 7t-50.5 -10t-44.5 -27v-316h-141z" />
    <glyph glyph-name="s" unicode="s" horiz-adv-x="485" 
d="M48 149q36 -20 86.5 -38.5t100.5 -18.5q32 0 49 9t17 24q0 11 -8.5 17.5t-35.5 14.5q-45 14 -75 24.5t-50 20t-32.5 18t-23.5 19.5q-16 15 -26 37t-10 49q0 34 14.5 61.5t40 47t60.5 30t77 10.5q57 0 97.5 -9.5t73.5 -22.5v-118q-19 10 -41 18.5t-43.5 14.5t-41 9.5
t-34.5 3.5q-34 0 -47 -9.5t-13 -22.5q0 -12 12.5 -20.5t57.5 -23.5q43 -15 69.5 -24.5t42 -16.5t24 -12.5t16.5 -11.5q20 -16 29 -40.5t9 -52.5q0 -20 -9.5 -46t-33.5 -49t-64 -39t-100 -16q-27 0 -56 4t-55 10t-46.5 12t-30.5 11v126z" />
    <glyph glyph-name="t" unicode="t" horiz-adv-x="440" 
d="M415 16q-26 -12 -56.5 -18.5t-69.5 -6.5q-36 0 -68.5 10t-58 30t-40.5 50.5t-15 71.5v197h-82v110h82v123h141v-123h150v-110h-150v-170q0 -45 21 -60.5t56 -15.5q30 0 53.5 10.5t36.5 20.5v-119z" />
    <glyph glyph-name="u" unicode="u" horiz-adv-x="602" 
d="M397 0v44q-26 -23 -61 -40.5t-86 -17.5q-31 0 -63.5 10.5t-59.5 34.5t-44 64t-17 99v266h141v-244q0 -30 7.5 -50.5t19.5 -33.5t28 -19t34 -6q29 0 50 9.5t44 28.5v315h141v-460h-134z" />
    <glyph glyph-name="v" unicode="v" horiz-adv-x="546" 
d="M218 0l-210 460h159l106 -278l109 278h156l-210 -460h-110z" />
    <glyph glyph-name="w" unicode="w" horiz-adv-x="784" 
d="M477 0l-85 261l-85 -261h-113l-184 460h156l83 -263l83 263h120l83 -263l83 263h156l-184 -460h-113z" />
    <glyph glyph-name="x" unicode="x" horiz-adv-x="553" 
d="M365 0l-88 145l-89 -145h-172l176 245l-162 215h170l76 -118l77 118h170l-162 -215l176 -245h-172z" />
    <glyph glyph-name="y" unicode="y" horiz-adv-x="577" 
d="M17 -114q11 -3 27.5 -5.5t29.5 -2.5q31 0 48 13.5t28 33.5l67 128l-201 407h161l111 -261l118 261h159l-281 -560q-38 -75 -81 -105.5t-103 -30.5q-12 0 -25 1t-24.5 2.5t-20.5 3.5t-13 3v112z" />
    <glyph glyph-name="z" unicode="z" horiz-adv-x="511" 
d="M32 0l218 350h-189v110h406l-212 -350h218v-110h-441z" />
    <glyph glyph-name="braceleft" unicode="{" horiz-adv-x="385" 
d="M276 -158q-50 0 -81 12t-47.5 32.5t-22 48.5t-5.5 61v175q0 42 -21.5 68.5t-70.5 39.5v102q49 13 70.5 39.5t21.5 68.5v175q0 33 5.5 61t22 48.5t47.5 32.5t81 12h68v-107h-23q-25 0 -39.5 -6.5t-22.5 -18.5t-10.5 -29.5t-2.5 -39.5v-148q0 -37 -8 -60.5t-21 -38.5
t-29 -24t-32 -16q16 -7 32 -16t29 -24t21 -38.5t8 -60.5v-148q0 -23 2.5 -40.5t10.5 -29.5t22.5 -18t39.5 -6h23v-107h-68z" />
    <glyph glyph-name="bar" unicode="|" horiz-adv-x="275" 
d="M83 -250v1000h109v-1000h-109z" />
    <glyph glyph-name="braceright" unicode="}" horiz-adv-x="385" 
d="M41 -158v107h23q25 0 39.5 6t22.5 18t10.5 29.5t2.5 40.5v148q0 37 8 60.5t21 38.5t29 24t32 16q-16 7 -32 16t-29 24t-21 38.5t-8 60.5v148q0 22 -2.5 39.5t-10.5 29.5t-22.5 18.5t-39.5 6.5h-23v107h68q50 0 81 -12t47.5 -32.5t22 -48.5t5.5 -61v-175q0 -42 21.5 -68.5
t70.5 -39.5v-102q-49 -13 -70.5 -39.5t-21.5 -68.5v-175q0 -33 -5.5 -61t-22 -48.5t-47.5 -32.5t-81 -12h-68z" />
    <glyph glyph-name="asciitilde" unicode="~" 
d="M549 296q-32 -22 -67.5 -38.5t-74.5 -16.5q-30 0 -56 10t-51 22.5t-49.5 22.5t-51.5 10q-21 0 -42 -6.5t-40.5 -17.5t-36.5 -24.5t-32 -28.5v143q34 23 74 39.5t82 16.5q30 0 58 -10t53.5 -22.5t49.5 -22.5t47 -10q20 0 39 7t36.5 18t33 24.5t28.5 26.5v-143z" />
    <glyph glyph-name="Adieresis" unicode="&#xc4;" horiz-adv-x="681" 
d="M515 0l-49 138h-251l-49 -138h-153l261 672h133l261 -672h-153zM341 487l-81 -225h161zM378 732v130h130v-130h-130zM182 732v130h130v-130h-130z" />
    <glyph glyph-name="Aring" unicode="&#xc5;" horiz-adv-x="681" 
d="M515 0l-49 138h-251l-49 -138h-153l261 672h133l261 -672h-153zM341 487l-81 -225h161zM443 834q0 -21 -8 -40t-22 -33t-33 -22t-40 -8t-40 8t-33 22t-22 33t-8 40t8 40t22 33t33 22t40 8t40 -8t33 -22t22 -33t8 -40zM385 834q0 19 -13 32t-32 13t-32 -13t-13 -32t13 -32
t32 -13t32 13t13 32z" />
    <glyph glyph-name="Ccedilla" unicode="&#xc7;" horiz-adv-x="683" 
d="M287 -176q9 -5 24 -10t30 -5q21 0 34.5 13t13.5 33q0 17 -13.5 31t-37.5 14h-7t-7 -1l18 94q-62 12 -115.5 44t-93 77.5t-62 102.5t-22.5 119q0 75 29 139t79 111t116.5 73.5t140.5 26.5q28 0 58.5 -4t59.5 -11t56 -16.5t49 -20.5v-158q-55 36 -109 55.5t-105 19.5
t-92 -18.5t-69.5 -48.5t-44 -69t-15.5 -79q0 -49 18.5 -88.5t49 -67.5t70.5 -43.5t84 -15.5q58 0 111.5 23.5t100.5 65.5v-161q-46 -28 -104 -44.5t-109 -18.5l-11 -50q32 -4 50.5 -29t18.5 -58q0 -48 -34 -79.5t-91 -31.5q-14 0 -35.5 3t-33.5 6v77z" />
    <glyph glyph-name="Eacute" unicode="&#xc9;" horiz-adv-x="577" 
d="M74 0v672h452v-134h-308v-126h219v-134h-219v-144h308v-134h-452zM334 731h-141l143 132h146z" />
    <glyph glyph-name="Ntilde" unicode="&#xd1;" horiz-adv-x="769" 
d="M560 0l-342 438v-438h-144v672h144l333 -426v426h144v-672h-135zM569 868q-5 -63 -28 -98.5t-79 -35.5q-19 0 -38 5.5t-37 12.5t-35 12.5t-33 5.5q-25 0 -27 -43h-85q2 28 7.5 53t16 43.5t26.5 29.5t40 11q25 0 48.5 -6t44 -13.5t37.5 -13.5t29 -6q11 0 19 10.5t9 32.5
h85z" />
    <glyph glyph-name="Odieresis" unicode="&#xd6;" horiz-adv-x="824" 
d="M775 336q0 -65 -26.5 -127.5t-74.5 -112t-114.5 -80t-147.5 -30.5t-147.5 30.5t-114.5 80t-74.5 112t-26.5 127.5t26.5 127.5t74.5 112t114.5 80t147.5 30.5t147.5 -30.5t114.5 -80t74.5 -112t26.5 -127.5zM412 121q45 0 83.5 16.5t66.5 45.5t44 68t16 85t-16 85t-44 68
t-66.5 45.5t-83.5 16.5t-83.5 -16.5t-66.5 -45.5t-44 -68t-16 -85t16 -85t44 -68t66.5 -45.5t83.5 -16.5zM449 732v130h130v-130h-130zM253 732v130h130v-130h-130z" />
    <glyph glyph-name="Udieresis" unicode="&#xdc;" horiz-adv-x="770" 
d="M557 672h144v-369q0 -68 -23 -126t-64.5 -100t-100 -65.5t-128.5 -23.5q-71 0 -129 23.5t-99.5 65.5t-64.5 100t-23 126v369h144v-373q0 -46 13.5 -79.5t37 -55.5t54.5 -32.5t67 -10.5t67 10.5t54.5 32.5t37 55.5t13.5 79.5v373zM422 732v130h130v-130h-130zM226 732v130
h130v-130h-130z" />
    <glyph glyph-name="aacute" unicode="&#xe1;" horiz-adv-x="527" 
d="M329 0v43q-32 -22 -70 -36t-71 -14q-30 0 -58 8.5t-49 26t-34 43t-13 59.5q0 29 16 61.5t61 58.5q35 20 90 32.5t121 16.5q-1 25 -10 39.5t-22.5 22t-30 9.5t-31.5 2q-42 0 -85.5 -16t-77.5 -39l27 117q39 17 84.5 28.5t91.5 11.5q43 0 78 -11t60 -33.5t39 -57.5t14 -83
v-289h-130zM322 216q-25 -2 -43 -4.5t-32 -5.5t-24.5 -7t-19.5 -8q-38 -18 -38 -56q0 -15 13 -31t52 -16q4 0 14 2t23 6.5t27.5 11.5t27.5 17v91zM305 519h-141l143 132h146z" />
    <glyph glyph-name="agrave" unicode="&#xe0;" horiz-adv-x="527" 
d="M329 0v43q-32 -22 -70 -36t-71 -14q-30 0 -58 8.5t-49 26t-34 43t-13 59.5q0 29 16 61.5t61 58.5q35 20 90 32.5t121 16.5q-1 25 -10 39.5t-22.5 22t-30 9.5t-31.5 2q-42 0 -85.5 -16t-77.5 -39l27 117q39 17 84.5 28.5t91.5 11.5q43 0 78 -11t60 -33.5t39 -57.5t14 -83
v-289h-130zM322 216q-25 -2 -43 -4.5t-32 -5.5t-24.5 -7t-19.5 -8q-38 -18 -38 -56q0 -15 13 -31t52 -16q4 0 14 2t23 6.5t27.5 11.5t27.5 17v91zM227 519l-148 132h146l143 -132h-141z" />
    <glyph glyph-name="acircumflex" unicode="&#xe2;" horiz-adv-x="527" 
d="M329 0v43q-32 -22 -70 -36t-71 -14q-30 0 -58 8.5t-49 26t-34 43t-13 59.5q0 29 16 61.5t61 58.5q35 20 90 32.5t121 16.5q-1 25 -10 39.5t-22.5 22t-30 9.5t-31.5 2q-42 0 -85.5 -16t-77.5 -39l27 117q39 17 84.5 28.5t91.5 11.5q43 0 78 -11t60 -33.5t39 -57.5t14 -83
v-289h-130zM322 216q-25 -2 -43 -4.5t-32 -5.5t-24.5 -7t-19.5 -8q-38 -18 -38 -56q0 -15 13 -31t52 -16q4 0 14 2t23 6.5t27.5 11.5t27.5 17v91zM338 519l-71 84l-71 -84h-126l118 132h158l118 -132h-126z" />
    <glyph glyph-name="adieresis" unicode="&#xe4;" horiz-adv-x="527" 
d="M329 0v43q-32 -22 -70 -36t-71 -14q-30 0 -58 8.5t-49 26t-34 43t-13 59.5q0 29 16 61.5t61 58.5q35 20 90 32.5t121 16.5q-1 25 -10 39.5t-22.5 22t-30 9.5t-31.5 2q-42 0 -85.5 -16t-77.5 -39l27 117q39 17 84.5 28.5t91.5 11.5q43 0 78 -11t60 -33.5t39 -57.5t14 -83
v-289h-130zM322 216q-25 -2 -43 -4.5t-32 -5.5t-24.5 -7t-19.5 -8q-38 -18 -38 -56q0 -15 13 -31t52 -16q4 0 14 2t23 6.5t27.5 11.5t27.5 17v91zM301 520v130h130v-130h-130zM105 520v130h130v-130h-130z" />
    <glyph glyph-name="atilde" unicode="&#xe3;" horiz-adv-x="527" 
d="M329 0v43q-32 -22 -70 -36t-71 -14q-30 0 -58 8.5t-49 26t-34 43t-13 59.5q0 29 16 61.5t61 58.5q35 20 90 32.5t121 16.5q-1 25 -10 39.5t-22.5 22t-30 9.5t-31.5 2q-42 0 -85.5 -16t-77.5 -39l27 117q39 17 84.5 28.5t91.5 11.5q43 0 78 -11t60 -33.5t39 -57.5t14 -83
v-289h-130zM322 216q-25 -2 -43 -4.5t-32 -5.5t-24.5 -7t-19.5 -8q-38 -18 -38 -56q0 -15 13 -31t52 -16q4 0 14 2t23 6.5t27.5 11.5t27.5 17v91zM448 656q-5 -63 -28 -98.5t-79 -35.5q-19 0 -38 5.5t-37 12.5t-35 12.5t-33 5.5q-25 0 -27 -43h-85q2 28 7.5 53t16 43.5
t26.5 29.5t40 11q25 0 48.5 -6t44 -13.5t37.5 -13.5t29 -6q11 0 19 10.5t9 32.5h85z" />
    <glyph glyph-name="aring" unicode="&#xe5;" horiz-adv-x="527" 
d="M329 0v43q-32 -22 -70 -36t-71 -14q-30 0 -58 8.5t-49 26t-34 43t-13 59.5q0 29 16 61.5t61 58.5q35 20 90 32.5t121 16.5q-1 25 -10 39.5t-22.5 22t-30 9.5t-31.5 2q-42 0 -85.5 -16t-77.5 -39l27 117q39 17 84.5 28.5t91.5 11.5q43 0 78 -11t60 -33.5t39 -57.5t14 -83
v-289h-130zM322 216q-25 -2 -43 -4.5t-32 -5.5t-24.5 -7t-19.5 -8q-38 -18 -38 -56q0 -15 13 -31t52 -16q4 0 14 2t23 6.5t27.5 11.5t27.5 17v91zM365 622q0 -21 -8 -40t-22 -33t-33 -22t-40 -8t-40 8t-33 22t-22 33t-8 40t8 40t22 33t33 22t40 8t40 -8t33 -22t22 -33t8 -40
zM307 622q0 19 -13 32t-32 13t-32 -13t-13 -32t13 -32t32 -13t32 13t13 32z" />
    <glyph glyph-name="ccedilla" unicode="&#xe7;" horiz-adv-x="483" 
d="M216 -141q8 -4 16.5 -6.5t19.5 -2.5q19 0 29.5 11t10.5 30q0 16 -12 28t-34 12h-8l11 58q-49 7 -87.5 29.5t-65.5 55t-41 73t-14 83.5q0 48 17.5 92t50.5 78t80 54t106 20q37 0 75.5 -10t70.5 -28v-131q-58 44 -129 44q-30 0 -53.5 -9.5t-39.5 -25.5t-24.5 -38t-8.5 -46
t8.5 -46t24.5 -38t39.5 -25.5t53.5 -9.5q37 0 67.5 11t61.5 33v-131q-27 -15 -59.5 -25t-64.5 -12l-4 -23q29 -3 46 -26t17 -53q0 -41 -30.5 -69.5t-81.5 -28.5q-13 0 -25.5 1t-22.5 3v68z" />
    <glyph glyph-name="eacute" unicode="&#xe9;" horiz-adv-x="559" 
d="M507 43q-20 -13 -45 -23.5t-53.5 -18t-58.5 -11.5t-60 -4q-58 0 -104 17.5t-78.5 49.5t-49.5 77t-17 100q0 47 17 91t48.5 78t77 54.5t102.5 20.5q39 0 80 -11.5t75 -42t56 -85t22 -139.5h-335q2 -46 35.5 -74.5t95.5 -28.5q23 0 49.5 5t52 14t49 21.5t41.5 27.5v-118z
M377 286q-6 45 -31.5 64t-60.5 19q-42 0 -67 -24t-31 -59h190zM318 519h-141l143 132h146z" />
    <glyph glyph-name="egrave" unicode="&#xe8;" horiz-adv-x="559" 
d="M507 43q-20 -13 -45 -23.5t-53.5 -18t-58.5 -11.5t-60 -4q-58 0 -104 17.5t-78.5 49.5t-49.5 77t-17 100q0 47 17 91t48.5 78t77 54.5t102.5 20.5q39 0 80 -11.5t75 -42t56 -85t22 -139.5h-335q2 -46 35.5 -74.5t95.5 -28.5q23 0 49.5 5t52 14t49 21.5t41.5 27.5v-118z
M377 286q-6 45 -31.5 64t-60.5 19q-42 0 -67 -24t-31 -59h190zM240 519l-148 132h146l143 -132h-141z" />
    <glyph glyph-name="ecircumflex" unicode="&#xea;" horiz-adv-x="559" 
d="M507 43q-20 -13 -45 -23.5t-53.5 -18t-58.5 -11.5t-60 -4q-58 0 -104 17.5t-78.5 49.5t-49.5 77t-17 100q0 47 17 91t48.5 78t77 54.5t102.5 20.5q39 0 80 -11.5t75 -42t56 -85t22 -139.5h-335q2 -46 35.5 -74.5t95.5 -28.5q23 0 49.5 5t52 14t49 21.5t41.5 27.5v-118z
M377 286q-6 45 -31.5 64t-60.5 19q-42 0 -67 -24t-31 -59h190zM351 519l-71 84l-71 -84h-126l118 132h158l118 -132h-126z" />
    <glyph glyph-name="edieresis" unicode="&#xeb;" horiz-adv-x="559" 
d="M507 43q-20 -13 -45 -23.5t-53.5 -18t-58.5 -11.5t-60 -4q-58 0 -104 17.5t-78.5 49.5t-49.5 77t-17 100q0 47 17 91t48.5 78t77 54.5t102.5 20.5q39 0 80 -11.5t75 -42t56 -85t22 -139.5h-335q2 -46 35.5 -74.5t95.5 -28.5q23 0 49.5 5t52 14t49 21.5t41.5 27.5v-118z
M377 286q-6 45 -31.5 64t-60.5 19q-42 0 -67 -24t-31 -59h190zM314 520v130h130v-130h-130zM118 520v130h130v-130h-130z" />
    <glyph glyph-name="iacute" unicode="&#xed;" horiz-adv-x="280" 
d="M72 0v460h141v-460h-141zM211 519h-141l143 132h146z" />
    <glyph glyph-name="igrave" unicode="&#xec;" horiz-adv-x="280" 
d="M72 0v460h141v-460h-141zM74 519l-148 132h146l143 -132h-141z" />
    <glyph glyph-name="icircumflex" unicode="&#xee;" horiz-adv-x="280" 
d="M72 0v460h141v-460h-141zM215 519l-71 84l-71 -84h-126l118 132h158l118 -132h-126z" />
    <glyph glyph-name="idieresis" unicode="&#xef;" horiz-adv-x="280" 
d="M72 0v460h141v-460h-141zM178 520v130h130v-130h-130zM-18 520v130h130v-130h-130z" />
    <glyph glyph-name="ntilde" unicode="&#xf1;" horiz-adv-x="602" 
d="M395 0v244q0 30 -7.5 50.5t-19.5 33.5t-28 19t-34 6q-29 0 -50 -9.5t-44 -28.5v-315h-141v460h134v-44q26 23 61 40.5t86 17.5q31 0 63.5 -10.5t59.5 -34.5t44 -64t17 -99v-266h-141zM485 656q-5 -63 -28 -98.5t-79 -35.5q-19 0 -38 5.5t-37 12.5t-35 12.5t-33 5.5
q-25 0 -27 -43h-85q2 28 7.5 53t16 43.5t26.5 29.5t40 11q25 0 48.5 -6t44 -13.5t37.5 -13.5t29 -6q11 0 19 10.5t9 32.5h85z" />
    <glyph glyph-name="oacute" unicode="&#xf3;" horiz-adv-x="590" 
d="M549 230q0 -47 -18 -91t-51 -78t-80 -54.5t-105 -20.5t-105 20.5t-80 54.5t-51 78t-18 91t18 91t51 78t80 54.5t105 20.5t105 -20.5t80 -54.5t51 -78t18 -91zM295 113q52 0 80.5 34.5t28.5 82.5t-28.5 82.5t-80.5 34.5t-80.5 -34.5t-28.5 -82.5t28.5 -82.5t80.5 -34.5z
M335 519h-141l143 132h146z" />
    <glyph glyph-name="ograve" unicode="&#xf2;" horiz-adv-x="590" 
d="M549 230q0 -47 -18 -91t-51 -78t-80 -54.5t-105 -20.5t-105 20.5t-80 54.5t-51 78t-18 91t18 91t51 78t80 54.5t105 20.5t105 -20.5t80 -54.5t51 -78t18 -91zM295 113q52 0 80.5 34.5t28.5 82.5t-28.5 82.5t-80.5 34.5t-80.5 -34.5t-28.5 -82.5t28.5 -82.5t80.5 -34.5z
M258 519l-148 132h146l143 -132h-141z" />
    <glyph glyph-name="ocircumflex" unicode="&#xf4;" horiz-adv-x="590" 
d="M549 230q0 -47 -18 -91t-51 -78t-80 -54.5t-105 -20.5t-105 20.5t-80 54.5t-51 78t-18 91t18 91t51 78t80 54.5t105 20.5t105 -20.5t80 -54.5t51 -78t18 -91zM295 113q52 0 80.5 34.5t28.5 82.5t-28.5 82.5t-80.5 34.5t-80.5 -34.5t-28.5 -82.5t28.5 -82.5t80.5 -34.5z
M369 519l-71 84l-71 -84h-126l118 132h158l118 -132h-126z" />
    <glyph glyph-name="odieresis" unicode="&#xf6;" horiz-adv-x="590" 
d="M549 230q0 -47 -18 -91t-51 -78t-80 -54.5t-105 -20.5t-105 20.5t-80 54.5t-51 78t-18 91t18 91t51 78t80 54.5t105 20.5t105 -20.5t80 -54.5t51 -78t18 -91zM295 113q52 0 80.5 34.5t28.5 82.5t-28.5 82.5t-80.5 34.5t-80.5 -34.5t-28.5 -82.5t28.5 -82.5t80.5 -34.5z
M332 520v130h130v-130h-130zM136 520v130h130v-130h-130z" />
    <glyph glyph-name="otilde" unicode="&#xf5;" horiz-adv-x="590" 
d="M549 230q0 -47 -18 -91t-51 -78t-80 -54.5t-105 -20.5t-105 20.5t-80 54.5t-51 78t-18 91t18 91t51 78t80 54.5t105 20.5t105 -20.5t80 -54.5t51 -78t18 -91zM295 113q52 0 80.5 34.5t28.5 82.5t-28.5 82.5t-80.5 34.5t-80.5 -34.5t-28.5 -82.5t28.5 -82.5t80.5 -34.5z
M479 656q-5 -63 -28 -98.5t-79 -35.5q-19 0 -38 5.5t-37 12.5t-35 12.5t-33 5.5q-25 0 -27 -43h-85q2 28 7.5 53t16 43.5t26.5 29.5t40 11q25 0 48.5 -6t44 -13.5t37.5 -13.5t29 -6q11 0 19 10.5t9 32.5h85z" />
    <glyph glyph-name="uacute" unicode="&#xfa;" horiz-adv-x="602" 
d="M397 0v44q-26 -23 -61 -40.5t-86 -17.5q-31 0 -63.5 10.5t-59.5 34.5t-44 64t-17 99v266h141v-244q0 -30 7.5 -50.5t19.5 -33.5t28 -19t34 -6q29 0 50 9.5t44 28.5v315h141v-460h-134zM341 519h-141l143 132h146z" />
    <glyph glyph-name="ugrave" unicode="&#xf9;" horiz-adv-x="602" 
d="M397 0v44q-26 -23 -61 -40.5t-86 -17.5q-31 0 -63.5 10.5t-59.5 34.5t-44 64t-17 99v266h141v-244q0 -30 7.5 -50.5t19.5 -33.5t28 -19t34 -6q29 0 50 9.5t44 28.5v315h141v-460h-134zM264 519l-148 132h146l143 -132h-141z" />
    <glyph glyph-name="ucircumflex" unicode="&#xfb;" horiz-adv-x="602" 
d="M397 0v44q-26 -23 -61 -40.5t-86 -17.5q-31 0 -63.5 10.5t-59.5 34.5t-44 64t-17 99v266h141v-244q0 -30 7.5 -50.5t19.5 -33.5t28 -19t34 -6q29 0 50 9.5t44 28.5v315h141v-460h-134zM375 519l-71 84l-71 -84h-126l118 132h158l118 -132h-126z" />
    <glyph glyph-name="udieresis" unicode="&#xfc;" horiz-adv-x="602" 
d="M397 0v44q-26 -23 -61 -40.5t-86 -17.5q-31 0 -63.5 10.5t-59.5 34.5t-44 64t-17 99v266h141v-244q0 -30 7.5 -50.5t19.5 -33.5t28 -19t34 -6q29 0 50 9.5t44 28.5v315h141v-460h-134zM338 520v130h130v-130h-130zM142 520v130h130v-130h-130z" />
    <glyph glyph-name="dagger" unicode="&#x2020;" horiz-adv-x="505" 
d="M184 -149v505h-135v104h135v212h137v-212h135v-104h-135v-505h-137z" />
    <glyph glyph-name="degree" unicode="&#xb0;" horiz-adv-x="348" 
d="M314 566q0 -29 -11 -54.5t-30 -44.5t-44.5 -30t-54.5 -11t-54.5 11t-44.5 30t-30 44.5t-11 54.5t11 54.5t30 44.5t44.5 30t54.5 11t54.5 -11t44.5 -30t30 -44.5t11 -54.5zM232 566q0 25 -16.5 41.5t-41.5 16.5t-41.5 -16.5t-16.5 -41.5t16.5 -41.5t41.5 -16.5t41.5 16.5
t16.5 41.5z" />
    <glyph glyph-name="cent" unicode="&#xa2;" 
d="M322 -95v83q-51 6 -92 28t-69 55t-43 74t-15 85t15 85t43 74t69 55t92 28v79h75v-80q28 -4 55.5 -13t50.5 -22v-131q-49 37 -106 43v-236q29 3 54.5 14t51.5 29v-131q-23 -13 -50.5 -22t-55.5 -13v-84h-75zM322 340q-36 -14 -55 -43.5t-19 -66.5t19 -66.5t55 -43.5v220z
" />
    <glyph glyph-name="sterling" unicode="&#xa3;" 
d="M59 0q45 47 64.5 111.5t26.5 142.5h-90l51 129h55q2 22 3.5 41.5t3 38t4.5 37.5t8 41q8 35 25 62t40 45.5t50 28t56 9.5q51 0 88 -18t71 -46l-75 -128q-21 33 -40.5 44t-32.5 11q-23 0 -35 -15t-16 -41q-3 -17 -4.5 -29t-2.5 -24t-2 -25t-2 -32h153l-51 -129h-117
q-3 -32 -10 -63.5t-18 -61.5h297l-57 -129h-443z" />
    <glyph glyph-name="section" unicode="&#xa7;" horiz-adv-x="575" 
d="M141 -39q26 -40 64 -63.5t79 -23.5q23 0 39 5.5t26.5 14t15.5 17.5t5 17q0 21 -24 38.5t-60.5 34.5t-78.5 37t-78.5 45t-60.5 58.5t-24 78.5q0 30 9.5 53.5t26 41.5t39 31t47.5 22q-37 26 -61.5 61t-24.5 85q0 28 12 58.5t38 55.5t67.5 41.5t100.5 16.5q29 0 59.5 -6.5
t59 -19.5t52.5 -32.5t41 -46.5l-103 -75q-19 29 -47.5 45t-60.5 16q-23 0 -37.5 -5.5t-23 -13.5t-12 -17.5t-3.5 -16.5q0 -21 23 -38t57 -34t74 -36.5t74 -44.5t57 -58t23 -78q0 -57 -32 -93t-82 -53q41 -27 68.5 -63.5t27.5 -87.5q0 -28 -14.5 -58.5t-43.5 -55.5
t-72.5 -41.5t-102.5 -16.5q-29 0 -63.5 9t-67.5 25t-61 38t-44 49zM282 302q-48 -7 -72.5 -26t-24.5 -42q0 -26 31 -46t75 -41q47 6 73 22t26 38q0 15 -8.5 27.5t-23.5 24t-34.5 22t-41.5 21.5z" />
    <glyph glyph-name="bullet" unicode="&#x2022;" horiz-adv-x="500" 
d="M390 302q0 -29 -11 -54.5t-30 -44.5t-44.5 -30t-54.5 -11t-54.5 11t-44.5 30t-30 44.5t-11 54.5t11 54.5t30 44.5t44.5 30t54.5 11t54.5 -11t44.5 -30t30 -44.5t11 -54.5z" />
    <glyph glyph-name="paragraph" unicode="&#xb6;" horiz-adv-x="643" 
d="M477 -150v722h-82v-722h-102v364q-47 0 -83 5t-63 24q-45 32 -70.5 75.5t-25.5 117.5t30.5 122.5t75.5 80.5q27 19 67.5 26t87.5 7h267v-822h-102z" />
    <glyph glyph-name="germandbls" unicode="&#xdf;" horiz-adv-x="605" 
d="M258 121q9 -5 21.5 -9t33.5 -4q24 0 41.5 9t29 24t17 33.5t5.5 38.5q0 24 -8.5 45t-24 37t-37 25t-47.5 9h-28v105q6 -1 14 -1.5t13 -0.5q29 0 53 15t24 47q0 28 -20 47t-51 19q-11 0 -26 -3.5t-29 -16.5t-24 -40t-10 -73v-427h-141v429q0 74 21.5 123.5t55.5 79t76 42
t83 12.5q45 0 83.5 -12.5t67 -35t45 -53.5t16.5 -67q0 -45 -22 -77t-70 -55q25 -5 48.5 -20t42 -38.5t29.5 -54t11 -66.5q0 -50 -16 -90.5t-44.5 -69.5t-66.5 -45t-81 -16q-13 0 -26.5 1.5t-25.5 4t-20.5 4.5t-12.5 4v121z" />
    <glyph glyph-name="registered" unicode="&#xae;" horiz-adv-x="397" 
d="M355 544q0 -32 -12.5 -60t-34 -49t-50 -33t-60.5 -12t-60.5 12t-49.5 33t-33.5 49t-12.5 60t12.5 60t33.5 49t49.5 33t60.5 12t60.5 -12t50 -33t34 -49t12.5 -60zM308 544q0 22 -9 42t-24 34t-35 22.5t-42 8.5t-42 -8.5t-35 -22.5t-23.5 -34t-8.5 -42q0 -23 8.5 -42.5
t23.5 -33.5t35 -22.5t42 -8.5t42 8.5t35 22.5t24 33.5t9 42.5zM226 471l-37 60h-5v-60h-37v150h48q20 0 38 -10.5t18 -33.5q0 -27 -24 -40l42 -66h-43zM199 565q15 0 15 12q0 7 -6.5 8t-11.5 1h-12v-21h15z" />
    <glyph glyph-name="copyright" unicode="&#xa9;" horiz-adv-x="726" 
d="M691 305q0 -67 -26 -126t-70.5 -103t-104 -69.5t-127.5 -25.5t-127.5 25.5t-104 69.5t-70.5 103t-26 126t26 126t70.5 103t104 69.5t127.5 25.5t127.5 -25.5t104 -69.5t70.5 -103t26 -126zM613 305q0 51 -19.5 96t-53.5 78.5t-79.5 53t-97.5 19.5t-98 -19.5t-80 -53
t-53.5 -78.5t-19.5 -96t19.5 -96t53.5 -78.5t80 -53t98 -19.5t97.5 19.5t79.5 53t53.5 78.5t19.5 96zM505 154q-26 -18 -59.5 -32t-81.5 -14t-83.5 17.5t-59 46t-35.5 63.5t-12 71q0 40 14 76t39.5 63t61.5 43t80 16q35 0 66.5 -9.5t69.5 -29.5v-87q-27 16 -47 25.5
t-35.5 15t-28.5 7t-25 1.5q-30 0 -51.5 -12t-35 -30.5t-19.5 -39.5t-6 -39q0 -23 6 -44.5t19 -38.5t33 -27t49 -10q15 0 28.5 2t29.5 8t36 17.5t47 30.5v-90z" />
    <glyph glyph-name="trademark" unicode="&#x2122;" horiz-adv-x="408" 
d="M342 475v107l-48 -57l-50 57v-107h-51v197h43l58 -68l58 68h42v-197h-52zM69 475v148h-55v49h162v-49h-56v-148h-51z" />
    <glyph glyph-name="acute" unicode="&#xb4;" horiz-adv-x="500" 
d="M320 519h-141l143 132h146z" />
    <glyph glyph-name="dieresis" unicode="&#xa8;" horiz-adv-x="500" 
d="M287 520v130h130v-130h-130zM91 520v130h130v-130h-130z" />
    <glyph glyph-name="AE" unicode="&#xc6;" horiz-adv-x="1041" 
d="M538 0v138h-262l-91 -138h-172l455 672h522v-134h-308v-126h219v-134h-219v-144h308v-134h-452zM538 537l-181 -275h181v275z" />
    <glyph glyph-name="Oslash" unicode="&#xd8;" horiz-adv-x="824" 
d="M91 17l62 76q-50 50 -77 113.5t-27 129.5q0 65 26.5 127.5t74.5 112t114.5 80t147.5 30.5q51 0 96.5 -12.5t85.5 -34.5l63 78l76 -61l-62 -77q50 -50 77 -113.5t27 -129.5q0 -65 -26.5 -127.5t-74.5 -112t-114.5 -80t-147.5 -30.5q-51 0 -97 12.5t-85 35.5l-63 -78z
M318 142q21 -10 44.5 -15.5t49.5 -5.5q45 0 83.5 16.5t66.5 45.5t44 68t16 85q0 38 -10.5 71t-30.5 60zM506 530q-21 10 -44.5 15.5t-49.5 5.5q-45 0 -83.5 -16.5t-66.5 -45.5t-44 -68t-16 -85q0 -38 10.5 -71t30.5 -60z" />
    <glyph glyph-name="plusminus" unicode="&#xb1;" 
d="M244 168v159h-149v109h149v159h109v-159h149v-109h-149v-159h-109zM95 0v109h407v-109h-407z" />
    <glyph glyph-name="yen" unicode="&#xa5;" 
d="M370 118v-118h-144v118h-147v102h147v75h-147v102h83l-174 275h166l144 -240l144 240h166l-174 -275h83v-102h-147v-75h147v-102h-147z" />
    <glyph glyph-name="uni00B5" unicode="&#xb5;" horiz-adv-x="610" 
d="M353 0l9 57q-20 -38 -45 -55.5t-60 -17.5q-64 0 -104 59l-44 -257h-140l131 747h141l-37 -212q-9 -50 -12 -83t-3 -48q0 -90 83 -90q26 0 45 11t33.5 33.5t24.5 56.5t18 81l44 251h141l-94 -533h-131z" />
    <glyph glyph-name="ordfeminine" unicode="&#xaa;" horiz-adv-x="348" 
d="M213 378v23q-20 -12 -42 -20t-42 -8t-38 6t-32 17t-22.5 28t-8.5 40q0 20 11 41.5t40 38.5q23 13 56 20.5t73 10.5q-2 25 -18 31t-35 6q-25 0 -53 -10.5t-57 -30.5l20 88q26 12 56 19.5t59 7.5q56 0 90 -29t34 -92v-187h-91zM209 513q-28 -3 -42.5 -6t-25.5 -8
q-21 -10 -21 -31q0 -8 6.5 -16.5t29.5 -8.5q5 0 21 5t32 16v49z" />
    <glyph glyph-name="ordmasculine" unicode="&#xba;" horiz-adv-x="390" 
d="M360 527q0 -30 -11.5 -58.5t-33 -50.5t-52 -35.5t-68.5 -13.5t-68.5 13.5t-52 35.5t-33 50.5t-11.5 58.5t11.5 59t33 51t52 35.5t68.5 13.5t68.5 -13.5t52 -35.5t33 -51t11.5 -59zM195 459q30 0 47 19.5t17 48.5t-17 49t-47 20t-47 -20t-17 -49t17 -48.5t47 -19.5z" />
    <glyph glyph-name="ae" unicode="&#xe6;" horiz-adv-x="842" 
d="M790 43q-20 -13 -45 -23.5t-53.5 -18t-58.5 -11.5t-60 -4q-63 0 -111.5 20t-80.5 57q-43 -40 -89.5 -58.5t-103.5 -18.5q-36 0 -64.5 10.5t-48.5 29t-30.5 42.5t-10.5 51q0 29 17 61t62 58q72 42 209 46v10q0 27 -9 42.5t-22.5 23.5t-30 10t-32.5 2q-42 0 -85.5 -16
t-77.5 -39l27 117q39 17 84.5 28.5t91.5 11.5q48 0 85 -13.5t61 -42.5q31 26 69.5 41t85.5 15q39 0 80 -11.5t75 -42t56 -85t22 -139.5h-335q2 -46 35.5 -74.5t95.5 -28.5q23 0 49.5 5t52 14t49 21.5t41.5 27.5v-118zM660 286q-6 45 -31.5 64t-60.5 19q-42 0 -67 -24
t-31 -59h190zM342 127q-13 35 -17 73q-46 -2 -71 -7t-44 -13q-14 -7 -26.5 -19t-12.5 -37q0 -15 14.5 -28.5t44.5 -13.5q59 0 112 45z" />
    <glyph glyph-name="oslash" unicode="&#xf8;" horiz-adv-x="590" 
d="M63 0l48 60q-34 35 -52 78.5t-18 91.5q0 47 18 91t51 78t80 54.5t105 20.5q33 0 62.5 -7t55.5 -19l49 63l65 -51l-48 -60q34 -35 52 -78.5t18 -91.5q0 -47 -18 -91t-51 -78t-80 -54.5t-105 -20.5q-33 0 -62.5 7t-55.5 19l-49 -63zM254 111q18 -5 38 -5q28 0 50 10t37 27
t23 40t8 49q0 33 -13 62zM335 348q-18 5 -38 5q-28 0 -50 -10t-37 -27t-23 -40t-8 -49q0 -33 13 -62z" />
    <glyph glyph-name="questiondown" unicode="&#xbf;" horiz-adv-x="455" 
d="M187 390l86 86l86 -86l-86 -87zM438 -112q-35 -60 -82.5 -93t-119.5 -33q-36 0 -69.5 11.5t-60 35t-42.5 58t-16 79.5q0 47 24.5 82.5t74.5 79.5q30 27 40 38.5t10 20.5q0 11 -10 24l93 80q33 -32 44.5 -58t11.5 -50q0 -18 -4 -32t-13.5 -28t-25.5 -30.5t-40 -39.5
q-19 -18 -31 -30.5t-19 -21.5t-9.5 -16.5t-2.5 -15.5q0 -23 15 -38t43 -15q32 0 54 19.5t42 56.5z" />
    <glyph glyph-name="exclamdown" unicode="&#xa1;" horiz-adv-x="310" 
d="M69 390l86 86l86 -86l-86 -87zM81 -224v134l41 354h66l41 -354v-134h-148z" />
    <glyph glyph-name="logicalnot" unicode="&#xac;" 
d="M382 214v164h-287v109h407v-273h-120z" />
    <glyph glyph-name="florin" unicode="&#x192;" 
d="M-3 -88q8 -2 21 -4.5t28 -2.5q35 0 51 21t22 55l67 363h-69l20 109h69q8 49 21 91.5t35.5 74t57 49.5t85.5 18q16 0 36.5 -3t40.5 -7t38 -9.5t29 -9.5l-21 -115q-20 11 -41.5 18t-42.5 7q-17 0 -30 -3.5t-23.5 -15t-18.5 -34t-15 -61.5h155l-21 -109h-154l-67 -364
q-11 -60 -34.5 -97.5t-53.5 -58.5t-65.5 -28t-70.5 -7h-12t-18.5 1l-21 2t-19.5 3z" />
    <glyph glyph-name="guillemotleft" unicode="&#xab;" horiz-adv-x="571" 
d="M401 74l-148 193l148 193h146l-148 -193l148 -193h-146zM157 74l-148 193l148 193h146l-148 -193l148 -193h-146z" />
    <glyph glyph-name="guillemotright" unicode="&#xbb;" horiz-adv-x="571" 
d="M268 74l148 193l-148 193h146l148 -193l-148 -193h-146zM24 74l148 193l-148 193h146l148 -193l-148 -193h-146z" />
    <glyph glyph-name="ellipsis" unicode="&#x2026;" horiz-adv-x="1000" 
d="M765 0v137h137v-137h-137zM431 0v137h137v-137h-137zM98 0v137h137v-137h-137z" />
    <glyph glyph-name="uni00A0" unicode="&#xa0;" horiz-adv-x="204" 
 />
    <glyph glyph-name="Agrave" unicode="&#xc0;" horiz-adv-x="681" 
d="M515 0l-49 138h-251l-49 -138h-153l261 672h133l261 -672h-153zM341 487l-81 -225h161zM304 731l-148 132h146l143 -132h-141z" />
    <glyph glyph-name="Atilde" unicode="&#xc3;" horiz-adv-x="681" 
d="M515 0l-49 138h-251l-49 -138h-153l261 672h133l261 -672h-153zM341 487l-81 -225h161zM525 868q-5 -63 -28 -98.5t-79 -35.5q-19 0 -38 5.5t-37 12.5t-35 12.5t-33 5.5q-25 0 -27 -43h-85q2 28 7.5 53t16 43.5t26.5 29.5t40 11q25 0 48.5 -6t44 -13.5t37.5 -13.5t29 -6
q11 0 19 10.5t9 32.5h85z" />
    <glyph glyph-name="Otilde" unicode="&#xd5;" horiz-adv-x="824" 
d="M775 336q0 -65 -26.5 -127.5t-74.5 -112t-114.5 -80t-147.5 -30.5t-147.5 30.5t-114.5 80t-74.5 112t-26.5 127.5t26.5 127.5t74.5 112t114.5 80t147.5 30.5t147.5 -30.5t114.5 -80t74.5 -112t26.5 -127.5zM412 121q45 0 83.5 16.5t66.5 45.5t44 68t16 85t-16 85t-44 68
t-66.5 45.5t-83.5 16.5t-83.5 -16.5t-66.5 -45.5t-44 -68t-16 -85t16 -85t44 -68t66.5 -45.5t83.5 -16.5zM596 868q-5 -63 -28 -98.5t-79 -35.5q-19 0 -38 5.5t-37 12.5t-35 12.5t-33 5.5q-25 0 -27 -43h-85q2 28 7.5 53t16 43.5t26.5 29.5t40 11q25 0 48.5 -6t44 -13.5
t37.5 -13.5t29 -6q11 0 19 10.5t9 32.5h85z" />
    <glyph glyph-name="OE" unicode="&#x152;" horiz-adv-x="1125" 
d="M622 0v57q-42 -33 -94.5 -52t-115.5 -19q-81 0 -147.5 30.5t-114.5 80t-74.5 112t-26.5 127.5t26.5 127.5t74.5 112t114.5 80t147.5 30.5q63 0 115.5 -19t94.5 -52v57h452v-134h-308v-126h219v-134h-219v-144h308v-134h-452zM412 121q45 0 83.5 16.5t66.5 45.5t44 68
t16 85t-16 85t-44 68t-66.5 45.5t-83.5 16.5t-83.5 -16.5t-66.5 -45.5t-44 -68t-16 -85t16 -85t44 -68t66.5 -45.5t83.5 -16.5z" />
    <glyph glyph-name="oe" unicode="&#x153;" horiz-adv-x="917" 
d="M865 43q-20 -13 -45 -23.5t-53.5 -18t-58.5 -11.5t-60 -4q-59 0 -103.5 19t-75.5 51q-34 -33 -78.5 -51.5t-95.5 -18.5q-58 0 -105 20.5t-80 54.5t-51 78t-18 91t18 91t51 78t80 54.5t105 20.5q55 0 100 -20t77 -54q31 33 74 53.5t98 20.5q39 0 80 -11.5t75 -42t56 -85
t22 -139.5h-335q2 -46 35.5 -74.5t95.5 -28.5q23 0 49.5 5t52 14t49 21.5t41.5 27.5v-118zM735 286q-6 45 -31.5 64t-60.5 19q-42 0 -67 -24t-31 -59h190zM295 113q52 0 80.5 34.5t28.5 82.5t-28.5 82.5t-80.5 34.5t-80.5 -34.5t-28.5 -82.5t28.5 -82.5t80.5 -34.5z" />
    <glyph glyph-name="endash" unicode="&#x2013;" horiz-adv-x="572" 
d="M60 191v106h452v-106h-452z" />
    <glyph glyph-name="emdash" unicode="&#x2014;" horiz-adv-x="748" 
d="M62 191v106h624v-106h-624z" />
    <glyph glyph-name="quotedblleft" unicode="&#x201c;" horiz-adv-x="512" 
d="M294 448v92q0 21 5.5 46.5t21 47.5t43.5 37t73 15q20 0 41 -4t30 -9q-29 -8 -46 -18.5t-25.5 -26t-11 -36t-2.5 -48.5v-96h-129zM68 448v74q0 21 5.5 46.5t21 47.5t43.5 37t73 15q20 0 41 -4t30 -9q-29 -8 -46 -18.5t-25.5 -26t-11 -36t-2.5 -48.5v-78h-129z" />
    <glyph glyph-name="quotedblright" unicode="&#x201d;" horiz-adv-x="512" 
d="M444 598q0 -21 -5.5 -46.5t-21 -47.5t-43.5 -37t-73 -15q-20 0 -41 4t-30 9q29 8 46 18.5t25.5 26t11 36t2.5 48.5v78h129v-74zM218 580q0 -21 -5.5 -46.5t-21 -47.5t-43.5 -37t-73 -15q-20 0 -41 4t-30 9q29 8 46 18.5t25.5 26t11 36t2.5 48.5v96h129v-92z" />
    <glyph glyph-name="quoteleft" unicode="&#x2018;" horiz-adv-x="286" 
d="M68 448v92q0 21 5.5 46.5t21 47.5t43.5 37t73 15q20 0 41 -4t30 -9q-29 -8 -46 -18.5t-25.5 -26t-11 -36t-2.5 -48.5v-96h-129z" />
    <glyph glyph-name="quoteright" unicode="&#x2019;" horiz-adv-x="286" 
d="M218 580q0 -21 -5.5 -46.5t-21 -47.5t-43.5 -37t-73 -15q-20 0 -41 4t-30 9q29 8 46 18.5t25.5 26t11 36t2.5 48.5v96h129v-92z" />
    <glyph glyph-name="divide" unicode="&#xf7;" 
d="M244 445v94h109v-94h-109zM95 281v109h407v-109h-407zM244 132v94h109v-94h-109z" />
    <glyph glyph-name="ydieresis" unicode="&#xff;" horiz-adv-x="577" 
d="M17 -114q11 -3 27.5 -5.5t29.5 -2.5q31 0 48 13.5t28 33.5l67 128l-201 407h161l111 -261l118 261h159l-281 -560q-38 -75 -81 -105.5t-103 -30.5q-12 0 -25 1t-24.5 2.5t-20.5 3.5t-13 3v112zM326 520v130h130v-130h-130zM130 520v130h130v-130h-130z" />
    <glyph glyph-name="Ydieresis" unicode="&#x178;" horiz-adv-x="648" 
d="M252 0v296l-238 376h166l144 -240l144 240h166l-238 -376v-296h-144zM361 732v130h130v-130h-130zM165 732v130h130v-130h-130z" />
    <glyph glyph-name="Euro" unicode="&#x20ac;" 
d="M566 46q-28 -20 -55 -31.5t-51.5 -17.5t-45.5 -7.5t-36 -1.5q-57 0 -103.5 18.5t-81.5 50.5t-59.5 74.5t-37.5 90.5h-108l28 93h65q-1 10 -1 13v8v8t1 13h-93l28 93h79q13 49 37.5 92t60 75t82 50.5t104.5 18.5q69 0 122 -23t94 -51l-46 -119q-48 35 -88 49t-75 14
q-59 0 -92 -31.5t-47 -74.5h245l-28 -93h-233q-1 -7 -1 -11v-11v-11.5t1 -8.5h227l-27 -93h-183q17 -46 53 -75t97 -29q15 0 35 3t42 11t45.5 22t45.5 37v-145z" />
    <glyph glyph-name="guilsinglleft" unicode="&#x2039;" horiz-adv-x="327" 
d="M157 74l-148 193l148 193h146l-148 -193l148 -193h-146z" />
    <glyph glyph-name="guilsinglright" unicode="&#x203a;" horiz-adv-x="327" 
d="M24 74l148 193l-148 193h146l148 -193l-148 -193h-146z" />
    <glyph glyph-name="daggerdbl" unicode="&#x2021;" horiz-adv-x="505" 
d="M184 -149v311h-135v104h135v90h-135v104h135v212h137v-212h135v-104h-135v-90h135v-104h-135v-311h-137z" />
    <glyph glyph-name="periodcentered" unicode="&#xb7;" horiz-adv-x="280" 
d="M71 273v137h138v-137h-138z" />
    <glyph glyph-name="quotesinglbase" unicode="&#x201a;" horiz-adv-x="286" 
d="M207 7q0 -21 -5.5 -46.5t-21 -47.5t-43.5 -37t-73 -15q-20 0 -41 4t-30 9q29 8 46 18.5t25.5 26t11 36t2.5 48.5v96h129v-92z" />
    <glyph glyph-name="quotedblbase" unicode="&#x201e;" horiz-adv-x="512" 
d="M433 26q0 -21 -5.5 -46.5t-21 -47.5t-43.5 -37t-73 -15q-20 0 -41 4t-30 9q29 8 46 18.5t25.5 26t11 36t2.5 48.5v78h129v-74zM207 8q0 -21 -5.5 -46.5t-21 -47.5t-43.5 -37t-73 -15q-20 0 -41 4t-30 9q29 8 46 18.5t25.5 26t11 36t2.5 48.5v96h129v-92z" />
    <glyph glyph-name="perthousand" unicode="&#x2030;" horiz-adv-x="1210" 
d="M1160 151q0 -34 -13 -64t-35.5 -52.5t-52.5 -35.5t-64 -13t-64 13t-52.5 35.5t-35.5 52.5t-13 64t13 64t35.5 52.5t52.5 35.5t64 13t64 -13t52.5 -35.5t35.5 -52.5t13 -64zM790 151q0 -34 -13 -64t-35.5 -52.5t-52.5 -35.5t-64 -13t-64 13t-52.5 35.5t-35.5 52.5t-13 64
t13 64t35.5 52.5t52.5 35.5t64 13t64 -13t52.5 -35.5t35.5 -52.5t13 -64zM136 0l437 672h129l-437 -672h-129zM380 521q0 -34 -13 -64t-35.5 -52.5t-52.5 -35.5t-64 -13t-64 13t-52.5 35.5t-35.5 52.5t-13 64t13 64t35.5 52.5t52.5 35.5t64 13t64 -13t52.5 -35.5t35.5 -52.5
t13 -64zM1060 151q0 27 -19 46t-46 19t-46 -19t-19 -46t19 -46t46 -19t46 19t19 46zM690 151q0 27 -19 46t-46 19t-46 -19t-19 -46t19 -46t46 -19t46 19t19 46zM280 521q0 27 -19 46t-46 19t-46 -19t-19 -46t19 -46t46 -19t46 19t19 46z" />
    <glyph glyph-name="Acircumflex" unicode="&#xc2;" horiz-adv-x="681" 
d="M515 0l-49 138h-251l-49 -138h-153l261 672h133l261 -672h-153zM341 487l-81 -225h161zM415 731l-71 84l-71 -84h-126l118 132h158l118 -132h-126z" />
    <glyph glyph-name="Ecircumflex" unicode="&#xca;" horiz-adv-x="577" 
d="M74 0v672h452v-134h-308v-126h219v-134h-219v-144h308v-134h-452zM368 731l-71 84l-71 -84h-126l118 132h158l118 -132h-126z" />
    <glyph glyph-name="Aacute" unicode="&#xc1;" horiz-adv-x="681" 
d="M515 0l-49 138h-251l-49 -138h-153l261 672h133l261 -672h-153zM341 487l-81 -225h161zM391 731h-141l143 132h146z" />
    <glyph glyph-name="Edieresis" unicode="&#xcb;" horiz-adv-x="577" 
d="M74 0v672h452v-134h-308v-126h219v-134h-219v-144h308v-134h-452zM331 732v130h130v-130h-130zM135 732v130h130v-130h-130z" />
    <glyph glyph-name="Egrave" unicode="&#xc8;" horiz-adv-x="577" 
d="M74 0v672h452v-134h-308v-126h219v-134h-219v-144h308v-134h-452zM257 731l-148 132h146l143 -132h-141z" />
    <glyph glyph-name="Iacute" unicode="&#xcd;" horiz-adv-x="292" 
d="M74 0v672h144v-672h-144zM217 731h-141l143 132h146z" />
    <glyph glyph-name="Icircumflex" unicode="&#xce;" horiz-adv-x="292" 
d="M74 0v672h144v-672h-144zM221 731l-71 84l-71 -84h-126l118 132h158l118 -132h-126z" />
    <glyph glyph-name="Idieresis" unicode="&#xcf;" horiz-adv-x="292" 
d="M74 0v672h144v-672h-144zM184 732v130h130v-130h-130zM-12 732v130h130v-130h-130z" />
    <glyph glyph-name="Igrave" unicode="&#xcc;" horiz-adv-x="292" 
d="M74 0v672h144v-672h-144zM80 731l-148 132h146l143 -132h-141z" />
    <glyph glyph-name="Oacute" unicode="&#xd3;" horiz-adv-x="824" 
d="M775 336q0 -65 -26.5 -127.5t-74.5 -112t-114.5 -80t-147.5 -30.5t-147.5 30.5t-114.5 80t-74.5 112t-26.5 127.5t26.5 127.5t74.5 112t114.5 80t147.5 30.5t147.5 -30.5t114.5 -80t74.5 -112t26.5 -127.5zM412 121q45 0 83.5 16.5t66.5 45.5t44 68t16 85t-16 85t-44 68
t-66.5 45.5t-83.5 16.5t-83.5 -16.5t-66.5 -45.5t-44 -68t-16 -85t16 -85t44 -68t66.5 -45.5t83.5 -16.5zM452 731h-141l143 132h146z" />
    <glyph glyph-name="Ocircumflex" unicode="&#xd4;" horiz-adv-x="824" 
d="M775 336q0 -65 -26.5 -127.5t-74.5 -112t-114.5 -80t-147.5 -30.5t-147.5 30.5t-114.5 80t-74.5 112t-26.5 127.5t26.5 127.5t74.5 112t114.5 80t147.5 30.5t147.5 -30.5t114.5 -80t74.5 -112t26.5 -127.5zM412 121q45 0 83.5 16.5t66.5 45.5t44 68t16 85t-16 85t-44 68
t-66.5 45.5t-83.5 16.5t-83.5 -16.5t-66.5 -45.5t-44 -68t-16 -85t16 -85t44 -68t66.5 -45.5t83.5 -16.5zM486 731l-71 84l-71 -84h-126l118 132h158l118 -132h-126z" />
    <glyph glyph-name="Ograve" unicode="&#xd2;" horiz-adv-x="824" 
d="M775 336q0 -65 -26.5 -127.5t-74.5 -112t-114.5 -80t-147.5 -30.5t-147.5 30.5t-114.5 80t-74.5 112t-26.5 127.5t26.5 127.5t74.5 112t114.5 80t147.5 30.5t147.5 -30.5t114.5 -80t74.5 -112t26.5 -127.5zM412 121q45 0 83.5 16.5t66.5 45.5t44 68t16 85t-16 85t-44 68
t-66.5 45.5t-83.5 16.5t-83.5 -16.5t-66.5 -45.5t-44 -68t-16 -85t16 -85t44 -68t66.5 -45.5t83.5 -16.5zM375 731l-148 132h146l143 -132h-141z" />
    <glyph glyph-name="Uacute" unicode="&#xda;" horiz-adv-x="770" 
d="M557 672h144v-369q0 -68 -23 -126t-64.5 -100t-100 -65.5t-128.5 -23.5q-71 0 -129 23.5t-99.5 65.5t-64.5 100t-23 126v369h144v-373q0 -46 13.5 -79.5t37 -55.5t54.5 -32.5t67 -10.5t67 10.5t54.5 32.5t37 55.5t13.5 79.5v373zM435 731h-141l143 132h146z" />
    <glyph glyph-name="Ucircumflex" unicode="&#xdb;" horiz-adv-x="770" 
d="M557 672h144v-369q0 -68 -23 -126t-64.5 -100t-100 -65.5t-128.5 -23.5q-71 0 -129 23.5t-99.5 65.5t-64.5 100t-23 126v369h144v-373q0 -46 13.5 -79.5t37 -55.5t54.5 -32.5t67 -10.5t67 10.5t54.5 32.5t37 55.5t13.5 79.5v373zM459 731l-71 84l-71 -84h-126l118 132
h158l118 -132h-126z" />
    <glyph glyph-name="Ugrave" unicode="&#xd9;" horiz-adv-x="770" 
d="M557 672h144v-369q0 -68 -23 -126t-64.5 -100t-100 -65.5t-128.5 -23.5q-71 0 -129 23.5t-99.5 65.5t-64.5 100t-23 126v369h144v-373q0 -46 13.5 -79.5t37 -55.5t54.5 -32.5t67 -10.5t67 10.5t54.5 32.5t37 55.5t13.5 79.5v373zM348 731l-148 132h146l143 -132h-141z
" />
    <glyph glyph-name="dotlessi" unicode="&#x131;" horiz-adv-x="280" 
d="M72 0v460h141v-460h-141z" />
    <glyph glyph-name="circumflex" unicode="&#x2c6;" horiz-adv-x="500" 
d="M324 519l-71 84l-71 -84h-126l118 132h158l118 -132h-126z" />
    <glyph glyph-name="tilde" unicode="&#x2dc;" horiz-adv-x="500" 
d="M434 656q-5 -63 -28 -98.5t-79 -35.5q-19 0 -38 5.5t-37 12.5t-35 12.5t-33 5.5q-25 0 -27 -43h-85q2 28 7.5 53t16 43.5t26.5 29.5t40 11q25 0 48.5 -6t44 -13.5t37.5 -13.5t29 -6q11 0 19 10.5t9 32.5h85z" />
    <glyph glyph-name="macron" unicode="&#xaf;" horiz-adv-x="500" 
d="M99 545v81h310v-81h-310z" />
    <glyph glyph-name="ring" unicode="&#x2da;" horiz-adv-x="500" 
d="M357 622q0 -21 -8 -40t-22 -33t-33 -22t-40 -8t-40 8t-33 22t-22 33t-8 40t8 40t22 33t33 22t40 8t40 -8t33 -22t22 -33t8 -40zM299 622q0 19 -13 32t-32 13t-32 -13t-13 -32t13 -32t32 -13t32 13t13 32z" />
    <glyph glyph-name="cedilla" unicode="&#xb8;" horiz-adv-x="500" 
d="M185 -141q8 -4 16.5 -6.5t19.5 -2.5q19 0 29.5 11t10.5 30q0 16 -12 28t-34 12h-8l14 72h68l-7 -39q29 -3 46 -26t17 -53q0 -41 -30.5 -69.5t-81.5 -28.5q-13 0 -25.5 1t-22.5 3v68z" />
    <glyph glyph-name="caron" unicode="&#x2c7;" horiz-adv-x="500" 
d="M174 519l-118 132h126l71 -84l71 84h126l-118 -132h-158z" />
    <glyph glyph-name="currency" unicode="&#xa4;" horiz-adv-x="652" 
d="M502 110q-18 17 -35 34t-35 34q-26 -17 -55.5 -25.5t-58.5 -8.5q-26 0 -56.5 7.5t-58.5 26.5l-69 -68q-17 16 -33 32.5t-32 33.5q17 16 34.5 32.5t34.5 33.5q-18 29 -26 58t-8 54t7.5 54t26.5 58l-69 67q16 17 32 33.5t33 32.5l69 -68q29 19 59 26t56 7q27 0 57.5 -7.5
t56.5 -25.5q17 17 34.5 34t35.5 34l64 -66l-69 -67q20 -30 27 -59.5t7 -52.5q0 -24 -7.5 -53t-26.5 -59q17 -17 34.5 -33.5t34.5 -32.5zM438 355q0 26 -10 47.5t-27 37.5t-38.5 24.5t-44.5 8.5q-26 0 -48 -9.5t-38 -25.5t-25.5 -37.5t-9.5 -45.5t9.5 -46t26 -38.5t38.5 -26
t47 -9.5t46.5 9.5t38 26t26 38t9.5 46.5z" />
    <glyph glyph-name="brokenbar" unicode="&#xa6;" horiz-adv-x="275" 
d="M83 350v300h109v-300h-109zM83 -150v300h109v-300h-109z" />
    <glyph glyph-name="uni00AD" unicode="&#xad;" horiz-adv-x="429" 
d="M50 191v116h329v-116h-329z" />
    <glyph glyph-name="uni00B2" unicode="&#xb2;" horiz-adv-x="397" 
d="M43 413q29 43 60 86t57 81.5t42.5 70t16.5 51.5q0 19 -14 30t-34 11q-17 0 -34 -6.5t-31.5 -16t-26.5 -21t-20 -21.5v97q24 20 58 35t70 15q31 0 55.5 -9.5t41.5 -25t25.5 -35t8.5 -40.5q0 -23 -12 -51t-30.5 -57.5t-40.5 -59.5t-41 -57h135v-77h-286z" />
    <glyph glyph-name="uni00B3" unicode="&#xb3;" horiz-adv-x="397" 
d="M106 537q8 -20 23.5 -37t46.5 -17q30 0 48.5 18.5t18.5 47.5q0 10 -4 21t-13.5 20.5t-24 15.5t-35.5 6q-12 0 -27 -3t-23 -6l72 135h-139v77h285l-95 -156q18 -4 36 -13t32 -23t22.5 -35t8.5 -49q0 -29 -12.5 -54t-34 -43t-50 -28.5t-59.5 -10.5q-53 0 -88.5 23t-58.5 55
z" />
    <glyph glyph-name="uni00B9" unicode="&#xb9;" horiz-adv-x="397" 
d="M151 413v357l95 59v-416h-95z" />
    <glyph glyph-name="onequarter" unicode="&#xbc;" horiz-adv-x="890" 
d="M121 270v357l95 59v-416h-95zM221 -12l293 698h94l-293 -698h-94zM684 0v65h-233l323 351v-277h58v-74h-58v-65h-90zM687 235l-99 -107h99v107z" />
    <glyph glyph-name="onehalf" unicode="&#xbd;" horiz-adv-x="890" 
d="M119 270v357l95 59v-416h-95zM207 -12l293 698h94l-293 -698h-94zM543 0q29 43 60 86t57 81.5t42.5 70t16.5 51.5q0 19 -14 30t-34 11q-17 0 -34 -6.5t-31.5 -16t-26.5 -21t-20 -21.5v97q24 20 58 35t70 15q31 0 55.5 -9.5t41.5 -25t25.5 -35t8.5 -40.5q0 -23 -12 -51
t-30.5 -57.5t-40.5 -59.5t-41 -57h135v-77h-286z" />
    <glyph glyph-name="threequarters" unicode="&#xbe;" horiz-adv-x="890" 
d="M96 394q8 -20 23.5 -37t46.5 -17q30 0 48.5 18.5t18.5 47.5q0 10 -4 21t-13.5 20.5t-24 15.5t-35.5 6q-12 0 -27 -3t-23 -6l72 135h-139v77h285l-95 -156q18 -4 36 -13t32 -23t22.5 -35t8.5 -49q0 -29 -12.5 -54t-34 -43t-50 -28.5t-59.5 -10.5q-53 0 -88.5 23t-58.5 55z
M264 -12l293 698h94l-293 -698h-94zM714 0v65h-233l323 351v-277h58v-74h-58v-65h-90zM717 235l-99 -107h99v107z" />
    <glyph glyph-name="Eth" unicode="&#xd0;" horiz-adv-x="737" 
d="M74 0v299h-86v105h86v268h257q86 0 152.5 -30.5t112 -78.5t69 -108t23.5 -119q0 -54 -21 -113.5t-65.5 -109t-114.5 -81.5t-167 -32h-246zM308 134q50 0 91.5 16t71.5 43.5t46.5 64t16.5 78.5q0 40 -13 76.5t-38.5 64.5t-64.5 44.5t-90 16.5h-110v-134h143v-105h-143
v-165h90z" />
    <glyph glyph-name="multiply" unicode="&#xd7;" 
d="M411 146l-112 113l-113 -113l-77 77l113 113l-113 112l77 77l112 -112l112 112l78 -77l-112 -112l112 -113z" />
    <glyph glyph-name="Yacute" unicode="&#xdd;" horiz-adv-x="648" 
d="M252 0v296l-238 376h166l144 -240l144 240h166l-238 -376v-296h-144zM394 731h-141l143 132h146z" />
    <glyph glyph-name="Thorn" unicode="&#xde;" horiz-adv-x="573" 
d="M74 0v672h144v-113h82q61 0 107.5 -17.5t78 -48t48 -72t16.5 -90.5t-19 -89t-52.5 -68.5t-79 -44.5t-97.5 -16h-84v-113h-144zM293 247q20 0 39 4.5t33.5 15t23.5 28t9 43.5q0 16 -5.5 32t-17.5 28t-32.5 19.5t-50.5 7.5h-74v-178h75z" />
    <glyph glyph-name="eth" unicode="&#xf0;" horiz-adv-x="577" 
d="M415 572q56 -85 88.5 -167.5t32.5 -162.5q0 -44 -16 -89.5t-48 -82.5t-80 -60.5t-113 -23.5q-58 0 -102.5 20.5t-74.5 54.5t-45.5 78t-15.5 91q0 53 17.5 96t46 73t64 46.5t71.5 16.5q23 0 44 -4t41 -15q-7 16 -19.5 38t-28.5 46l-96 -31l-25 74l74 24q-19 26 -35 46.5
t-26 31.5h174q7 -8 13 -16.5t12 -16.5l107 34l25 -74zM375 308q-15 17 -40.5 30t-52.5 13q-26 0 -44 -10t-29.5 -26.5t-17 -38.5t-5.5 -46q0 -17 4.5 -37t15.5 -38t29 -30t44 -12q24 0 44 9.5t34.5 25t22.5 37t8 45.5q0 20 -3 40.5t-10 37.5z" />
    <glyph glyph-name="yacute" unicode="&#xfd;" horiz-adv-x="577" 
d="M17 -114q11 -3 27.5 -5.5t29.5 -2.5q31 0 48 13.5t28 33.5l67 128l-201 407h161l111 -261l118 261h159l-281 -560q-38 -75 -81 -105.5t-103 -30.5q-12 0 -25 1t-24.5 2.5t-20.5 3.5t-13 3v112zM339 519h-141l143 132h146z" />
    <glyph glyph-name="thorn" unicode="&#xfe;" horiz-adv-x="605" 
d="M71 -212v884h141v-251q23 21 55 37t70 16q55 0 97.5 -21t71 -55.5t43.5 -78t15 -87.5q0 -55 -18 -100.5t-48.5 -77.5t-70.5 -50t-83 -18q-39 0 -73 16.5t-59 35.5v-250h-141zM212 157q48 -49 97 -49q28 0 48.5 12t33.5 30t19 40t6 42q0 32 -11 55t-27.5 37.5t-36 21
t-37.5 6.5q-30 0 -53 -15.5t-39 -32.5v-147z" />
    <glyph glyph-name="Scaron" unicode="&#x160;" horiz-adv-x="538" 
d="M358 500q-13 23 -34 39t-49 16q-29 0 -45 -14.5t-16 -37.5q0 -22 21 -37.5t53 -30t69 -31.5t69 -42.5t53 -62.5t21 -91q0 -39 -14.5 -78.5t-43.5 -71.5t-72 -52t-100 -20q-48 0 -85 14.5t-65 38t-48 52t-33 56.5l127 67q4 -16 11.5 -33.5t19.5 -31.5t30 -23.5t44 -9.5
q30 0 54.5 21.5t24.5 55.5q0 29 -21 48t-52 35.5t-68 33.5t-68 40.5t-52 57.5t-21 85q0 37 15.5 72t43.5 62t65.5 43t82.5 16q61 0 114 -30t89 -89zM200 731l-118 132h126l71 -84l71 84h126l-118 -132h-158z" />
    <glyph glyph-name="scaron" unicode="&#x161;" horiz-adv-x="485" 
d="M48 149q36 -20 86.5 -38.5t100.5 -18.5q32 0 49 9t17 24q0 11 -8.5 17.5t-35.5 14.5q-45 14 -75 24.5t-50 20t-32.5 18t-23.5 19.5q-16 15 -26 37t-10 49q0 34 14.5 61.5t40 47t60.5 30t77 10.5q57 0 97.5 -9.5t73.5 -22.5v-118q-19 10 -41 18.5t-43.5 14.5t-41 9.5
t-34.5 3.5q-34 0 -47 -9.5t-13 -22.5q0 -12 12.5 -20.5t57.5 -23.5q43 -15 69.5 -24.5t42 -16.5t24 -12.5t16.5 -11.5q20 -16 29 -40.5t9 -52.5q0 -20 -9.5 -46t-33.5 -49t-64 -39t-100 -16q-27 0 -56 4t-55 10t-46.5 12t-30.5 11v126zM163 519l-118 132h126l71 -84l71 84
h126l-118 -132h-158z" />
    <glyph glyph-name="Zcaron" unicode="&#x17d;" horiz-adv-x="660" 
d="M28 0l339 538h-316v134h561l-339 -538h341v-134h-586zM254 731l-118 132h126l71 -84l71 84h126l-118 -132h-158z" />
    <glyph glyph-name="zcaron" unicode="&#x17e;" horiz-adv-x="511" 
d="M32 0l218 350h-189v110h406l-212 -350h218v-110h-441zM196 519l-118 132h126l71 -84l71 84h126l-118 -132h-158z" />
    </font>
</defs>
</svg>
