<?xml version="1.0" standalone="no"?>
<!DOCTYPE svg PUBLIC "-//W3C//DTD SVG 1.1//EN" "http://www.w3.org/Graphics/SVG/1.1/DTD/svg11.dtd" >
<svg xmlns="http://www.w3.org/2000/svg" width="100%" height="100%">
<metadata>
Created by FontXChange 20110222 at Sat Jul 27 10:28:32 2013
 By Nick Dunn
JohnstonITCW01 Medium
</metadata>
<defs>
<font id="JohnstonITCW01-Medium" horiz-adv-x="564" >
  <font-face 
    font-family="JohnstonITCW01 Medium"
    font-weight="400"
    font-stretch="normal"
    units-per-em="1000"
    panose-1="2 11 6 4 4 2 4 2 4 4"
    ascent="717"
    descent="-283"
    x-height="453"
    cap-height="672"
    bbox="-63 -252 1089 925"
    underline-thickness="50"
    underline-position="-50"
    unicode-range="U+000D-2122"
  />
<missing-glyph horiz-adv-x="0" 
 />
    <glyph glyph-name=".notdef" horiz-adv-x="0" 
 />
    <glyph glyph-name="glyph1" horiz-adv-x="0" 
 />
    <glyph glyph-name="uni000D" unicode="&#xd;" horiz-adv-x="0" 
 />
    <glyph glyph-name="space" unicode=" " horiz-adv-x="204" 
 />
    <glyph glyph-name="exclam" unicode="!" horiz-adv-x="274" 
d="M113 172l-29 363v137h106v-137l-29 -363h-48zM137 -22l-75 75l75 75l75 -75z" />
    <glyph glyph-name="quotedbl" unicode="&#x22;" horiz-adv-x="396" 
d="M267 418l-28 148v106h97v-106l-27 -148h-42zM88 418l-28 148v106h96v-106l-26 -148h-42z" />
    <glyph glyph-name="numbersign" unicode="#" horiz-adv-x="670" 
d="M344 -39l46 218h-177l-46 -218h-86l46 218h-105l15 75h106l34 163h-107l15 75h108l46 219h86l-46 -219h177l46 219h86l-46 -219h106l-15 -75h-107l-34 -163h108l-15 -75h-109l-46 -218h-86zM440 417h-177l-34 -163h177z" />
    <glyph glyph-name="dollar" unicode="$" 
d="M252 -95v82q-38 3 -67.5 13t-53 25.5t-42 35.5t-34.5 42l78 61q6 -11 16.5 -25t25.5 -26.5t34 -23t43 -14.5v251q-30 14 -60 30.5t-53.5 38t-38 51t-14.5 70.5q0 28 10 56t31 51.5t52 40t73 21.5v88h67v-89q86 -10 147 -79l-62 -59q-19 22 -40 34.5t-45 17.5v-194
q30 -15 60 -32.5t54 -41t39 -55.5t15 -75q0 -36 -12.5 -71t-35 -63.5t-53.5 -49t-67 -27.5v-84h-67zM252 600q-32 -6 -53 -28t-21 -53q0 -28 21 -46.5t53 -35.5v163zM319 82q31 13 53.5 42t22.5 69q0 35 -21.5 59t-54.5 42v-212z" />
    <glyph glyph-name="percent" unicode="%" horiz-adv-x="758" 
d="M209 371q-32 0 -60.5 12.5t-49.5 33.5t-33.5 49.5t-12.5 60.5t12.5 60.5t33.5 49.5t49.5 33t60.5 12t60.5 -12t49.5 -33t33 -49.5t12 -60.5t-12 -60.5t-33 -49.5t-49.5 -33.5t-60.5 -12.5zM109 0l441 672h97l-441 -672h-97zM550 -9q-32 0 -60.5 12.5t-49.5 33.5
t-33.5 49.5t-12.5 60.5t12.5 60.5t33.5 49.5t49.5 33t60.5 12t60.5 -12t49.5 -33t33 -49.5t12 -60.5t-12 -60.5t-33 -49.5t-49.5 -33.5t-60.5 -12.5zM209 447q33 0 56 23.5t23 56.5t-23 56t-56 23t-56.5 -23t-23.5 -56t23.5 -56.5t56.5 -23.5zM550 67q33 0 56 23.5t23 56.5
t-23 56t-56 23t-56.5 -23t-23.5 -56t23.5 -56.5t56.5 -23.5z" />
    <glyph glyph-name="ampersand" unicode="&#x26;" horiz-adv-x="685" 
d="M547 0l-91 87q-25 -29 -52.5 -47.5t-54.5 -30t-52.5 -16t-46.5 -4.5q-38 0 -74.5 14t-65.5 39t-47 60.5t-18 78.5q0 52 30.5 94t101.5 83q-45 38 -67 78.5t-22 75.5q0 30 12 58.5t35 51t56 36.5t76 14q48 0 82 -15t56 -38t32 -50t10 -51q0 -56 -35 -95t-102 -76l141 -136
q23 31 42.5 67.5t30.5 65.5h96q-7 -18 -18.5 -41.5t-26 -49t-31 -51.5t-34.5 -49l159 -153h-122zM256 399q53 28 77 53.5t24 60.5q0 32 -25.5 56.5t-66.5 24.5q-24 0 -40.5 -7.5t-27 -19t-15.5 -25.5t-5 -26q0 -26 22 -54.5t57 -62.5zM232 302q-53 -27 -73.5 -56.5
t-20.5 -62.5q0 -22 9 -42t26 -35t40.5 -24t53.5 -9q32 0 67.5 16.5t64.5 52.5z" />
    <glyph glyph-name="quotesingle" unicode="'" horiz-adv-x="221" 
d="M90 418l-28 148v106h97v-106l-27 -148h-42z" />
    <glyph glyph-name="parenleft" unicode="(" horiz-adv-x="340" 
d="M207 -148q-58 109 -90.5 230.5t-32.5 247.5t32.5 247.5t90.5 230.5h101q-34 -59 -58.5 -114.5t-40.5 -112.5t-24 -118.5t-8 -132.5t8 -132.5t24 -118.5t40.5 -112.5t58.5 -114.5h-101z" />
    <glyph glyph-name="parenright" unicode=")" horiz-adv-x="340" 
d="M32 -148q34 59 58.5 114.5t40.5 112.5t24 118.5t8 132.5t-8 132.5t-24 118.5t-40.5 112.5t-58.5 114.5h101q58 -109 90.5 -230.5t32.5 -247.5t-32.5 -247.5t-90.5 -230.5h-101z" />
    <glyph glyph-name="asterisk" unicode="*" horiz-adv-x="416" 
d="M230 455l19 -138h-82l19 138l-105 -81l-41 71l122 50l-122 49l41 71l105 -81l-19 138h82l-19 -138l105 81l41 -71l-122 -50l122 -49l-41 -71z" />
    <glyph glyph-name="plus" unicode="+" 
d="M242 122v174h-164v79h164v174h79v-174h165v-79h-165v-174h-79z" />
    <glyph glyph-name="comma" unicode="," horiz-adv-x="230" 
d="M166 40q0 -33 -13 -58.5t-35.5 -43.5t-52.5 -27t-65 -9q-5 0 -9.5 0.5t-9.5 1.5q29 11 46.5 22.5t27 26.5t12.5 35t3 48v77h96v-73z" />
    <glyph glyph-name="hyphen" unicode="-" horiz-adv-x="433" 
d="M52 206v89h329v-89h-329z" />
    <glyph glyph-name="period" unicode="." horiz-adv-x="230" 
d="M62 0v111h106v-111h-106z" />
    <glyph glyph-name="slash" unicode="/" horiz-adv-x="403" 
d="M32 -129l246 929h93l-246 -929h-93z" />
    <glyph glyph-name="zero" unicode="0" 
d="M282 -12q-57 0 -99 31.5t-69.5 82t-40.5 112.5t-13 123t13 123t40.5 112t69.5 82t99 32t99 -32t69.5 -82t40.5 -112t13 -123t-13 -123t-40.5 -112.5t-69.5 -82t-99 -31.5zM282 80q25 0 47 17.5t38.5 51t25.5 81t9 107.5t-9 107.5t-25.5 81t-38.5 51t-47 17.5
q-26 0 -47.5 -17.5t-38 -51t-25.5 -81t-9 -107.5t9 -107.5t25.5 -81t38 -51t47.5 -17.5z" />
    <glyph glyph-name="one" unicode="1" 
d="M232 0v628l100 68v-696h-100z" />
    <glyph glyph-name="two" unicode="2" 
d="M70 0l186 314q38 65 60 107t22 75q0 48 -28 73t-66 25q-52 0 -94 -35.5t-75 -86.5v131q35 38 78 60.5t98 22.5q41 0 76 -14.5t60 -39t39 -58.5t14 -73q0 -24 -3.5 -44t-12 -41.5t-22 -46.5t-34.5 -59l-133 -221h228v-89h-393z" />
    <glyph glyph-name="three" unicode="3" 
d="M116 173q7 -14 20 -30t30 -29.5t39 -22.5t48 -9q18 0 39.5 6t40 21t31 40.5t12.5 63.5q0 24 -9 46t-27.5 38.5t-46 26t-64.5 9.5q-17 0 -38 -1.5t-33 -3.5l153 255h-236v89h398l-162 -268q26 -1 55.5 -13.5t54 -36.5t41 -59.5t16.5 -81.5q0 -49 -18 -90.5t-49 -71.5
t-72.5 -46.5t-88.5 -16.5q-34 0 -63.5 9t-54 24t-45.5 34t-37 38z" />
    <glyph glyph-name="four" unicode="4" 
d="M341 0v178h-341l441 508v-428h113v-80h-113v-178h-100zM341 457l-173 -199h173v199z" />
    <glyph glyph-name="five" unicode="5" 
d="M113 170q7 -14 20 -29.5t30.5 -28.5t39.5 -21.5t48 -8.5q20 0 41.5 8t39 24t28.5 40.5t11 58.5q0 19 -8.5 40.5t-26.5 39.5t-45.5 30t-65.5 12q-33 0 -63.5 -5.5t-46.5 -11.5l28 354h333l-52 -89h-202l-13 -170q16 2 31 3t27 1q40 0 77.5 -14.5t66 -41t45.5 -64.5t17 -84
q0 -50 -19 -91.5t-50.5 -71t-72 -46t-83.5 -16.5q-35 0 -65 9.5t-55 24t-45.5 32.5t-35.5 36z" />
    <glyph glyph-name="six" unicode="6" 
d="M425 672q-37 -33 -72.5 -70t-66.5 -75.5t-55 -77t-37 -75.5q24 15 54.5 24t63.5 9q43 0 79 -16.5t62.5 -45t41.5 -66.5t15 -82q0 -35 -14 -72.5t-42 -68t-70.5 -50.5t-98.5 -20q-45 0 -84.5 17.5t-69.5 51.5t-47 82t-17 110q0 103 57.5 213t166.5 212h134zM172 273
q-2 -10 -3 -21t-1 -21q0 -68 34 -110.5t88 -42.5q28 0 50 11t37 28t23 38t8 42q0 57 -34 89t-86 32q-36 0 -67.5 -15t-48.5 -30z" />
    <glyph glyph-name="seven" unicode="7" 
d="M81 0l284 583h-283v89h432l-328 -672h-105z" />
    <glyph glyph-name="eight" unicode="8" 
d="M368 375q63 -38 96 -81t33 -108q0 -36 -15 -71.5t-43 -63t-67 -45t-87 -17.5q-45 0 -84.5 14t-69 40t-47 62t-17.5 81q0 64 34.5 107.5t95.5 80.5q-39 29 -64 65t-25 80q0 35 13.5 65.5t37 53t56 35.5t70.5 13q47 0 80.5 -16t55 -40.5t31.5 -54t10 -56.5
q0 -24 -7.5 -44.5t-20.5 -38.5t-30 -33t-36 -28zM284 420q43 17 62 44.5t19 48.5q0 43 -23.5 63t-56.5 20q-34 0 -57 -21t-23 -56q0 -32 18.5 -54t60.5 -45zM280 327q-53 -29 -82 -61.5t-29 -79.5q0 -20 7.5 -39t22.5 -34t36.5 -24.5t49.5 -9.5q15 0 34.5 6t36 19t28 34.5
t11.5 53.5q0 42 -33.5 77t-81.5 58z" />
    <glyph glyph-name="nine" unicode="9" 
d="M142 0q37 33 72.5 70t66.5 75.5t55 77t37 75.5q-24 -15 -54.5 -24t-63.5 -9q-43 0 -79 16.5t-62.5 45t-41.5 66.5t-15 82q0 35 14 72.5t42 68t70.5 50.5t98.5 20q45 0 84.5 -17.5t69.5 -51.5t47 -82.5t17 -109.5q0 -103 -57.5 -213t-166.5 -212h-134zM395 399q2 10 3 21
t1 21q0 68 -34 110.5t-88 42.5q-29 0 -51 -11t-37 -28t-22.5 -38t-7.5 -42q0 -57 34 -89t86 -32q36 0 67.5 15t48.5 30z" />
    <glyph glyph-name="colon" unicode=":" horiz-adv-x="230" 
d="M62 272v111h106v-111h-106zM62 0v111h106v-111h-106z" />
    <glyph glyph-name="semicolon" unicode=";" horiz-adv-x="230" 
d="M67 272v111h101v-111h-101zM166 40q0 -33 -13 -58.5t-35.5 -43.5t-52.5 -27t-65 -9q-5 0 -9.5 0.5t-9.5 1.5q29 11 46.5 22.5t27 26.5t12.5 35t3 48v77h96v-73z" />
    <glyph glyph-name="less" unicode="&#x3c;" 
d="M78 296v79l408 174v-79l-315 -134l315 -135v-79z" />
    <glyph glyph-name="equal" unicode="=" 
d="M78 369v79h408v-79h-408zM78 223v79h408v-79h-408z" />
    <glyph glyph-name="greater" unicode="&#x3e;" 
d="M78 122v79l315 134l-315 135v79l408 -174v-79z" />
    <glyph glyph-name="question" unicode="?" horiz-adv-x="421" 
d="M181 157q-39 35 -52 59.5t-13 52.5q0 18 5.5 33t17.5 30t30 32.5t42 39.5q39 35 58 59t19 59q0 33 -24.5 53.5t-61.5 20.5q-39 0 -66.5 -17t-48.5 -62l-75 49q12 24 28 45.5t38.5 38t53 26.5t70.5 10q47 0 81.5 -14t57 -37.5t33.5 -53t11 -59.5q0 -28 -7 -50t-19 -41
t-28.5 -36t-35.5 -35q-26 -25 -42.5 -40.5t-25.5 -25.5t-12.5 -16.5t-3.5 -13.5q0 -10 6 -17.5t26 -27.5zM181 -22l-75 75l75 75l75 -75z" />
    <glyph glyph-name="at" unicode="@" horiz-adv-x="969" 
d="M775 -64q-26 -11 -57 -20.5t-63.5 -16.5t-64.5 -10.5t-60 -3.5q-110 0 -197.5 33.5t-148 92.5t-92.5 139.5t-32 175.5q0 80 31.5 155t88 133t134.5 93t170 35q86 0 163 -32t135.5 -88.5t92.5 -132.5t34 -163q0 -53 -14.5 -98t-40.5 -78t-62 -52t-80 -19q-51 0 -84.5 21
t-51.5 56q-32 -29 -69 -47.5t-70 -18.5q-32 0 -60 10.5t-48 28.5t-31.5 42.5t-11.5 53.5t16 63t61 60q35 20 82.5 26t109.5 6v14q0 27 -9 44.5t-23 28t-30.5 14.5t-32.5 4q-42 0 -79 -14.5t-69 -35.5l23 93q38 17 73.5 26t74.5 9q74 0 117.5 -44t43.5 -130v-150
q0 -25 6.5 -42.5t17 -29t23 -16.5t25.5 -5q21 0 41 10.5t36 33t26 56t10 80.5q0 72 -27 134.5t-74 109.5t-109.5 74t-134.5 27q-82 0 -146 -31.5t-108 -81t-67 -111t-23 -121.5q0 -72 22.5 -139t70.5 -118t121.5 -82t175.5 -31q28 0 58.5 4t59 10t54 14t44.5 17zM555 307
q-48 0 -83.5 -5t-58.5 -18q-19 -11 -26 -25.5t-7 -28.5q0 -23 17 -42.5t56 -19.5q49 0 105 47q-3 22 -3 46v46z" />
    <glyph glyph-name="A" unicode="A" horiz-adv-x="680" 
d="M561 0l-68 170h-306l-68 -170h-103l279 679h90l279 -679h-103zM340 568l-118 -311h236z" />
    <glyph glyph-name="B" unicode="B" horiz-adv-x="593" 
d="M77 0v672h191q55 0 93.5 -15t63 -39.5t35.5 -54.5t11 -60q0 -41 -21.5 -74.5t-63.5 -53.5q76 -20 114.5 -70t38.5 -106q0 -51 -20 -88.5t-51.5 -62t-70.5 -36.5t-78 -12h-242zM248 397q126 0 126 100q0 16 -7 32t-20.5 29t-35 21t-49.5 8h-89v-190h75zM302 86
q60 0 97.5 29t37.5 84q0 50 -34 81t-116 31h-114v-225h129z" />
    <glyph glyph-name="C" unicode="C" horiz-adv-x="687" 
d="M644 52q-53 -32 -112.5 -49t-122.5 -17q-74 0 -138.5 25.5t-113.5 72t-77 111t-28 141.5t28 141.5t77 111t113.5 72t138.5 25.5q64 0 122 -18t114 -50v-104q-55 36 -117.5 59t-118.5 23q-53 0 -99.5 -20t-81 -54.5t-54.5 -82.5t-20 -103q0 -56 20 -103.5t54.5 -82
t81 -54.5t99.5 -20q65 0 123.5 21t111.5 59v-104z" />
    <glyph glyph-name="D" unicode="D" horiz-adv-x="705" 
d="M77 0v672h213q73 0 139 -24t115.5 -68.5t79 -106.5t29.5 -137q0 -74 -28 -135.5t-76.5 -106t-113.5 -69.5t-140 -25h-218zM285 87q65 0 115 20t83.5 53.5t50.5 79t17 96.5q0 55 -21 100.5t-56 78.5t-82.5 51.5t-99.5 18.5h-119v-498h112z" />
    <glyph glyph-name="E" unicode="E" horiz-adv-x="546" 
d="M77 0v672h425v-87h-329v-181h257v-87h-257v-230h329v-87h-425z" />
    <glyph glyph-name="F" unicode="F" horiz-adv-x="518" 
d="M77 0v672h412v-87h-316v-181h244v-87h-244v-317h-96z" />
    <glyph glyph-name="G" unicode="G" horiz-adv-x="747" 
d="M578 274h-158v87h254v-296q-26 -16 -58 -30t-66.5 -25t-69 -17.5t-65.5 -6.5q-74 0 -139.5 25.5t-115.5 72t-79 111t-29 141.5q0 73 27.5 137t76 111.5t114.5 74.5t143 27q55 0 121 -17.5t130 -52.5v-104q-60 43 -125 63.5t-128 20.5q-53 0 -100 -20t-82 -54.5t-55 -82.5
t-20 -103q0 -56 21 -103.5t56.5 -82t83 -54.5t100.5 -20q42 0 83.5 10.5t79.5 27.5v160z" />
    <glyph glyph-name="H" unicode="H" horiz-adv-x="730" 
d="M557 0v317h-384v-317h-96v672h96v-268h384v268h96v-672h-96z" />
    <glyph glyph-name="I" unicode="I" horiz-adv-x="250" 
d="M77 0v672h96v-672h-96z" />
    <glyph glyph-name="J" unicode="J" horiz-adv-x="458" 
d="M288 672h96v-501q0 -42 -13.5 -76.5t-38 -58.5t-58 -37t-73.5 -13q-42 0 -72 13.5t-51 34t-34 43.5t-20 43l94 47q3 -38 27 -64t59 -26q38 0 61 22t23 72v501z" />
    <glyph glyph-name="K" unicode="K" horiz-adv-x="630" 
d="M487 0l-314 341v-341h-96v672h96v-260l275 260h130l-324 -292l364 -380h-131z" />
    <glyph glyph-name="L" unicode="L" horiz-adv-x="516" 
d="M77 0v672h96v-585h316v-87h-412z" />
    <glyph glyph-name="M" unicode="M" horiz-adv-x="826" 
d="M653 0v530l-240 -304l-240 304v-530h-96v672h96l240 -311l240 311h96v-672h-96z" />
    <glyph glyph-name="N" unicode="N" horiz-adv-x="766" 
d="M593 0l-420 529v-529h-96v672h96l420 -529v529h96v-672h-96z" />
    <glyph glyph-name="O" unicode="O" horiz-adv-x="818" 
d="M766 336q0 -77 -28 -141.5t-77 -111t-114 -72t-138 -25.5q-74 0 -138.5 25.5t-113.5 72t-77 111t-28 141.5t28 141.5t77 111t113.5 72t138.5 25.5q73 0 138 -25.5t114 -72t77 -111t28 -141.5zM409 76q53 0 99.5 20t81 54.5t54.5 82t20 103.5q0 55 -20 103t-54.5 82.5
t-81 54.5t-99.5 20t-99.5 -20t-81 -54.5t-54.5 -82.5t-20 -103q0 -56 20 -103.5t54.5 -82t81 -54.5t99.5 -20z" />
    <glyph glyph-name="P" unicode="P" horiz-adv-x="539" 
d="M77 0v672h203q64 0 108 -18t72 -46.5t40.5 -64t12.5 -71.5q0 -52 -19.5 -90.5t-51.5 -63.5t-72.5 -37.5t-83.5 -12.5h-113v-268h-96zM277 355q60 0 96 29t36 86q0 22 -6.5 42.5t-22 36.5t-42 26t-65.5 10h-100v-230h104z" />
    <glyph glyph-name="Q" unicode="Q" horiz-adv-x="819" 
d="M702 -20l-75 75q-45 -33 -100.5 -51t-117.5 -18q-74 0 -138.5 25.5t-113.5 72t-77 111t-28 141.5t28 141.5t77 111t113.5 72t138.5 25.5q73 0 138 -25.5t114 -72t77 -111t28 -141.5q0 -64 -19 -118.5t-54 -98.5l74 -74zM488 194l66 66l68 -69q20 31 31 67.5t11 77.5
q0 55 -20 103t-54.5 82.5t-81 54.5t-99.5 20t-99.5 -20t-81 -54.5t-54.5 -82.5t-20 -103q0 -56 20 -103.5t54.5 -82t81 -54.5t99.5 -20q42 0 79.5 12.5t69.5 35.5z" />
    <glyph glyph-name="R" unicode="R" horiz-adv-x="614" 
d="M471 0l-210 300h-88v-300h-96v672h192q58 0 98.5 -18t66 -45.5t37 -60t11.5 -62.5q0 -64 -34 -106t-85 -62l224 -318h-116zM257 387q33 0 56.5 8.5t38.5 22.5t21.5 32.5t6.5 38.5q0 45 -32.5 70.5t-91.5 25.5h-83v-198h84z" />
    <glyph glyph-name="S" unicode="S" horiz-adv-x="565" 
d="M427 511q-23 42 -58 63t-75 21q-29 0 -48 -8.5t-30.5 -21.5t-16 -27.5t-4.5 -27.5q0 -30 24 -50t59.5 -37t77.5 -35t77.5 -43.5t59.5 -61.5t24 -90q0 -45 -17.5 -83t-47 -65t-68 -42t-80.5 -15q-53 0 -92.5 12t-70 34t-53 53t-40.5 70l86 54q8 -24 20.5 -47.5t32 -43
t46.5 -31.5t65 -12q22 0 43 7.5t37.5 21.5t26 33.5t9.5 42.5q0 36 -24 60t-59.5 42t-77.5 35t-77.5 40.5t-59.5 56.5t-24 84q0 42 15.5 76t42.5 58.5t63.5 38t78.5 13.5q63 0 117.5 -28t92.5 -87z" />
    <glyph glyph-name="T" unicode="T" horiz-adv-x="578" 
d="M241 0v585h-213v87h522v-87h-213v-585h-96z" />
    <glyph glyph-name="U" unicode="U" horiz-adv-x="744" 
d="M576 672h96v-385q0 -78 -27 -134.5t-69.5 -93.5t-96 -55t-107.5 -18t-107.5 18t-96 55t-69.5 93.5t-27 134.5v385h96v-389q0 -60 20.5 -100t51 -63.5t66 -33.5t66.5 -10t66.5 10t66 33.5t51 63.5t20.5 100v389z" />
    <glyph glyph-name="V" unicode="V" horiz-adv-x="669" 
d="M291 -7l-274 679h104l215 -552l214 552h102l-274 -679h-87z" />
    <glyph glyph-name="W" unicode="W" horiz-adv-x="1003" 
d="M656 -7l-154 513l-155 -513h-100l-220 679h101l169 -548l161 548h87l161 -548l169 548h101l-220 -679h-100z" />
    <glyph glyph-name="X" unicode="X" horiz-adv-x="682" 
d="M533 0l-192 280l-192 -280h-117l251 353l-227 319h116l169 -248l169 248h116l-227 -319l251 -353h-117z" />
    <glyph glyph-name="Y" unicode="Y" horiz-adv-x="602" 
d="M253 0v317l-236 355h114l170 -278l170 278h114l-236 -355v-317h-96z" />
    <glyph glyph-name="Z" unicode="Z" horiz-adv-x="649" 
d="M22 0l416 585h-383v87h552l-415 -585h413v-87h-583z" />
    <glyph glyph-name="bracketleft" unicode="[" horiz-adv-x="275" 
d="M70 -148v956h189v-75h-99v-806h99v-75h-189z" />
    <glyph glyph-name="backslash" unicode="\" horiz-adv-x="383" 
d="M268 -129l-246 929h93l246 -929h-93z" />
    <glyph glyph-name="bracketright" unicode="]" horiz-adv-x="275" 
d="M16 -148v75h99v806h-99v75h189v-956h-189z" />
    <glyph glyph-name="asciicircum" unicode="^" 
d="M417 360l-135 252l-134 -252h-80l174 326h79l175 -326h-79z" />
    <glyph glyph-name="underscore" unicode="_" horiz-adv-x="401" 
d="M-3 -164v59h407v-59h-407z" />
    <glyph glyph-name="grave" unicode="`" horiz-adv-x="500" 
d="M196 508l-134 122h108l134 -122h-108z" />
    <glyph glyph-name="a" unicode="a" horiz-adv-x="472" 
d="M317 0v42q-34 -26 -62.5 -39t-63.5 -13q-32 0 -60 10.5t-48 28.5t-31.5 42.5t-11.5 53.5t16 63t61 60q35 20 82.5 26t109.5 6v14q0 27 -9 44.5t-23 28t-30.5 14.5t-32.5 4q-42 0 -79 -14.5t-69 -35.5l23 93q38 17 73.5 26t74.5 9q74 0 119.5 -44t45.5 -130v-289h-85z
M309 207q-48 0 -83.5 -5t-58.5 -18q-19 -11 -26 -25.5t-7 -28.5q0 -23 17 -41.5t56 -18.5q23 0 49 10t53 32v95z" />
    <glyph glyph-name="b" unicode="b" horiz-adv-x="573" 
d="M75 0v672h93v-247q25 16 57.5 27t72.5 11q43 0 84 -17t73.5 -47.5t52.5 -74t20 -96.5q0 -62 -22.5 -106.5t-56.5 -73.5t-74 -43t-75 -14q-74 0 -140 51v-42h-85zM168 126q8 -7 19.5 -15.5t26.5 -16t33.5 -12.5t40.5 -5q24 0 49 8.5t46 27t34 47t13 68.5q0 30 -9.5 57.5
t-27.5 47.5t-44 32t-59 12q-38 0 -69 -12.5t-53 -29.5v-209z" />
    <glyph glyph-name="c" unicode="c" horiz-adv-x="484" 
d="M438 27q-28 -17 -69 -27t-82 -10q-46 0 -89.5 15t-77.5 45t-54.5 74.5t-20.5 103.5q0 47 18 90t50 76t76.5 52.5t97.5 19.5q37 0 78 -10.5t73 -28.5v-102q-32 22 -69.5 38t-78.5 16q-34 0 -61.5 -12t-46.5 -32.5t-29 -48t-10 -58.5q0 -41 14 -69.5t35.5 -46.5t48 -26.5
t51.5 -8.5q49 0 87.5 17.5t58.5 34.5v-102z" />
    <glyph glyph-name="d" unicode="d" horiz-adv-x="573" 
d="M413 0v42q-66 -51 -140 -51q-35 0 -75 14t-74 43t-56.5 73.5t-22.5 106.5q0 53 20 96.5t52.5 74t73.5 47.5t84 17q40 0 72.5 -11t57.5 -27v247h93v-672h-85zM405 335q-22 17 -53 29.5t-69 12.5q-33 0 -59 -12t-44 -32t-27.5 -47.5t-9.5 -57.5q0 -40 13 -68.5t34 -47
t46 -27t49 -8.5q22 0 40.5 5t33.5 12.5t26.5 16t19.5 15.5v209z" />
    <glyph glyph-name="e" unicode="e" horiz-adv-x="527" 
d="M473 47q-86 -59 -196 -59q-53 0 -96 17t-73 48.5t-46.5 76t-16.5 99.5q0 43 13.5 85t40.5 75t68.5 53.5t98.5 20.5q41 0 80 -14.5t69 -45.5t48 -79.5t18 -117.5v-6h-338q4 -65 46 -96.5t100 -31.5q57 0 104 20t80 47v-92zM378 278q-3 44 -34.5 74.5t-82.5 30.5
q-29 0 -50 -9t-35 -23.5t-22 -33.5t-11 -39h235z" />
    <glyph glyph-name="f" unicode="f" horiz-adv-x="403" 
d="M117 0v374h-92v79h92v52q0 34 8 66.5t27.5 58t52 41t81.5 15.5q21 0 47 -3.5t55 -12.5v-89q-7 3 -18.5 7t-24 7t-26 5t-25.5 2q-41 0 -62.5 -22t-21.5 -75v-52h147v-79h-147v-374h-93z" />
    <glyph glyph-name="g" unicode="g" horiz-adv-x="526" 
d="M416 375q14 -14 23.5 -35t9.5 -50q0 -34 -13.5 -64.5t-38 -53t-59 -36t-75.5 -13.5q-15 0 -34.5 2.5t-39.5 7.5q-25 -18 -25 -33q0 -12 9 -18.5t32 -12.5t62.5 -14t99.5 -23q25 -6 48.5 -16t41.5 -26t28.5 -38.5t10.5 -52.5q0 -39 -19 -67.5t-52 -47t-77.5 -27.5
t-95.5 -9q-68 0 -114 12t-74.5 31.5t-41 44t-12.5 49.5t9 44.5t24.5 36t37 30.5t45.5 26q-31 11 -44 26.5t-13 35.5q0 45 60 78q-31 20 -51.5 51.5t-20.5 76.5q0 43 16.5 76.5t44 56t62.5 34t72 11.5q46 0 85 -15h167v-78h-88zM357 296q0 15 -6 30.5t-19.5 28t-34 21
t-50.5 8.5q-42 0 -70.5 -25t-28.5 -67q0 -41 30 -64.5t77 -23.5q20 0 38.5 5.5t32.5 16.5t22.5 28.5t8.5 41.5zM207 -11q-59 -23 -83.5 -48.5t-24.5 -46.5q0 -10 6.5 -21.5t23.5 -21.5t47.5 -17t78.5 -7q45 0 74.5 6.5t46.5 16t24 21.5t7 23q0 22 -17 35t-44.5 23t-63.5 18
t-75 19z" />
    <glyph glyph-name="h" unicode="h" horiz-adv-x="576" 
d="M413 0v244q0 63 -31.5 96.5t-85.5 33.5q-38 0 -71.5 -15.5t-56.5 -32.5v-326h-93v672h93v-256q24 16 58 30.5t82 14.5q25 0 59 -8t65 -32t52.5 -67.5t21.5 -114.5v-239h-93z" />
    <glyph glyph-name="i" unicode="i" horiz-adv-x="230" 
d="M115 515l-75 75l75 75l75 -75zM68 0v453h93v-453h-93z" />
    <glyph glyph-name="j" unicode="j" horiz-adv-x="232" 
d="M117 515l-75 75l75 75l75 -75zM-32 -138q8 -3 17 -4.5t17 -1.5q35 0 51.5 15t16.5 57v525h93v-541q0 -28 -8 -53.5t-25 -44.5t-43.5 -30.5t-63.5 -11.5q-17 0 -32 1.5t-23 3.5v85z" />
    <glyph glyph-name="k" unicode="k" horiz-adv-x="518" 
d="M380 0l-212 206v-206h-93v672h93v-390l182 171h126l-236 -204l266 -249h-126z" />
    <glyph glyph-name="l" unicode="l" horiz-adv-x="339" 
d="M220 -8q-42 0 -70.5 11.5t-46.5 33t-25.5 52.5t-7.5 69v514h93v-517q0 -17 3 -32t10.5 -26t20.5 -18t33 -7q29 0 47.5 6t32.5 13v-82q-30 -12 -51.5 -14.5t-33.5 -2.5h-5z" />
    <glyph glyph-name="m" unicode="m" horiz-adv-x="882" 
d="M719 0v246q0 68 -29.5 98t-77.5 30q-33 0 -67 -16t-60 -36q2 -12 3.5 -25t1.5 -27v-270h-93v246q0 68 -29.5 98t-77.5 30q-35 0 -65.5 -14t-56.5 -34v-326h-93v453h85v-43q12 7 27.5 16t35 17t43.5 13t53 5q39 0 75 -16.5t60 -49.5q35 24 81.5 45t100.5 21q34 0 66 -11.5
t56.5 -35t39 -59.5t14.5 -85v-270h-93z" />
    <glyph glyph-name="n" unicode="n" horiz-adv-x="576" 
d="M413 0v244q0 63 -31.5 96.5t-85.5 33.5q-38 0 -71.5 -15.5t-56.5 -32.5v-326h-93v453h85v-42q24 17 60 33.5t88 16.5q25 0 59 -8t65 -32t52.5 -67.5t21.5 -114.5v-239h-93z" />
    <glyph glyph-name="o" unicode="o" horiz-adv-x="574" 
d="M529 226q0 -50 -18 -93t-50.5 -75t-77 -50.5t-96.5 -18.5q-53 0 -97 18.5t-76.5 50.5t-50.5 75t-18 93q0 49 18 92.5t50.5 75.5t76.5 50.5t97 18.5q52 0 96.5 -18.5t77 -50.5t50.5 -75.5t18 -92.5zM287 75q31 0 57.5 11t46 31t30.5 47.5t11 61.5t-11 61.5t-30.5 47.5
t-46 31t-57.5 11t-57.5 -11t-46 -31t-30.5 -47.5t-11 -61.5t11 -61.5t30.5 -47.5t46 -31t57.5 -11z" />
    <glyph glyph-name="p" unicode="p" horiz-adv-x="573" 
d="M75 -219v672h85v-42q66 51 140 51q35 0 75 -14t74 -43t56.5 -73.5t22.5 -106.5q0 -53 -20 -96.5t-52.5 -74.5t-73.5 -47.5t-84 -16.5q-40 0 -72.5 11t-57.5 27v-247h-93zM168 118q22 -17 53 -29.5t69 -12.5q33 0 59 12t44 32t27.5 47.5t9.5 57.5q0 40 -13 68.5t-34 47
t-46 27t-49 8.5q-22 0 -40.5 -5t-33.5 -12.5t-26.5 -16t-19.5 -15.5v-209z" />
    <glyph glyph-name="q" unicode="q" horiz-adv-x="573" 
d="M405 -219v247q-25 -16 -57.5 -27t-72.5 -11q-43 0 -84 16.5t-73.5 47.5t-52.5 74.5t-20 96.5q0 62 22.5 106.5t56.5 73.5t74 43t75 14q74 0 140 -51v42h85v-672h-93zM405 327q-8 7 -19.5 15.5t-26.5 16t-33.5 12.5t-40.5 5q-24 0 -49 -8.5t-46 -27t-34 -47t-13 -68.5
q0 -30 9.5 -57.5t27.5 -47.5t44 -32t59 -12q38 0 69 12.5t53 29.5v209z" />
    <glyph glyph-name="r" unicode="r" horiz-adv-x="385" 
d="M75 0v453h85v-46q22 20 50 37t70 17q22 0 42 -5t43 -13v-96q-20 11 -44.5 20t-49.5 9q-35 0 -59.5 -15t-43.5 -35v-326h-93z" />
    <glyph glyph-name="s" unicode="s" horiz-adv-x="459" 
d="M51 120q36 -20 83 -34t97 -14q39 0 63 13t24 36q0 18 -15 29t-38 18q-49 15 -81 25.5t-53 19.5t-33.5 16.5t-21.5 16.5q-14 14 -23 33t-9 46t10.5 52t32.5 44t55.5 30.5t79.5 11.5q42 0 79 -9t70 -21v-92q-37 19 -76 29.5t-74 10.5q-47 0 -65.5 -14t-18.5 -32t16 -28
t54 -22q43 -13 71 -22.5t46 -16.5t28.5 -13t19.5 -13q20 -14 30.5 -37.5t10.5 -46.5q0 -30 -11.5 -56.5t-34.5 -47t-58 -32.5t-82 -12q-27 0 -54 4t-50 9.5t-42 12t-30 11.5v95z" />
    <glyph glyph-name="t" unicode="t" horiz-adv-x="406" 
d="M379 13q-24 -11 -47.5 -16t-53.5 -5q-26 0 -53.5 5.5t-50.5 22t-38 45.5t-15 76v233h-92v79h92v138h93v-138h137v-79h-137v-226q0 -45 21.5 -60.5t56.5 -15.5q30 0 51.5 8t35.5 15v-82z" />
    <glyph glyph-name="u" unicode="u" horiz-adv-x="576" 
d="M416 0v42q-24 -17 -60 -34t-88 -17q-25 0 -59 8t-65 32t-52.5 67.5t-21.5 114.5v240h93v-245q0 -63 31.5 -96.5t85.5 -33.5q38 0 71.5 16t56.5 33v326h93v-453h-85z" />
    <glyph glyph-name="v" unicode="v" horiz-adv-x="518" 
d="M223 0l-204 453h98l149 -352l149 352h98l-204 -453h-86z" />
    <glyph glyph-name="w" unicode="w" horiz-adv-x="775" 
d="M496 0l-108 303l-109 -303h-82l-183 453h96l125 -330l118 330h69l118 -330l125 330h96l-183 -453h-82z" />
    <glyph glyph-name="x" unicode="x" horiz-adv-x="490" 
d="M362 0l-117 182l-117 -182h-108l167 243l-158 210h115l101 -150l101 150h115l-158 -210l167 -243h-108z" />
    <glyph glyph-name="y" unicode="y" horiz-adv-x="502" 
d="M-12 -141q8 -3 20 -4.5t18 -1.5q32 0 54 13.5t41 51.5l70 138l-203 397h98l153 -308l149 308h98l-283 -560q-35 -68 -73.5 -95t-90.5 -27q-8 0 -24.5 1.5t-26.5 3.5v83z" />
    <glyph glyph-name="z" unicode="z" horiz-adv-x="477" 
d="M29 0l249 370h-220v83h374l-249 -370h253v-83h-407z" />
    <glyph glyph-name="braceleft" unicode="{" horiz-adv-x="342" 
d="M307 -148q-68 0 -105 12.5t-54.5 34t-20.5 49.5t-3 58v189q0 42 -22.5 68.5t-73.5 42.5v48q51 16 73.5 42.5t22.5 68.5v189q0 30 3 58t20.5 49.5t54.5 34t105 12.5h8v-75q-34 0 -54 -4t-30.5 -14.5t-13.5 -28t-3 -43.5v-176q0 -37 -8 -61t-21.5 -39t-30 -23.5
t-32.5 -13.5q16 -5 32.5 -13.5t30 -23.5t21.5 -39t8 -61v-176q0 -26 3 -43.5t13.5 -28t30.5 -14.5t54 -4v-75h-8z" />
    <glyph glyph-name="bar" unicode="|" horiz-adv-x="219" 
d="M70 -250v1000h79v-1000h-79z" />
    <glyph glyph-name="braceright" unicode="}" horiz-adv-x="342" 
d="M27 -148v75q34 0 54 4t30.5 14.5t13.5 28t3 43.5v176q0 37 8 61t21.5 39t29.5 23.5t33 13.5q-17 5 -33 13.5t-29.5 23.5t-21.5 39t-8 61v176q0 26 -3 43.5t-13.5 28t-30.5 14.5t-54 4v75h8q68 0 105 -12.5t54.5 -34t20.5 -49.5t3 -58v-189q0 -42 22.5 -68.5t73.5 -42.5
v-48q-51 -16 -73.5 -42.5t-22.5 -68.5v-189q0 -30 -3 -58t-20.5 -49.5t-54.5 -34t-105 -12.5h-8z" />
    <glyph glyph-name="asciitilde" unicode="~" 
d="M505 297q-28 -18 -58.5 -33t-64.5 -15q-29 0 -55 11t-50 23.5t-47 23.5t-45 11q-16 0 -33.5 -6.5t-34.5 -16t-33 -20.5t-29 -19v103q28 18 62 32.5t68 14.5q27 0 54 -11t52 -23.5t47.5 -23.5t41.5 -11q15 0 31.5 7t33 16.5t32.5 20t28 18.5v-102z" />
    <glyph glyph-name="Adieresis" unicode="&#xc4;" horiz-adv-x="680" 
d="M561 0l-68 170h-306l-68 -170h-103l279 679h90l279 -679h-103zM340 568l-118 -311h236zM375 745v96h96v-96h-96zM208 745v96h96v-96h-96z" />
    <glyph glyph-name="Aring" unicode="&#xc5;" horiz-adv-x="680" 
d="M561 0l-68 170h-306l-68 -170h-103l279 679h90l279 -679h-103zM340 568l-118 -311h236zM437 828q0 -41 -28 -69t-69 -28t-69 28t-28 69t28 69t69 28t69 -28t28 -69zM389 828q0 20 -14.5 34.5t-34.5 14.5t-34.5 -14.5t-14.5 -34.5t14.5 -34.5t34.5 -14.5t34.5 14.5
t14.5 34.5z" />
    <glyph glyph-name="Ccedilla" unicode="&#xc7;" horiz-adv-x="687" 
d="M308 -161q8 -3 17.5 -4t17.5 -1q19 0 34.5 10t15.5 34q0 41 -54 44l17 68q-64 9 -119.5 38t-96.5 74t-64.5 104.5t-23.5 129.5q0 77 28 141.5t77 111t113.5 72t138.5 25.5q64 0 122 -18t114 -50v-104q-55 36 -117.5 59t-118.5 23q-53 0 -99.5 -20t-81 -54.5t-54.5 -82.5
t-20 -103q0 -56 20 -103.5t54.5 -82t81 -54.5t99.5 -20q65 0 123.5 21t111.5 59v-104q-51 -31 -109 -48t-118 -18l-8 -36q20 -4 38 -22t18 -47q0 -44 -29 -73.5t-89 -29.5q-11 0 -22.5 2t-16.5 4v55z" />
    <glyph glyph-name="Eacute" unicode="&#xc9;" horiz-adv-x="546" 
d="M77 0v672h425v-87h-329v-181h257v-87h-257v-230h329v-87h-425zM314 731h-108l134 122h108z" />
    <glyph glyph-name="Ntilde" unicode="&#xd1;" horiz-adv-x="766" 
d="M593 0l-420 529v-529h-96v672h96l420 -529v529h96v-672h-96zM544 841q-5 -47 -26 -76t-62 -29q-17 0 -37 6.5t-39.5 14t-37 14t-29.5 6.5q-11 0 -17.5 -9t-7.5 -30h-67q1 22 7 42t16.5 35t25 23.5t34.5 8.5q18 0 38 -6.5t39.5 -14t37 -14t31.5 -6.5q11 0 18 7.5t9 27.5
h67z" />
    <glyph glyph-name="Odieresis" unicode="&#xd6;" horiz-adv-x="818" 
d="M766 336q0 -77 -28 -141.5t-77 -111t-114 -72t-138 -25.5q-74 0 -138.5 25.5t-113.5 72t-77 111t-28 141.5t28 141.5t77 111t113.5 72t138.5 25.5q73 0 138 -25.5t114 -72t77 -111t28 -141.5zM409 76q53 0 99.5 20t81 54.5t54.5 82t20 103.5q0 55 -20 103t-54.5 82.5
t-81 54.5t-99.5 20t-99.5 -20t-81 -54.5t-54.5 -82.5t-20 -103q0 -56 20 -103.5t54.5 -82t81 -54.5t99.5 -20zM444 745v96h96v-96h-96zM277 745v96h96v-96h-96z" />
    <glyph glyph-name="Udieresis" unicode="&#xdc;" horiz-adv-x="744" 
d="M576 672h96v-385q0 -78 -27 -134.5t-69.5 -93.5t-96 -55t-107.5 -18t-107.5 18t-96 55t-69.5 93.5t-27 134.5v385h96v-389q0 -60 20.5 -100t51 -63.5t66 -33.5t66.5 -10t66.5 10t66 33.5t51 63.5t20.5 100v389zM407 745v96h96v-96h-96zM240 745v96h96v-96h-96z" />
    <glyph glyph-name="aacute" unicode="&#xe1;" horiz-adv-x="472" 
d="M317 0v42q-34 -26 -62.5 -39t-63.5 -13q-32 0 -60 10.5t-48 28.5t-31.5 42.5t-11.5 53.5t16 63t61 60q35 20 82.5 26t109.5 6v14q0 27 -9 44.5t-23 28t-30.5 14.5t-32.5 4q-42 0 -79 -14.5t-69 -35.5l23 93q38 17 73.5 26t74.5 9q74 0 119.5 -44t45.5 -130v-289h-85z
M309 207q-48 0 -83.5 -5t-58.5 -18q-19 -11 -26 -25.5t-7 -28.5q0 -23 17 -41.5t56 -18.5q23 0 49 10t53 32v95zM263 508h-108l134 122h108z" />
    <glyph glyph-name="agrave" unicode="&#xe0;" horiz-adv-x="472" 
d="M317 0v42q-34 -26 -62.5 -39t-63.5 -13q-32 0 -60 10.5t-48 28.5t-31.5 42.5t-11.5 53.5t16 63t61 60q35 20 82.5 26t109.5 6v14q0 27 -9 44.5t-23 28t-30.5 14.5t-32.5 4q-42 0 -79 -14.5t-69 -35.5l23 93q38 17 73.5 26t74.5 9q74 0 119.5 -44t45.5 -130v-289h-85z
M309 207q-48 0 -83.5 -5t-58.5 -18q-19 -11 -26 -25.5t-7 -28.5q0 -23 17 -41.5t56 -18.5q23 0 49 10t53 32v95zM212 508l-134 122h108l134 -122h-108z" />
    <glyph glyph-name="acircumflex" unicode="&#xe2;" horiz-adv-x="472" 
d="M317 0v42q-34 -26 -62.5 -39t-63.5 -13q-32 0 -60 10.5t-48 28.5t-31.5 42.5t-11.5 53.5t16 63t61 60q35 20 82.5 26t109.5 6v14q0 27 -9 44.5t-23 28t-30.5 14.5t-32.5 4q-42 0 -79 -14.5t-69 -35.5l23 93q38 17 73.5 26t74.5 9q74 0 119.5 -44t45.5 -130v-289h-85z
M309 207q-48 0 -83.5 -5t-58.5 -18q-19 -11 -26 -25.5t-7 -28.5q0 -23 17 -41.5t56 -18.5q23 0 49 10t53 32v95zM291 508l-62 73l-63 -73h-94l111 122h91l111 -122h-94z" />
    <glyph glyph-name="adieresis" unicode="&#xe4;" horiz-adv-x="472" 
d="M317 0v42q-34 -26 -62.5 -39t-63.5 -13q-32 0 -60 10.5t-48 28.5t-31.5 42.5t-11.5 53.5t16 63t61 60q35 20 82.5 26t109.5 6v14q0 27 -9 44.5t-23 28t-30.5 14.5t-32.5 4q-42 0 -79 -14.5t-69 -35.5l23 93q38 17 73.5 26t74.5 9q74 0 119.5 -44t45.5 -130v-289h-85z
M309 207q-48 0 -83.5 -5t-58.5 -18q-19 -11 -26 -25.5t-7 -28.5q0 -23 17 -41.5t56 -18.5q23 0 49 10t53 32v95zM271 522v96h96v-96h-96zM104 522v96h96v-96h-96z" />
    <glyph glyph-name="atilde" unicode="&#xe3;" horiz-adv-x="472" 
d="M317 0v42q-34 -26 -62.5 -39t-63.5 -13q-32 0 -60 10.5t-48 28.5t-31.5 42.5t-11.5 53.5t16 63t61 60q35 20 82.5 26t109.5 6v14q0 27 -9 44.5t-23 28t-30.5 14.5t-32.5 4q-42 0 -79 -14.5t-69 -35.5l23 93q38 17 73.5 26t74.5 9q74 0 119.5 -44t45.5 -130v-289h-85z
M309 207q-48 0 -83.5 -5t-58.5 -18q-19 -11 -26 -25.5t-7 -28.5q0 -23 17 -41.5t56 -18.5q23 0 49 10t53 32v95zM397 618q-5 -47 -26 -76t-62 -29q-17 0 -37 6.5t-39.5 14t-37 14t-29.5 6.5q-11 0 -17.5 -9t-7.5 -30h-67q1 22 7 42t16.5 35t25 23.5t34.5 8.5q18 0 38 -6.5
t39.5 -14t37 -14t31.5 -6.5q11 0 18 7.5t9 27.5h67z" />
    <glyph glyph-name="aring" unicode="&#xe5;" horiz-adv-x="472" 
d="M317 0v42q-34 -26 -62.5 -39t-63.5 -13q-32 0 -60 10.5t-48 28.5t-31.5 42.5t-11.5 53.5t16 63t61 60q35 20 82.5 26t109.5 6v14q0 27 -9 44.5t-23 28t-30.5 14.5t-32.5 4q-42 0 -79 -14.5t-69 -35.5l23 93q38 17 73.5 26t74.5 9q74 0 119.5 -44t45.5 -130v-289h-85z
M309 207q-48 0 -83.5 -5t-58.5 -18q-19 -11 -26 -25.5t-7 -28.5q0 -23 17 -41.5t56 -18.5q23 0 49 10t53 32v95zM327 605q0 -41 -28 -69t-69 -28t-69 28t-28 69t28 69t69 28t69 -28t28 -69zM279 605q0 20 -14.5 34.5t-34.5 14.5t-34.5 -14.5t-14.5 -34.5t14.5 -34.5
t34.5 -14.5t34.5 14.5t14.5 34.5z" />
    <glyph glyph-name="ccedilla" unicode="&#xe7;" horiz-adv-x="484" 
d="M212 -143q12 -7 28 -7q14 0 30.5 8.5t16.5 34.5q0 17 -14.5 28t-39.5 13l13 59q-40 6 -76.5 24t-64 47.5t-44 70.5t-16.5 93q0 47 18 90t50 76t76.5 52.5t97.5 19.5q37 0 78 -10.5t73 -28.5v-102q-32 22 -69.5 38t-78.5 16q-34 0 -61.5 -12t-46.5 -32.5t-29 -48
t-10 -58.5q0 -41 14 -69.5t35.5 -46.5t48 -26.5t51.5 -8.5q49 0 87.5 17.5t58.5 34.5v-102q-26 -16 -63.5 -25.5t-75.5 -11.5l-5 -25q19 -5 37.5 -22t18.5 -47q0 -41 -29.5 -66t-80.5 -25q-4 0 -14 0.5t-14 1.5v50z" />
    <glyph glyph-name="eacute" unicode="&#xe9;" horiz-adv-x="527" 
d="M473 47q-86 -59 -196 -59q-53 0 -96 17t-73 48.5t-46.5 76t-16.5 99.5q0 43 13.5 85t40.5 75t68.5 53.5t98.5 20.5q41 0 80 -14.5t69 -45.5t48 -79.5t18 -117.5v-6h-338q4 -65 46 -96.5t100 -31.5q57 0 104 20t80 47v-92zM378 278q-3 44 -34.5 74.5t-82.5 30.5
q-29 0 -50 -9t-35 -23.5t-22 -33.5t-11 -39h235zM291 508h-108l134 122h108z" />
    <glyph glyph-name="egrave" unicode="&#xe8;" horiz-adv-x="527" 
d="M473 47q-86 -59 -196 -59q-53 0 -96 17t-73 48.5t-46.5 76t-16.5 99.5q0 43 13.5 85t40.5 75t68.5 53.5t98.5 20.5q41 0 80 -14.5t69 -45.5t48 -79.5t18 -117.5v-6h-338q4 -65 46 -96.5t100 -31.5q57 0 104 20t80 47v-92zM378 278q-3 44 -34.5 74.5t-82.5 30.5
q-29 0 -50 -9t-35 -23.5t-22 -33.5t-11 -39h235zM240 508l-134 122h108l134 -122h-108z" />
    <glyph glyph-name="ecircumflex" unicode="&#xea;" horiz-adv-x="527" 
d="M473 47q-86 -59 -196 -59q-53 0 -96 17t-73 48.5t-46.5 76t-16.5 99.5q0 43 13.5 85t40.5 75t68.5 53.5t98.5 20.5q41 0 80 -14.5t69 -45.5t48 -79.5t18 -117.5v-6h-338q4 -65 46 -96.5t100 -31.5q57 0 104 20t80 47v-92zM378 278q-3 44 -34.5 74.5t-82.5 30.5
q-29 0 -50 -9t-35 -23.5t-22 -33.5t-11 -39h235zM326 508l-62 73l-63 -73h-94l111 122h91l111 -122h-94z" />
    <glyph glyph-name="edieresis" unicode="&#xeb;" horiz-adv-x="527" 
d="M473 47q-86 -59 -196 -59q-53 0 -96 17t-73 48.5t-46.5 76t-16.5 99.5q0 43 13.5 85t40.5 75t68.5 53.5t98.5 20.5q41 0 80 -14.5t69 -45.5t48 -79.5t18 -117.5v-6h-338q4 -65 46 -96.5t100 -31.5q57 0 104 20t80 47v-92zM378 278q-3 44 -34.5 74.5t-82.5 30.5
q-29 0 -50 -9t-35 -23.5t-22 -33.5t-11 -39h235zM299 522v96h96v-96h-96zM132 522v96h96v-96h-96z" />
    <glyph glyph-name="iacute" unicode="&#xed;" horiz-adv-x="230" 
d="M68 0v453h93v-453h-93zM162 508h-108l134 122h108z" />
    <glyph glyph-name="igrave" unicode="&#xec;" horiz-adv-x="230" 
d="M68 0v453h93v-453h-93zM71 508l-134 122h108l134 -122h-108z" />
    <glyph glyph-name="icircumflex" unicode="&#xee;" horiz-adv-x="230" 
d="M68 0v453h93v-453h-93zM177 508l-62 73l-63 -73h-94l111 122h91l111 -122h-94z" />
    <glyph glyph-name="idieresis" unicode="&#xef;" horiz-adv-x="230" 
d="M68 0v453h93v-453h-93zM150 522v96h96v-96h-96zM-17 522v96h96v-96h-96z" />
    <glyph glyph-name="ntilde" unicode="&#xf1;" horiz-adv-x="576" 
d="M413 0v244q0 63 -31.5 96.5t-85.5 33.5q-38 0 -71.5 -15.5t-56.5 -32.5v-326h-93v453h85v-42q24 17 60 33.5t88 16.5q25 0 59 -8t65 -32t52.5 -67.5t21.5 -114.5v-239h-93zM449 618q-5 -47 -26 -76t-62 -29q-17 0 -37 6.5t-39.5 14t-37 14t-29.5 6.5q-11 0 -17.5 -9
t-7.5 -30h-67q1 22 7 42t16.5 35t25 23.5t34.5 8.5q18 0 38 -6.5t39.5 -14t37 -14t31.5 -6.5q11 0 18 7.5t9 27.5h67z" />
    <glyph glyph-name="oacute" unicode="&#xf3;" horiz-adv-x="574" 
d="M529 226q0 -50 -18 -93t-50.5 -75t-77 -50.5t-96.5 -18.5q-53 0 -97 18.5t-76.5 50.5t-50.5 75t-18 93q0 49 18 92.5t50.5 75.5t76.5 50.5t97 18.5q52 0 96.5 -18.5t77 -50.5t50.5 -75.5t18 -92.5zM287 75q31 0 57.5 11t46 31t30.5 47.5t11 61.5t-11 61.5t-30.5 47.5
t-46 31t-57.5 11t-57.5 -11t-46 -31t-30.5 -47.5t-11 -61.5t11 -61.5t30.5 -47.5t46 -31t57.5 -11zM314 508h-108l134 122h108z" />
    <glyph glyph-name="ograve" unicode="&#xf2;" horiz-adv-x="574" 
d="M529 226q0 -50 -18 -93t-50.5 -75t-77 -50.5t-96.5 -18.5q-53 0 -97 18.5t-76.5 50.5t-50.5 75t-18 93q0 49 18 92.5t50.5 75.5t76.5 50.5t97 18.5q52 0 96.5 -18.5t77 -50.5t50.5 -75.5t18 -92.5zM287 75q31 0 57.5 11t46 31t30.5 47.5t11 61.5t-11 61.5t-30.5 47.5
t-46 31t-57.5 11t-57.5 -11t-46 -31t-30.5 -47.5t-11 -61.5t11 -61.5t30.5 -47.5t46 -31t57.5 -11zM263 508l-134 122h108l134 -122h-108z" />
    <glyph glyph-name="ocircumflex" unicode="&#xf4;" horiz-adv-x="574" 
d="M529 226q0 -50 -18 -93t-50.5 -75t-77 -50.5t-96.5 -18.5q-53 0 -97 18.5t-76.5 50.5t-50.5 75t-18 93q0 49 18 92.5t50.5 75.5t76.5 50.5t97 18.5q52 0 96.5 -18.5t77 -50.5t50.5 -75.5t18 -92.5zM287 75q31 0 57.5 11t46 31t30.5 47.5t11 61.5t-11 61.5t-30.5 47.5
t-46 31t-57.5 11t-57.5 -11t-46 -31t-30.5 -47.5t-11 -61.5t11 -61.5t30.5 -47.5t46 -31t57.5 -11zM349 508l-62 73l-63 -73h-94l111 122h91l111 -122h-94z" />
    <glyph glyph-name="odieresis" unicode="&#xf6;" horiz-adv-x="574" 
d="M529 226q0 -50 -18 -93t-50.5 -75t-77 -50.5t-96.5 -18.5q-53 0 -97 18.5t-76.5 50.5t-50.5 75t-18 93q0 49 18 92.5t50.5 75.5t76.5 50.5t97 18.5q52 0 96.5 -18.5t77 -50.5t50.5 -75.5t18 -92.5zM287 75q31 0 57.5 11t46 31t30.5 47.5t11 61.5t-11 61.5t-30.5 47.5
t-46 31t-57.5 11t-57.5 -11t-46 -31t-30.5 -47.5t-11 -61.5t11 -61.5t30.5 -47.5t46 -31t57.5 -11zM322 522v96h96v-96h-96zM155 522v96h96v-96h-96z" />
    <glyph glyph-name="otilde" unicode="&#xf5;" horiz-adv-x="574" 
d="M529 226q0 -50 -18 -93t-50.5 -75t-77 -50.5t-96.5 -18.5q-53 0 -97 18.5t-76.5 50.5t-50.5 75t-18 93q0 49 18 92.5t50.5 75.5t76.5 50.5t97 18.5q52 0 96.5 -18.5t77 -50.5t50.5 -75.5t18 -92.5zM287 75q31 0 57.5 11t46 31t30.5 47.5t11 61.5t-11 61.5t-30.5 47.5
t-46 31t-57.5 11t-57.5 -11t-46 -31t-30.5 -47.5t-11 -61.5t11 -61.5t30.5 -47.5t46 -31t57.5 -11zM448 618q-5 -47 -26 -76t-62 -29q-17 0 -37 6.5t-39.5 14t-37 14t-29.5 6.5q-11 0 -17.5 -9t-7.5 -30h-67q1 22 7 42t16.5 35t25 23.5t34.5 8.5q18 0 38 -6.5t39.5 -14
t37 -14t31.5 -6.5q11 0 18 7.5t9 27.5h67z" />
    <glyph glyph-name="uacute" unicode="&#xfa;" horiz-adv-x="576" 
d="M416 0v42q-24 -17 -60 -34t-88 -17q-25 0 -59 8t-65 32t-52.5 67.5t-21.5 114.5v240h93v-245q0 -63 31.5 -96.5t85.5 -33.5q38 0 71.5 16t56.5 33v326h93v-453h-85zM315 508h-108l134 122h108z" />
    <glyph glyph-name="ugrave" unicode="&#xf9;" horiz-adv-x="576" 
d="M416 0v42q-24 -17 -60 -34t-88 -17q-25 0 -59 8t-65 32t-52.5 67.5t-21.5 114.5v240h93v-245q0 -63 31.5 -96.5t85.5 -33.5q38 0 71.5 16t56.5 33v326h93v-453h-85zM264 508l-134 122h108l134 -122h-108z" />
    <glyph glyph-name="ucircumflex" unicode="&#xfb;" horiz-adv-x="576" 
d="M416 0v42q-24 -17 -60 -34t-88 -17q-25 0 -59 8t-65 32t-52.5 67.5t-21.5 114.5v240h93v-245q0 -63 31.5 -96.5t85.5 -33.5q38 0 71.5 16t56.5 33v326h93v-453h-85zM350 508l-62 73l-63 -73h-94l111 122h91l111 -122h-94z" />
    <glyph glyph-name="udieresis" unicode="&#xfc;" horiz-adv-x="576" 
d="M416 0v42q-24 -17 -60 -34t-88 -17q-25 0 -59 8t-65 32t-52.5 67.5t-21.5 114.5v240h93v-245q0 -63 31.5 -96.5t85.5 -33.5q38 0 71.5 16t56.5 33v326h93v-453h-85zM323 522v96h96v-96h-96zM156 522v96h96v-96h-96z" />
    <glyph glyph-name="dagger" unicode="&#x2020;" horiz-adv-x="471" 
d="M189 -154v525h-137v82h137v219h93v-219h137v-82h-137v-525h-93z" />
    <glyph glyph-name="degree" unicode="&#xb0;" horiz-adv-x="314" 
d="M277 566q0 -25 -9.5 -46.5t-26 -38t-38 -26t-46.5 -9.5t-46.5 9.5t-38 26t-26 38t-9.5 46.5t9.5 46.5t26 38t38 26t46.5 9.5t46.5 -9.5t38 -26t26 -38t9.5 -46.5zM218 566q0 26 -17.5 43.5t-43.5 17.5t-43.5 -17.5t-17.5 -43.5t17.5 -43.5t43.5 -17.5t43.5 17.5
t17.5 43.5z" />
    <glyph glyph-name="cent" unicode="&#xa2;" 
d="M289 -95v87q-41 5 -79 22.5t-67 47t-46 71.5t-17 95q0 43 15 83.5t43 72t66 53t85 27.5v87h65v-87q32 -4 63 -13.5t56 -23.5v-102q-26 18 -56.5 32.5t-62.5 19.5v-298q40 5 71 20t48 30v-102q-23 -14 -54 -23t-65 -12v-87h-65zM289 375q-53 -12 -82 -52.5t-29 -94.5
q0 -33 9.5 -58.5t25 -43t35.5 -28.5t41 -16v293z" />
    <glyph glyph-name="sterling" unicode="&#xa3;" 
d="M33 0q23 22 40 52t28.5 66t18.5 76.5t12 82.5h-81l34 89l52 2q0 55 6 112t28 104q21 45 59.5 73.5t99.5 28.5q51 0 87.5 -19t65.5 -48l-52 -86q-26 33 -48.5 47t-47.5 14q-29 0 -47.5 -11.5t-29.5 -32.5q-17 -33 -20.5 -83.5t-3.5 -100.5h177l-34 -89h-148
q-5 -58 -14 -104t-25 -84h311l-39 -89h-429z" />
    <glyph glyph-name="section" unicode="&#xa7;" horiz-adv-x="522" 
d="M122 -66q9 -17 23 -32.5t31.5 -27t37.5 -18.5t40 -7q22 0 40 6.5t31 17.5t20.5 25t7.5 29q0 26 -23 46.5t-58 39.5t-75.5 38.5t-75.5 43.5t-58 54t-23 71q0 25 7 47.5t23 42t40.5 35t60.5 24.5q-39 26 -66 62.5t-27 89.5q0 31 14 60.5t39.5 52.5t62 37.5t81.5 14.5
q59 0 108 -28.5t82 -82.5l-80 -57q-17 35 -47 57t-70 22q-44 0 -64.5 -21.5t-20.5 -51.5q0 -27 22 -48.5t55.5 -41t72 -39.5t72 -44.5t55.5 -55.5t22 -73q0 -60 -34 -95t-87 -51q42 -26 70 -58t28 -78q0 -41 -16.5 -74.5t-44.5 -57t-65 -36t-79 -12.5q-29 0 -59 8
t-57.5 22.5t-51 35.5t-39.5 48zM260 320q-25 -2 -47 -9.5t-38.5 -19.5t-26 -27t-9.5 -33q0 -16 10 -29.5t27 -26t39 -24t47 -23.5q54 5 87.5 27.5t33.5 59.5q0 17 -10 31.5t-27 27t-39.5 23.5t-46.5 23z" />
    <glyph glyph-name="bullet" unicode="&#x2022;" horiz-adv-x="500" 
d="M370 302q0 -25 -9.5 -46.5t-26 -38t-38 -26t-46.5 -9.5t-46.5 9.5t-38 26t-26 38t-9.5 46.5t9.5 46.5t26 38t38 26t46.5 9.5t46.5 -9.5t38 -26t26 -38t9.5 -46.5z" />
    <glyph glyph-name="paragraph" unicode="&#xb6;" horiz-adv-x="624" 
d="M475 -150v747h-102v-747h-82v364q-47 0 -83 5t-63 24q-45 32 -70.5 75.5t-25.5 117.5t30.5 122.5t75.5 80.5q27 19 67.5 26t87.5 7h247v-822h-82z" />
    <glyph glyph-name="germandbls" unicode="&#xdf;" horiz-adv-x="540" 
d="M217 96q14 -8 33 -13.5t36 -5.5q19 0 39 7t36 21.5t26 37.5t10 55q0 33 -12 60t-33.5 46t-50 29.5t-61.5 10.5h-21v80q74 0 107.5 21t33.5 71q0 34 -25 59.5t-73 25.5q-106 0 -106 -145v-456h-93v469q0 61 19 102.5t48.5 67t64.5 36.5t67 11q48 0 84 -15.5t60.5 -40
t37 -54t12.5 -57.5q0 -56 -26.5 -87t-68.5 -45q27 -11 51.5 -28t43 -40.5t29 -53.5t10.5 -67q0 -51 -18 -89.5t-46.5 -64.5t-63.5 -39.5t-69 -13.5q-25 0 -44.5 2.5t-36.5 6.5v96z" />
    <glyph glyph-name="registered" unicode="&#xae;" horiz-adv-x="377" 
d="M335 551q0 -30 -12 -56.5t-32 -46t-46.5 -30.5t-56.5 -11t-56.5 11t-46.5 30.5t-31.5 46t-11.5 56.5t11.5 56t31.5 45.5t46.5 31t56.5 11.5t56.5 -11.5t46.5 -31t32 -45.5t12 -56zM295 551q0 22 -8.5 41t-23.5 33t-34.5 22t-40.5 8q-22 0 -41 -8t-33.5 -22t-23 -33
t-8.5 -41t8.5 -41t23 -33t33.5 -22t41 -8q21 0 40.5 8t34.5 22t23.5 33t8.5 41zM219 481l-37 60h-5v-60h-37v150h48q20 0 38 -10.5t18 -33.5q0 -27 -24 -40l42 -66h-43zM192 575q15 0 15 12q0 7 -6.5 8t-11.5 1h-12v-21h15z" />
    <glyph glyph-name="copyright" unicode="&#xa9;" horiz-adv-x="726" 
d="M686 305q0 -66 -25.5 -124t-69.5 -101.5t-102.5 -68.5t-125.5 -25t-125.5 25t-102.5 68.5t-69.5 101.5t-25.5 124t25.5 124t69.5 101.5t102.5 68.5t125.5 25t125.5 -25t102.5 -68.5t69.5 -101.5t25.5 -124zM618 305q0 52 -20 98t-54.5 80t-81 54t-99.5 20t-100 -20
t-81.5 -54t-54.5 -80t-20 -98t20 -98t54.5 -80t81.5 -54t100 -20t99.5 20t81 54t54.5 80t20 98zM500 157q-24 -17 -56.5 -30.5t-79.5 -13.5q-46 0 -80.5 17t-58 44.5t-35 62t-11.5 69.5q0 39 13.5 74.5t38.5 61.5t60 41.5t78 15.5q35 0 65.5 -9t65.5 -28v-76
q-48 29 -77 37.5t-54 8.5q-32 0 -54 -12.5t-36 -31.5t-20.5 -41t-6.5 -41q0 -24 6.5 -46.5t20 -40t34.5 -28t51 -10.5q15 0 29 2t30 8t34.5 16.5t42.5 27.5v-78z" />
    <glyph glyph-name="trademark" unicode="&#x2122;" horiz-adv-x="408" 
d="M338 489v106l-48 -57l-50 57v-106h-44v183h37l56 -66l57 66h37v-183h-45zM78 489v141h-53v42h150v-42h-53v-141h-44z" />
    <glyph glyph-name="acute" unicode="&#xb4;" horiz-adv-x="500" 
d="M307 508h-108l134 122h108z" />
    <glyph glyph-name="dieresis" unicode="&#xa8;" horiz-adv-x="500" 
d="M285 522v96h96v-96h-96zM118 522v96h96v-96h-96z" />
    <glyph glyph-name="AE" unicode="&#xc6;" horiz-adv-x="973" 
d="M504 0v165h-274l-107 -165h-107l437 672h476v-87h-329v-181h247v-87h-247v-230h329v-87h-425zM504 588l-218 -336h218v336z" />
    <glyph glyph-name="Oslash" unicode="&#xd8;" horiz-adv-x="818" 
d="M685 563q38 -45 59.5 -102t21.5 -125q0 -77 -28 -141.5t-77 -111t-114 -72t-138 -25.5q-65 0 -122 20t-104 56l-68 -68l-48 48l66 67q-38 45 -59.5 102t-21.5 125q0 77 28 141.5t77 111t113.5 72t138.5 25.5q65 0 122 -20t104 -56l68 68l48 -48zM567 542q-32 26 -72.5 40
t-85.5 14q-53 0 -99.5 -20t-81 -54.5t-54.5 -82.5t-20 -103q0 -45 13.5 -85t36.5 -72zM251 130q32 -26 72.5 -40t85.5 -14q53 0 99.5 20t81 54.5t54.5 82t20 103.5q0 45 -13.5 85t-36.5 72z" />
    <glyph glyph-name="plusminus" unicode="&#xb1;" 
d="M242 122v174h-164v79h164v174h79v-174h165v-79h-165v-174h-79zM78 0v79h408v-79h-408z" />
    <glyph glyph-name="yen" unicode="&#xa5;" 
d="M234 0v155h-144v75h144v60h-144v75h112l-204 307h114l170 -268l170 268h114l-204 -307h112v-75h-144v-60h144v-75h-144v-155h-96z" />
    <glyph glyph-name="uni00B5" unicode="&#xb5;" horiz-adv-x="562" 
d="M470 -1q-14 -3 -27 -4t-26 -1q-32 0 -48 14.5t-25 48.5q-43 -64 -132 -64q-40 0 -69.5 13.5t-55.5 43.5l-54 -259h-88l155 732h88l-63 -293q-7 -31 -7 -65q0 -49 25.5 -75t72.5 -26q67 0 103.5 48t58.5 149l56 262h87l-76 -357q-5 -22 -8 -38t-3 -27q0 -18 8 -25.5
t27 -7.5h7.5t8.5 1z" />
    <glyph glyph-name="ordfeminine" unicode="&#xaa;" horiz-adv-x="325" 
d="M213 385v21q-19 -14 -36 -20.5t-38 -6.5q-42 0 -70.5 25.5t-28.5 63.5q0 20 10.5 42.5t39.5 39.5q22 13 51.5 17t66.5 4v4q0 31 -18 41.5t-37 10.5q-25 0 -49 -9.5t-51 -27.5l18 73q49 23 97 23t77.5 -28.5t29.5 -85.5v-187h-62zM208 515q-28 -1 -48 -3.5t-33 -10.5
q-11 -6 -15 -13.5t-4 -15.5q0 -12 9 -22.5t32 -10.5q13 0 28 5.5t31 18.5v52z" />
    <glyph glyph-name="ordmasculine" unicode="&#xba;" horiz-adv-x="395" 
d="M355 532q0 -32 -12 -60t-33 -49t-50 -33t-63 -12t-63 12t-50 33t-32.5 49t-11.5 60t11.5 60t32.5 49t50 33t63 12t63 -12t50 -33t33 -49t12 -60zM197 442q37 0 62 24.5t25 65.5t-25 65.5t-62 24.5t-61.5 -24.5t-24.5 -65.5t24.5 -65.5t61.5 -24.5z" />
    <glyph glyph-name="ae" unicode="&#xe6;" horiz-adv-x="791" 
d="M737 47q-86 -59 -196 -59q-55 0 -99.5 18.5t-74.5 52.5q-38 -32 -81.5 -51.5t-91.5 -19.5q-32 0 -60 10.5t-49 29.5t-33 43.5t-12 53.5q0 12 4 28.5t13 33t24 32.5t36 28q35 20 82.5 26.5t109.5 6.5v14q0 27 -9 44.5t-23 28t-30.5 14.5t-32.5 4q-42 0 -79 -14.5
t-69 -35.5l23 93q38 17 73.5 26t74.5 9q91 0 135 -63q27 29 66 46t92 17q41 0 80 -14.5t69 -45.5t48 -79.5t18 -117.5v-6h-338q4 -65 46 -96.5t100 -31.5q57 0 104 20t80 47v-92zM642 278q-3 44 -34.5 74.5t-82.5 30.5q-29 0 -50 -9t-35 -23.5t-22 -33.5t-11 -39h235z
M328 122q-15 36 -18 81q-48 0 -84 -3.5t-59 -16.5q-20 -11 -26.5 -26.5t-6.5 -26.5q0 -23 17 -42t56 -19q54 0 121 53z" />
    <glyph glyph-name="oslash" unicode="&#xf8;" horiz-adv-x="574" 
d="M479 374q24 -30 37 -68t13 -80q0 -50 -18 -93t-50.5 -75t-77 -50.5t-96.5 -18.5q-43 0 -80 12t-67 34l-55 -55l-44 44l54 54q-50 62 -50 148q0 49 18 92.5t50.5 75.5t76.5 50.5t97 18.5q43 0 80 -12t67 -34l55 55l44 -44zM369 352q-36 25 -82 25q-31 0 -57.5 -11t-46 -31
t-30.5 -47.5t-11 -61.5q0 -46 20 -81zM205 100q36 -25 82 -25q31 0 57.5 11t46 31t30.5 47.5t11 61.5q0 46 -20 81z" />
    <glyph glyph-name="questiondown" unicode="&#xbf;" horiz-adv-x="421" 
d="M219 326l-75 75l75 75l75 -75zM388 -112q-12 -24 -28 -45.5t-38.5 -38t-53 -26.5t-70.5 -10q-47 0 -81.5 14t-57 37.5t-33.5 53t-11 59.5q0 28 7 50t19 41t28.5 36t35.5 35q26 25 42.5 40.5t25.5 25.5t12.5 16.5t3.5 13.5q0 10 -6 17.5t-26 27.5l62 62q39 -35 52 -59.5
t13 -52.5q0 -18 -5.5 -33t-17.5 -30t-30 -32.5t-42 -39.5q-39 -35 -58 -59t-19 -59q0 -33 24.5 -53.5t61.5 -20.5q39 0 66.5 17t48.5 62z" />
    <glyph glyph-name="exclamdown" unicode="&#xa1;" horiz-adv-x="274" 
d="M137 322l-75 75l75 75l75 -75zM84 -222v137l29 363h48l29 -363v-137h-106z" />
    <glyph glyph-name="logicalnot" unicode="&#xac;" 
d="M399 223v146h-321v79h408v-225h-87z" />
    <glyph glyph-name="florin" unicode="&#x192;" 
d="M-12 -132q5 -1 18.5 -2.5t23.5 -1.5q16 0 29 4.5t23.5 17t19 35.5t15.5 60l71 387h-69l16 85h69q8 49 21 91.5t35.5 74t57 49.5t85.5 18q33 0 61 -6.5t48 -13.5l-14 -83q-23 9 -45 15.5t-43 6.5q-27 0 -44.5 -9.5t-29.5 -29t-20 -48t-14 -65.5h173l-16 -85h-173l-71 -388
q-11 -62 -29.5 -101t-43 -60.5t-55 -29t-66.5 -7.5q-8 0 -24.5 1t-23.5 2z" />
    <glyph glyph-name="guillemotleft" unicode="&#xab;" horiz-adv-x="490" 
d="M373 35l-148 191l148 191h105l-148 -191l148 -191h-105zM175 35l-148 191l148 191h105l-148 -191l148 -191h-105z" />
    <glyph glyph-name="guillemotright" unicode="&#xbb;" horiz-adv-x="490" 
d="M210 35l148 191l-148 191h105l148 -191l-148 -191h-105zM12 35l148 191l-148 191h105l148 -191l-148 -191h-105z" />
    <glyph glyph-name="ellipsis" unicode="&#x2026;" horiz-adv-x="1000" 
d="M781 0v111h106v-111h-106zM447 0v111h106v-111h-106zM114 0v111h106v-111h-106z" />
    <glyph glyph-name="uni00A0" unicode="&#xa0;" horiz-adv-x="204" 
 />
    <glyph glyph-name="Agrave" unicode="&#xc0;" horiz-adv-x="680" 
d="M561 0l-68 170h-306l-68 -170h-103l279 679h90l279 -679h-103zM340 568l-118 -311h236zM316 731l-134 122h108l134 -122h-108z" />
    <glyph glyph-name="Atilde" unicode="&#xc3;" horiz-adv-x="680" 
d="M561 0l-68 170h-306l-68 -170h-103l279 679h90l279 -679h-103zM340 568l-118 -311h236zM501 841q-5 -47 -26 -76t-62 -29q-17 0 -37 6.5t-39.5 14t-37 14t-29.5 6.5q-11 0 -17.5 -9t-7.5 -30h-67q1 22 7 42t16.5 35t25 23.5t34.5 8.5q18 0 38 -6.5t39.5 -14t37 -14
t31.5 -6.5q11 0 18 7.5t9 27.5h67z" />
    <glyph glyph-name="Otilde" unicode="&#xd5;" horiz-adv-x="818" 
d="M766 336q0 -77 -28 -141.5t-77 -111t-114 -72t-138 -25.5q-74 0 -138.5 25.5t-113.5 72t-77 111t-28 141.5t28 141.5t77 111t113.5 72t138.5 25.5q73 0 138 -25.5t114 -72t77 -111t28 -141.5zM409 76q53 0 99.5 20t81 54.5t54.5 82t20 103.5q0 55 -20 103t-54.5 82.5
t-81 54.5t-99.5 20t-99.5 -20t-81 -54.5t-54.5 -82.5t-20 -103q0 -56 20 -103.5t54.5 -82t81 -54.5t99.5 -20zM570 841q-5 -47 -26 -76t-62 -29q-17 0 -37 6.5t-39.5 14t-37 14t-29.5 6.5q-11 0 -17.5 -9t-7.5 -30h-67q1 22 7 42t16.5 35t25 23.5t34.5 8.5q18 0 38 -6.5
t39.5 -14t37 -14t31.5 -6.5q11 0 18 7.5t9 27.5h67z" />
    <glyph glyph-name="OE" unicode="&#x152;" horiz-adv-x="1133" 
d="M664 0v93q-47 -51 -112 -79t-143 -28q-74 0 -138.5 25.5t-113.5 72t-77 111t-28 141.5t28 141.5t77 111t113.5 72t138.5 25.5q78 0 143 -28t112 -79v93h425v-87h-331v-181h249v-87h-249v-230h331v-87h-425zM409 76q53 0 99.5 20t81 54.5t54.5 82t20 103.5q0 55 -20 103
t-54.5 82.5t-81 54.5t-99.5 20t-99.5 -20t-81 -54.5t-54.5 -82.5t-20 -103q0 -56 20 -103.5t54.5 -82t81 -54.5t99.5 -20z" />
    <glyph glyph-name="oe" unicode="&#x153;" horiz-adv-x="914" 
d="M860 47q-86 -59 -196 -59q-62 0 -109.5 23t-77.5 65q-32 -40 -81 -63.5t-109 -23.5q-53 0 -97 18.5t-76.5 50.5t-50.5 75t-18 93q0 49 18 92.5t50.5 75.5t76.5 50.5t97 18.5q60 0 108.5 -23t80.5 -63q27 38 70.5 62t106.5 24q41 0 80 -14.5t69 -45.5t48 -79.5t18 -117.5
v-6h-338q4 -65 46 -96.5t100 -31.5q57 0 104 20t80 47v-92zM765 278q-3 44 -34.5 74.5t-82.5 30.5q-29 0 -50 -9t-35 -23.5t-22 -33.5t-11 -39h235zM287 75q31 0 57.5 11t46 31t30.5 47.5t11 61.5t-11 61.5t-30.5 47.5t-46 31t-57.5 11t-57.5 -11t-46 -31t-30.5 -47.5
t-11 -61.5t11 -61.5t30.5 -47.5t46 -31t57.5 -11z" />
    <glyph glyph-name="endash" unicode="&#x2013;" horiz-adv-x="586" 
d="M62 216v79h462v-79h-462z" />
    <glyph glyph-name="emdash" unicode="&#x2014;" horiz-adv-x="748" 
d="M62 216v79h624v-79h-624z" />
    <glyph glyph-name="quotedblleft" unicode="&#x201c;" horiz-adv-x="396" 
d="M204 475v73q0 33 13 58.5t35.5 43.5t52.5 27t65 9q5 0 9.5 -0.5t9.5 -1.5q-29 -11 -46.5 -22.5t-27 -26.5t-12.5 -35t-3 -48v-77h-96zM29 475v60q0 33 13 58.5t35.5 43.5t52.5 27t65 9q5 0 9.5 -0.5t9.5 -1.5q-29 -11 -46.5 -22.5t-27 -26.5t-12.5 -35t-3 -48v-64h-96z
" />
    <glyph glyph-name="quotedblright" unicode="&#x201d;" horiz-adv-x="396" 
d="M367 612q0 -33 -13 -58.5t-35.5 -43.5t-52.5 -27t-65 -9q-5 0 -9.5 0.5t-9.5 1.5q29 11 46.5 22.5t27 26.5t12.5 35t3 48v64h96v-60zM192 599q0 -33 -13 -58.5t-35.5 -43.5t-52.5 -27t-65 -9q-5 0 -9.5 0.5t-9.5 1.5q29 11 46.5 22.5t27 26.5t12.5 35t3 48v77h96v-73z
" />
    <glyph glyph-name="quoteleft" unicode="&#x2018;" horiz-adv-x="221" 
d="M29 475v73q0 33 13 58.5t35.5 43.5t52.5 27t65 9q5 0 9.5 -0.5t9.5 -1.5q-29 -11 -46.5 -22.5t-27 -26.5t-12.5 -35t-3 -48v-77h-96z" />
    <glyph glyph-name="quoteright" unicode="&#x2019;" horiz-adv-x="221" 
d="M192 599q0 -33 -13 -58.5t-35.5 -43.5t-52.5 -27t-65 -9q-5 0 -9.5 0.5t-9.5 1.5q29 11 46.5 22.5t27 26.5t12.5 35t3 48v77h96v-73z" />
    <glyph glyph-name="divide" unicode="&#xf7;" 
d="M234 445v96h97v-96h-97zM79 296v79h406v-79h-406zM234 130v96h97v-96h-97z" />
    <glyph glyph-name="ydieresis" unicode="&#xff;" horiz-adv-x="502" 
d="M-12 -141q8 -3 20 -4.5t18 -1.5q32 0 54 13.5t41 51.5l70 138l-203 397h98l153 -308l149 308h98l-283 -560q-35 -68 -73.5 -95t-90.5 -27q-8 0 -24.5 1.5t-26.5 3.5v83zM286 522v96h96v-96h-96zM119 522v96h96v-96h-96z" />
    <glyph glyph-name="Ydieresis" unicode="&#x178;" horiz-adv-x="602" 
d="M253 0v317l-236 355h114l170 -278l170 278h114l-236 -355v-317h-96zM336 745v96h96v-96h-96zM169 745v96h96v-96h-96z" />
    <glyph glyph-name="Euro" unicode="&#x20ac;" 
d="M547 49q-27 -21 -53.5 -33t-50.5 -18.5t-45 -8t-37 -1.5q-57 0 -102.5 19.5t-80.5 53t-58 78.5t-35 95h-97l18 75h68q-1 7 -1 13.5v13.5v16.5t1 16.5h-86l18 75h79q12 49 35 93t57.5 77t80 52.5t101.5 19.5q47 0 94.5 -15.5t94.5 -52.5l-28 -89q-42 35 -81.5 50t-79.5 15
q-36 0 -65 -12.5t-51 -33.5t-36 -48t-20 -56h275l-18 -75h-268q-1 -8 -1 -16.5v-16.5v-13.5t1 -13.5h260l-18 -75h-232q5 -30 18.5 -57.5t36 -49t54.5 -34.5t74 -13q48 0 94.5 20t83.5 58v-109z" />
    <glyph glyph-name="guilsinglleft" unicode="&#x2039;" horiz-adv-x="292" 
d="M175 35l-148 191l148 191h105l-148 -191l148 -191h-105z" />
    <glyph glyph-name="guilsinglright" unicode="&#x203a;" horiz-adv-x="292" 
d="M12 35l148 191l-148 191h105l148 -191l-148 -191h-105z" />
    <glyph glyph-name="daggerdbl" unicode="&#x2021;" horiz-adv-x="471" 
d="M189 -154v336h-137v82h137v107h-137v82h137v219h93v-219h137v-82h-137v-107h137v-82h-137v-336h-93z" />
    <glyph glyph-name="periodcentered" unicode="&#xb7;" horiz-adv-x="230" 
d="M62 280v111h106v-111h-106z" />
    <glyph glyph-name="quotesinglbase" unicode="&#x201a;" horiz-adv-x="221" 
d="M164 23q0 -33 -13 -58.5t-35.5 -43.5t-52.5 -27t-65 -9q-5 0 -9.5 0.5t-9.5 1.5q29 11 46.5 22.5t27 26.5t12.5 35t3 48v77h96v-73z" />
    <glyph glyph-name="quotedblbase" unicode="&#x201e;" horiz-adv-x="396" 
d="M339 36q0 -33 -13 -58.5t-35.5 -43.5t-52.5 -27t-65 -9q-5 0 -9.5 0.5t-9.5 1.5q29 11 46.5 22.5t27 26.5t12.5 35t3 48v64h96v-60zM164 23q0 -33 -13 -58.5t-35.5 -43.5t-52.5 -27t-65 -9q-5 0 -9.5 0.5t-9.5 1.5q29 11 46.5 22.5t27 26.5t12.5 35t3 48v77h96v-73z" />
    <glyph glyph-name="perthousand" unicode="&#x2030;" horiz-adv-x="1109" 
d="M1056 147q0 -32 -12.5 -60.5t-33.5 -49.5t-49.5 -33.5t-60.5 -12.5t-60.5 12.5t-49.5 33.5t-33 49.5t-12 60.5t12 60.5t33 49.5t49.5 33t60.5 12t60.5 -12t49.5 -33t33.5 -49.5t12.5 -60.5zM209 371q-32 0 -60.5 12.5t-49.5 33.5t-33.5 49.5t-12.5 60.5t12.5 60.5
t33.5 49.5t49.5 33t60.5 12t60.5 -12t49.5 -33t33 -49.5t12 -60.5t-12 -60.5t-33 -49.5t-49.5 -33.5t-60.5 -12.5zM109 0l441 672h97l-441 -672h-97zM550 -9q-32 0 -60.5 12.5t-49.5 33.5t-33.5 49.5t-12.5 60.5t12.5 60.5t33.5 49.5t49.5 33t60.5 12t60.5 -12t49.5 -33
t33 -49.5t12 -60.5t-12 -60.5t-33 -49.5t-49.5 -33.5t-60.5 -12.5zM980 147q0 33 -23.5 56t-56.5 23t-56 -23t-23 -56t23 -56.5t56 -23.5t56.5 23.5t23.5 56.5zM209 447q33 0 56 23.5t23 56.5t-23 56t-56 23t-56.5 -23t-23.5 -56t23.5 -56.5t56.5 -23.5zM550 67
q33 0 56 23.5t23 56.5t-23 56t-56 23t-56.5 -23t-23.5 -56t23.5 -56.5t56.5 -23.5z" />
    <glyph glyph-name="Acircumflex" unicode="&#xc2;" horiz-adv-x="680" 
d="M561 0l-68 170h-306l-68 -170h-103l279 679h90l279 -679h-103zM340 568l-118 -311h236zM402 731l-62 73l-63 -73h-94l111 122h91l111 -122h-94z" />
    <glyph glyph-name="Ecircumflex" unicode="&#xca;" horiz-adv-x="546" 
d="M77 0v672h425v-87h-329v-181h257v-87h-257v-230h329v-87h-425zM359 731l-62 73l-63 -73h-94l111 122h91l111 -122h-94z" />
    <glyph glyph-name="Aacute" unicode="&#xc1;" horiz-adv-x="680" 
d="M561 0l-68 170h-306l-68 -170h-103l279 679h90l279 -679h-103zM340 568l-118 -311h236zM367 731h-108l134 122h108z" />
    <glyph glyph-name="Edieresis" unicode="&#xcb;" horiz-adv-x="546" 
d="M77 0v672h425v-87h-329v-181h257v-87h-257v-230h329v-87h-425zM322 745v96h96v-96h-96zM155 745v96h96v-96h-96z" />
    <glyph glyph-name="Egrave" unicode="&#xc8;" horiz-adv-x="546" 
d="M77 0v672h425v-87h-329v-181h257v-87h-257v-230h329v-87h-425zM263 731l-134 122h108l134 -122h-108z" />
    <glyph glyph-name="Iacute" unicode="&#xcd;" horiz-adv-x="250" 
d="M77 0v672h96v-672h-96zM182 731h-108l134 122h108z" />
    <glyph glyph-name="Icircumflex" unicode="&#xce;" horiz-adv-x="250" 
d="M77 0v672h96v-672h-96zM187 731l-62 73l-63 -73h-94l111 122h91l111 -122h-94z" />
    <glyph glyph-name="Idieresis" unicode="&#xcf;" horiz-adv-x="250" 
d="M77 0v672h96v-672h-96zM160 745v96h96v-96h-96zM-7 745v96h96v-96h-96z" />
    <glyph glyph-name="Igrave" unicode="&#xcc;" horiz-adv-x="250" 
d="M77 0v672h96v-672h-96zM71 731l-134 122h108l134 -122h-108z" />
    <glyph glyph-name="Oacute" unicode="&#xd3;" horiz-adv-x="818" 
d="M766 336q0 -77 -28 -141.5t-77 -111t-114 -72t-138 -25.5q-74 0 -138.5 25.5t-113.5 72t-77 111t-28 141.5t28 141.5t77 111t113.5 72t138.5 25.5q73 0 138 -25.5t114 -72t77 -111t28 -141.5zM409 76q53 0 99.5 20t81 54.5t54.5 82t20 103.5q0 55 -20 103t-54.5 82.5
t-81 54.5t-99.5 20t-99.5 -20t-81 -54.5t-54.5 -82.5t-20 -103q0 -56 20 -103.5t54.5 -82t81 -54.5t99.5 -20zM436 731h-108l134 122h108z" />
    <glyph glyph-name="Ocircumflex" unicode="&#xd4;" horiz-adv-x="818" 
d="M766 336q0 -77 -28 -141.5t-77 -111t-114 -72t-138 -25.5q-74 0 -138.5 25.5t-113.5 72t-77 111t-28 141.5t28 141.5t77 111t113.5 72t138.5 25.5q73 0 138 -25.5t114 -72t77 -111t28 -141.5zM409 76q53 0 99.5 20t81 54.5t54.5 82t20 103.5q0 55 -20 103t-54.5 82.5
t-81 54.5t-99.5 20t-99.5 -20t-81 -54.5t-54.5 -82.5t-20 -103q0 -56 20 -103.5t54.5 -82t81 -54.5t99.5 -20zM471 731l-62 73l-63 -73h-94l111 122h91l111 -122h-94z" />
    <glyph glyph-name="Ograve" unicode="&#xd2;" horiz-adv-x="818" 
d="M766 336q0 -77 -28 -141.5t-77 -111t-114 -72t-138 -25.5q-74 0 -138.5 25.5t-113.5 72t-77 111t-28 141.5t28 141.5t77 111t113.5 72t138.5 25.5q73 0 138 -25.5t114 -72t77 -111t28 -141.5zM409 76q53 0 99.5 20t81 54.5t54.5 82t20 103.5q0 55 -20 103t-54.5 82.5
t-81 54.5t-99.5 20t-99.5 -20t-81 -54.5t-54.5 -82.5t-20 -103q0 -56 20 -103.5t54.5 -82t81 -54.5t99.5 -20zM385 731l-134 122h108l134 -122h-108z" />
    <glyph glyph-name="Uacute" unicode="&#xda;" horiz-adv-x="744" 
d="M576 672h96v-385q0 -78 -27 -134.5t-69.5 -93.5t-96 -55t-107.5 -18t-107.5 18t-96 55t-69.5 93.5t-27 134.5v385h96v-389q0 -60 20.5 -100t51 -63.5t66 -33.5t66.5 -10t66.5 10t66 33.5t51 63.5t20.5 100v389zM399 731h-108l134 122h108z" />
    <glyph glyph-name="Ucircumflex" unicode="&#xdb;" horiz-adv-x="744" 
d="M576 672h96v-385q0 -78 -27 -134.5t-69.5 -93.5t-96 -55t-107.5 -18t-107.5 18t-96 55t-69.5 93.5t-27 134.5v385h96v-389q0 -60 20.5 -100t51 -63.5t66 -33.5t66.5 -10t66.5 10t66 33.5t51 63.5t20.5 100v389zM434 731l-62 73l-63 -73h-94l111 122h91l111 -122h-94z" />
    <glyph glyph-name="Ugrave" unicode="&#xd9;" horiz-adv-x="744" 
d="M576 672h96v-385q0 -78 -27 -134.5t-69.5 -93.5t-96 -55t-107.5 -18t-107.5 18t-96 55t-69.5 93.5t-27 134.5v385h96v-389q0 -60 20.5 -100t51 -63.5t66 -33.5t66.5 -10t66.5 10t66 33.5t51 63.5t20.5 100v389zM348 731l-134 122h108l134 -122h-108z" />
    <glyph glyph-name="circumflex" unicode="&#x2c6;" horiz-adv-x="500" 
d="M312 508l-62 73l-63 -73h-94l111 122h91l111 -122h-94z" />
    <glyph glyph-name="tilde" unicode="&#x2dc;" horiz-adv-x="500" 
d="M411 618q-5 -47 -26 -76t-62 -29q-17 0 -37 6.5t-39.5 14t-37 14t-29.5 6.5q-11 0 -17.5 -9t-7.5 -30h-67q1 22 7 42t16.5 35t25 23.5t34.5 8.5q18 0 38 -6.5t39.5 -14t37 -14t31.5 -6.5q11 0 18 7.5t9 27.5h67z" />
    <glyph glyph-name="macron" unicode="&#xaf;" horiz-adv-x="500" 
d="M111 538v68h275v-68h-275z" />
    <glyph glyph-name="cedilla" unicode="&#xb8;" horiz-adv-x="500" 
d="M189 -143q12 -7 28 -7q14 0 30.5 8.5t16.5 34.5q0 17 -14.5 28t-39.5 13l14 68h53l-6 -37q19 -5 37.5 -22t18.5 -47q0 -41 -29.5 -66t-80.5 -25q-4 0 -14 0.5t-14 1.5v50z" />
    <glyph glyph-name="currency" unicode="&#xa4;" horiz-adv-x="639" 
d="M497 125l-33.5 33.5l-33.5 33.5q-52 -37 -117 -37q-26 0 -56.5 8t-59.5 29l-68 -67l-48 49l69 65q-18 27 -28 56.5t-10 58.5t9.5 59t28.5 56q-17 17 -34.5 33t-34.5 33l48 49l68 -67q30 20 60 28.5t56 8.5q28 0 59 -9t57 -28q17 17 34 33.5t34 33.5l48 -49
q-17 -17 -34 -33t-34 -33q20 -29 28.5 -59t8.5 -56q0 -60 -37 -115q34 -32 68 -65zM446 355q0 29 -11.5 53t-30 41.5t-42 27t-48.5 9.5q-29 0 -53 -10.5t-42 -28.5t-28 -42t-10 -50q0 -27 10.5 -51t28.5 -42t42 -28.5t51 -10.5t51.5 10.5t42.5 28.5t28.5 42t10.5 51z" />
    <glyph glyph-name="brokenbar" unicode="&#xa6;" horiz-adv-x="219" 
d="M70 350v300h79v-300h-79zM70 -150v300h79v-300h-79z" />
    <glyph glyph-name="uni00AD" unicode="&#xad;" horiz-adv-x="433" 
d="M52 206v89h329v-89h-329z" />
    <glyph glyph-name="uni00B2" unicode="&#xb2;" horiz-adv-x="372" 
d="M40 413l93 146q23 36 39 60.5t25.5 41.5t14 28t4.5 22q0 23 -15.5 35t-35.5 12q-31 0 -57.5 -18.5t-55.5 -59.5v95q27 26 55 38t65 12q57 0 91.5 -31.5t34.5 -81.5q0 -29 -11.5 -55t-40.5 -66q-21 -29 -38.5 -55.5t-39.5 -56.5h149v-66h-277z" />
    <glyph glyph-name="uni00B3" unicode="&#xb3;" horiz-adv-x="372" 
d="M75 526q6 -9 16 -18t22 -17t25.5 -13t27.5 -5q10 0 22 3t22.5 10.5t17.5 21.5t7 35q0 26 -21 46.5t-63 20.5q-11 0 -25.5 -1t-29.5 -3l94 145h-143v66h270l-103 -157q19 -3 37.5 -12t33 -23t23.5 -34.5t9 -45.5q0 -30 -11.5 -56t-32 -44.5t-48 -29t-59.5 -10.5
q-46 0 -80.5 21.5t-57.5 46.5z" />
    <glyph glyph-name="uni00B9" unicode="&#xb9;" horiz-adv-x="372" 
d="M145 413v372l82 48v-420h-82z" />
    <glyph glyph-name="onequarter" unicode="&#xbc;" horiz-adv-x="828" 
d="M115 270v372l82 48v-420h-82zM192 -12l294 711h74l-294 -711h-74zM624 0v100h-207l292 327v-263h62v-64h-62v-100h-85zM628 263l-77 -99h77v99z" />
    <glyph glyph-name="onehalf" unicode="&#xbd;" horiz-adv-x="828" 
d="M104 270v372l82 48v-420h-82zM182 -12l294 711h74l-294 -711h-74zM510 0l93 146q23 36 39 60.5t25.5 41.5t14 28t4.5 22q0 23 -15.5 35t-35.5 12q-31 0 -57.5 -18.5t-55.5 -59.5v95q27 26 55 38t65 12q57 0 91.5 -31.5t34.5 -81.5q0 -29 -11.5 -55t-40.5 -66
q-21 -29 -38.5 -55.5t-39.5 -56.5h149v-66h-277z" />
    <glyph glyph-name="threequarters" unicode="&#xbe;" horiz-adv-x="828" 
d="M95 383q6 -9 16 -18t22 -17t25.5 -13t27.5 -5q10 0 22 3t22.5 10.5t17.5 21.5t7 35q0 26 -21 46.5t-63 20.5q-11 0 -25.5 -1t-29.5 -3l94 145h-143v66h270l-103 -157q19 -3 37.5 -12t33 -23t23.5 -34.5t9 -45.5q0 -30 -11.5 -56t-32 -44.5t-48 -29t-59.5 -10.5
q-46 0 -80.5 21.5t-57.5 46.5zM273 -12l294 711h74l-294 -711h-74zM694 0v100h-207l292 327v-263h62v-64h-62v-100h-85zM698 263l-77 -99h77v99z" />
    <glyph glyph-name="Eth" unicode="&#xd0;" horiz-adv-x="705" 
d="M77 0v317h-83v87h83v268h213q73 0 139 -24t115.5 -68.5t79 -106.5t29.5 -137q0 -74 -28 -135.5t-76.5 -106t-113.5 -69.5t-140 -25h-218zM285 87q65 0 115 20t83.5 53.5t50.5 79t17 96.5q0 55 -21 100.5t-56 78.5t-82.5 51.5t-99.5 18.5h-119v-181h164v-87h-164v-230h112
z" />
    <glyph glyph-name="multiply" unicode="&#xd7;" 
d="M405 157l-123 123l-124 -123l-55 55l123 124l-123 123l56 56l123 -123l123 122l55 -55l-122 -123l123 -123z" />
    <glyph glyph-name="Yacute" unicode="&#xdd;" horiz-adv-x="602" 
d="M253 0v317l-236 355h114l170 -278l170 278h114l-236 -355v-317h-96zM328 731h-108l134 122h108z" />
    <glyph glyph-name="Thorn" unicode="&#xde;" horiz-adv-x="539" 
d="M77 0v672h96v-134h107q64 0 108 -18t72 -46.5t40.5 -64t12.5 -71.5q0 -52 -19.5 -90.5t-51.5 -63.5t-72.5 -37.5t-83.5 -12.5h-113v-134h-96zM277 221q60 0 96 29t36 86q0 22 -6.5 42.5t-22 36.5t-42 26t-65.5 10h-100v-230h104z" />
    <glyph glyph-name="eth" unicode="&#xf0;" horiz-adv-x="541" 
d="M382 572q21 -36 41.5 -77t36.5 -84t26 -88t10 -88q0 -50 -17 -95t-47.5 -78.5t-73 -53t-94.5 -19.5q-40 0 -79.5 16t-70.5 46t-50 74t-19 101q0 42 14 82.5t40.5 73t64.5 52t86 19.5q29 0 57 -7t47 -22q-9 23 -23.5 52t-31.5 58l-93 -42l-25 57l86 39q-17 27 -31 49.5
t-23 34.5h105q6 -11 14.5 -22.5t16.5 -24.5l93 42l25 -57zM383 324q-19 20 -47 35t-65 15q-29 0 -52.5 -12.5t-40.5 -33.5t-26.5 -47.5t-9.5 -54.5q0 -29 9.5 -54.5t26.5 -45.5t40 -31.5t51 -11.5t51.5 11t40.5 30.5t27 45.5t10 56q0 27 -3.5 54t-11.5 44z" />
    <glyph glyph-name="yacute" unicode="&#xfd;" horiz-adv-x="502" 
d="M-12 -141q8 -3 20 -4.5t18 -1.5q32 0 54 13.5t41 51.5l70 138l-203 397h98l153 -308l149 308h98l-283 -560q-35 -68 -73.5 -95t-90.5 -27q-8 0 -24.5 1.5t-26.5 3.5v83zM278 508h-108l134 122h108z" />
    <glyph glyph-name="thorn" unicode="&#xfe;" horiz-adv-x="573" 
d="M75 -219v891h93v-255q26 20 60 32.5t72 12.5q35 0 75 -14t74 -43t56.5 -73.5t22.5 -106.5q0 -53 -20 -96.5t-52.5 -74.5t-73.5 -47.5t-84 -16.5q-40 0 -72.5 11t-57.5 27v-247h-93zM168 118q22 -17 53 -29.5t69 -12.5q33 0 59 12t44 32t27.5 47.5t9.5 57.5q0 40 -13 68.5
t-34 47t-46 27t-49 8.5q-22 0 -40.5 -5t-33.5 -12.5t-26.5 -16t-19.5 -15.5v-209z" />
    <glyph glyph-name="Scaron" unicode="&#x160;" horiz-adv-x="565" 
d="M427 511q-23 42 -58 63t-75 21q-29 0 -48 -8.5t-30.5 -21.5t-16 -27.5t-4.5 -27.5q0 -30 24 -50t59.5 -37t77.5 -35t77.5 -43.5t59.5 -61.5t24 -90q0 -45 -17.5 -83t-47 -65t-68 -42t-80.5 -15q-53 0 -92.5 12t-70 34t-53 53t-40.5 70l86 54q8 -24 20.5 -47.5t32 -43
t46.5 -31.5t65 -12q22 0 43 7.5t37.5 21.5t26 33.5t9.5 42.5q0 36 -24 60t-59.5 42t-77.5 35t-77.5 40.5t-59.5 56.5t-24 84q0 42 15.5 76t42.5 58.5t63.5 38t78.5 13.5q63 0 117.5 -28t92.5 -87zM249 731l-111 122h94l63 -73l62 73h94l-111 -122h-91z" />
    <glyph glyph-name="scaron" unicode="&#x161;" horiz-adv-x="459" 
d="M51 120q36 -20 83 -34t97 -14q39 0 63 13t24 36q0 18 -15 29t-38 18q-49 15 -81 25.5t-53 19.5t-33.5 16.5t-21.5 16.5q-14 14 -23 33t-9 46t10.5 52t32.5 44t55.5 30.5t79.5 11.5q42 0 79 -9t70 -21v-92q-37 19 -76 29.5t-74 10.5q-47 0 -65.5 -14t-18.5 -32t16 -28
t54 -22q43 -13 71 -22.5t46 -16.5t28.5 -13t19.5 -13q20 -14 30.5 -37.5t10.5 -46.5q0 -30 -11.5 -56.5t-34.5 -47t-58 -32.5t-82 -12q-27 0 -54 4t-50 9.5t-42 12t-30 11.5v95zM184 508l-111 122h94l63 -73l62 73h94l-111 -122h-91z" />
    <glyph glyph-name="Zcaron" unicode="&#x17d;" horiz-adv-x="649" 
d="M22 0l416 585h-383v87h552l-415 -585h413v-87h-583zM279 731l-111 122h94l63 -73l62 73h94l-111 -122h-91z" />
    <glyph glyph-name="zcaron" unicode="&#x17e;" horiz-adv-x="477" 
d="M29 0l249 370h-220v83h374l-249 -370h253v-83h-407zM193 508l-111 122h94l63 -73l62 73h94l-111 -122h-91z" />
    </font>
</defs>
</svg>
